<?xml version="1.0" encoding="utf-8" standalone="no"?>
<!DOCTYPE svg PUBLIC "-//W3C//DTD SVG 1.1//EN"
  "http://www.w3.org/Graphics/SVG/1.1/DTD/svg11.dtd">
<!-- Created with matplotlib (https://matplotlib.org/) -->
<svg height="720pt" version="1.1" viewBox="0 0 1440 720" width="1440pt" xmlns="http://www.w3.org/2000/svg" xmlns:xlink="http://www.w3.org/1999/xlink">
 <metadata>
  <rdf:RDF xmlns:cc="http://creativecommons.org/ns#" xmlns:dc="http://purl.org/dc/elements/1.1/" xmlns:rdf="http://www.w3.org/1999/02/22-rdf-syntax-ns#">
   <cc:Work>
    <dc:type rdf:resource="http://purl.org/dc/dcmitype/StillImage"/>
    <dc:date>2022-01-31T02:40:52.752748</dc:date>
    <dc:format>image/svg+xml</dc:format>
    <dc:creator>
     <cc:Agent>
      <dc:title>Matplotlib v3.3.4, https://matplotlib.org/</dc:title>
     </cc:Agent>
    </dc:creator>
   </cc:Work>
  </rdf:RDF>
 </metadata>
 <defs>
  <style type="text/css">*{stroke-linecap:butt;stroke-linejoin:round;}</style>
 </defs>
 <g id="figure_1">
  <g id="patch_1">
   <path d="M 0 720 
L 1440 720 
L 1440 0 
L 0 0 
z
" style="fill:#ffffff;"/>
  </g>
  <g id="axes_1">
   <g id="patch_2">
    <path d="M 180 640.8 
L 687.272727 640.8 
L 687.272727 86.4 
L 180 86.4 
z
" style="fill:#ffffff;"/>
   </g>
   <g id="PathCollection_1">
    <defs>
     <path d="M 0 -3 
L -3 3 
L 3 3 
z
" id="m8b4a915c8c" style="stroke:#1f77b4;"/>
    </defs>
    <g clip-path="url(#p392bff4649)">
     <use style="fill:#1f77b4;stroke:#1f77b4;" x="397.22923" xlink:href="#m8b4a915c8c" y="326.721951"/>
    </g>
   </g>
   <g id="PathCollection_2">
    <defs>
     <path d="M 0 3 
C 0.795609 3 1.55874 2.683901 2.12132 2.12132 
C 2.683901 1.55874 3 0.795609 3 0 
C 3 -0.795609 2.683901 -1.55874 2.12132 -2.12132 
C 1.55874 -2.683901 0.795609 -3 0 -3 
C -0.795609 -3 -1.55874 -2.683901 -2.12132 -2.12132 
C -2.683901 -1.55874 -3 -0.795609 -3 0 
C -3 0.795609 -2.683901 1.55874 -2.12132 2.12132 
C -1.55874 2.683901 -0.795609 3 0 3 
z
" id="m5619ff8235" style="stroke:#ff0000;"/>
    </defs>
    <g clip-path="url(#p392bff4649)">
     <use style="fill:#ff0000;stroke:#ff0000;" x="324.414963" xlink:href="#m5619ff8235" y="111.6"/>
    </g>
   </g>
   <g id="PathCollection_3">
    <g clip-path="url(#p392bff4649)">
     <use style="fill:#ff0000;stroke:#ff0000;" x="309.85211" xlink:href="#m5619ff8235" y="173.063415"/>
    </g>
   </g>
   <g id="PathCollection_4">
    <g clip-path="url(#p392bff4649)">
     <use style="fill:#ff0000;stroke:#ff0000;" x="309.85211" xlink:href="#m5619ff8235" y="111.6"/>
    </g>
   </g>
   <g id="PathCollection_5">
    <g clip-path="url(#p392bff4649)">
     <use style="fill:#ff0000;stroke:#ff0000;" x="300.143541" xlink:href="#m5619ff8235" y="142.331707"/>
    </g>
   </g>
   <g id="PathCollection_6">
    <g clip-path="url(#p392bff4649)">
     <use style="fill:#ff0000;stroke:#ff0000;" x="300.143541" xlink:href="#m5619ff8235" y="111.6"/>
    </g>
   </g>
   <g id="PathCollection_7">
    <g clip-path="url(#p392bff4649)">
     <use style="fill:#ff0000;stroke:#ff0000;" x="290.434972" xlink:href="#m5619ff8235" y="173.063415"/>
    </g>
   </g>
   <g id="PathCollection_8">
    <g clip-path="url(#p392bff4649)">
     <use style="fill:#ff0000;stroke:#ff0000;" x="275.872118" xlink:href="#m5619ff8235" y="173.063415"/>
    </g>
   </g>
   <g id="PathCollection_9">
    <g clip-path="url(#p392bff4649)">
     <use style="fill:#ff0000;stroke:#ff0000;" x="275.872118" xlink:href="#m5619ff8235" y="142.331707"/>
    </g>
   </g>
   <g id="PathCollection_10">
    <g clip-path="url(#p392bff4649)">
     <use style="fill:#ff0000;stroke:#ff0000;" x="251.600696" xlink:href="#m5619ff8235" y="418.917073"/>
    </g>
   </g>
   <g id="PathCollection_11">
    <g clip-path="url(#p392bff4649)">
     <use style="fill:#ff0000;stroke:#ff0000;" x="251.600696" xlink:href="#m5619ff8235" y="388.185366"/>
    </g>
   </g>
   <g id="PathCollection_12">
    <g clip-path="url(#p392bff4649)">
     <use style="fill:#ff0000;stroke:#ff0000;" x="241.892127" xlink:href="#m5619ff8235" y="388.185366"/>
    </g>
   </g>
   <g id="PathCollection_13">
    <g clip-path="url(#p392bff4649)">
     <use style="fill:#ff0000;stroke:#ff0000;" x="241.892127" xlink:href="#m5619ff8235" y="357.453659"/>
    </g>
   </g>
   <g id="PathCollection_14">
    <g clip-path="url(#p392bff4649)">
     <use style="fill:#ff0000;stroke:#ff0000;" x="227.329274" xlink:href="#m5619ff8235" y="418.917073"/>
    </g>
   </g>
   <g id="PathCollection_15">
    <g clip-path="url(#p392bff4649)">
     <use style="fill:#ff0000;stroke:#ff0000;" x="227.329274" xlink:href="#m5619ff8235" y="357.453659"/>
    </g>
   </g>
   <g id="PathCollection_16">
    <g clip-path="url(#p392bff4649)">
     <use style="fill:#ff0000;stroke:#ff0000;" x="212.76642" xlink:href="#m5619ff8235" y="388.185366"/>
    </g>
   </g>
   <g id="PathCollection_17">
    <g clip-path="url(#p392bff4649)">
     <use style="fill:#ff0000;stroke:#ff0000;" x="203.057851" xlink:href="#m5619ff8235" y="388.185366"/>
    </g>
   </g>
   <g id="PathCollection_18">
    <g clip-path="url(#p392bff4649)">
     <use style="fill:#ff0000;stroke:#ff0000;" x="203.057851" xlink:href="#m5619ff8235" y="357.453659"/>
    </g>
   </g>
   <g id="PathCollection_19">
    <g clip-path="url(#p392bff4649)">
     <use style="fill:#ff0000;stroke:#ff0000;" x="416.646368" xlink:href="#m5619ff8235" y="603.307317"/>
    </g>
   </g>
   <g id="PathCollection_20">
    <g clip-path="url(#p392bff4649)">
     <use style="fill:#ff0000;stroke:#ff0000;" x="406.937799" xlink:href="#m5619ff8235" y="572.57561"/>
    </g>
   </g>
   <g id="PathCollection_21">
    <g clip-path="url(#p392bff4649)">
     <use style="fill:#ff0000;stroke:#ff0000;" x="406.937799" xlink:href="#m5619ff8235" y="541.843902"/>
    </g>
   </g>
   <g id="PathCollection_22">
    <g clip-path="url(#p392bff4649)">
     <use style="fill:#ff0000;stroke:#ff0000;" x="397.22923" xlink:href="#m5619ff8235" y="603.307317"/>
    </g>
   </g>
   <g id="PathCollection_23">
    <g clip-path="url(#p392bff4649)">
     <use style="fill:#ff0000;stroke:#ff0000;" x="397.22923" xlink:href="#m5619ff8235" y="541.843902"/>
    </g>
   </g>
   <g id="PathCollection_24">
    <g clip-path="url(#p392bff4649)">
     <use style="fill:#ff0000;stroke:#ff0000;" x="387.520661" xlink:href="#m5619ff8235" y="603.307317"/>
    </g>
   </g>
   <g id="PathCollection_25">
    <g clip-path="url(#p392bff4649)">
     <use style="fill:#ff0000;stroke:#ff0000;" x="387.520661" xlink:href="#m5619ff8235" y="541.843902"/>
    </g>
   </g>
   <g id="PathCollection_26">
    <g clip-path="url(#p392bff4649)">
     <use style="fill:#ff0000;stroke:#ff0000;" x="372.957808" xlink:href="#m5619ff8235" y="603.307317"/>
    </g>
   </g>
   <g id="PathCollection_27">
    <g clip-path="url(#p392bff4649)">
     <use style="fill:#ff0000;stroke:#ff0000;" x="664.214876" xlink:href="#m5619ff8235" y="449.64878"/>
    </g>
   </g>
   <g id="PathCollection_28">
    <g clip-path="url(#p392bff4649)">
     <use style="fill:#ff0000;stroke:#ff0000;" x="664.214876" xlink:href="#m5619ff8235" y="418.917073"/>
    </g>
   </g>
   <g id="PathCollection_29">
    <g clip-path="url(#p392bff4649)">
     <use style="fill:#ff0000;stroke:#ff0000;" x="649.652023" xlink:href="#m5619ff8235" y="449.64878"/>
    </g>
   </g>
   <g id="PathCollection_30">
    <g clip-path="url(#p392bff4649)">
     <use style="fill:#ff0000;stroke:#ff0000;" x="639.943454" xlink:href="#m5619ff8235" y="418.917073"/>
    </g>
   </g>
   <g id="PathCollection_31">
    <g clip-path="url(#p392bff4649)">
     <use style="fill:#ff0000;stroke:#ff0000;" x="630.234885" xlink:href="#m5619ff8235" y="449.64878"/>
    </g>
   </g>
   <g id="PathCollection_32">
    <g clip-path="url(#p392bff4649)">
     <use style="fill:#ff0000;stroke:#ff0000;" x="630.234885" xlink:href="#m5619ff8235" y="418.917073"/>
    </g>
   </g>
   <g id="PathCollection_33">
    <g clip-path="url(#p392bff4649)">
     <use style="fill:#ff0000;stroke:#ff0000;" x="625.3806" xlink:href="#m5619ff8235" y="449.64878"/>
    </g>
   </g>
   <g id="PathCollection_34">
    <g clip-path="url(#p392bff4649)">
     <use style="fill:#ff0000;stroke:#ff0000;" x="615.672031" xlink:href="#m5619ff8235" y="480.380488"/>
    </g>
   </g>
   <g id="PathCollection_35">
    <g clip-path="url(#p392bff4649)">
     <use style="fill:#ff0000;stroke:#ff0000;" x="615.672031" xlink:href="#m5619ff8235" y="418.917073"/>
    </g>
   </g>
   <g id="PathCollection_36">
    <g clip-path="url(#p392bff4649)">
     <use style="fill:#ff0000;stroke:#ff0000;" x="528.294911" xlink:href="#m5619ff8235" y="111.6"/>
    </g>
   </g>
   <g id="PathCollection_37">
    <g clip-path="url(#p392bff4649)">
     <use style="fill:#ff0000;stroke:#ff0000;" x="518.586342" xlink:href="#m5619ff8235" y="111.6"/>
    </g>
   </g>
   <g id="PathCollection_38">
    <g clip-path="url(#p392bff4649)">
     <use style="fill:#ff0000;stroke:#ff0000;" x="518.586342" xlink:href="#m5619ff8235" y="130.039024"/>
    </g>
   </g>
   <g id="PathCollection_39">
    <g clip-path="url(#p392bff4649)">
     <use style="fill:#ff0000;stroke:#ff0000;" x="504.023488" xlink:href="#m5619ff8235" y="142.331707"/>
    </g>
   </g>
   <g id="PathCollection_40">
    <g clip-path="url(#p392bff4649)">
     <use style="fill:#ff0000;stroke:#ff0000;" x="494.31492" xlink:href="#m5619ff8235" y="142.331707"/>
    </g>
   </g>
   <g id="PathCollection_41">
    <g clip-path="url(#p392bff4649)">
     <use style="fill:#ff0000;stroke:#ff0000;" x="494.31492" xlink:href="#m5619ff8235" y="111.6"/>
    </g>
   </g>
   <g id="PathCollection_42">
    <g clip-path="url(#p392bff4649)">
     <use style="fill:#ff0000;stroke:#ff0000;" x="484.606351" xlink:href="#m5619ff8235" y="173.063415"/>
    </g>
   </g>
   <g id="PathCollection_43">
    <g clip-path="url(#p392bff4649)">
     <use style="fill:#ff0000;stroke:#ff0000;" x="470.043497" xlink:href="#m5619ff8235" y="142.331707"/>
    </g>
   </g>
   <g id="PathCollection_44">
    <g clip-path="url(#p392bff4649)">
     <use style="fill:#ff0000;stroke:#ff0000;" x="470.043497" xlink:href="#m5619ff8235" y="111.6"/>
    </g>
   </g>
   <g id="PathCollection_45">
    <g clip-path="url(#p392bff4649)">
     <use style="fill:#ff0000;stroke:#ff0000;" x="470.043497" xlink:href="#m5619ff8235" y="130.039024"/>
    </g>
   </g>
   <g id="PathCollection_46">
    <g clip-path="url(#p392bff4649)">
     <use style="fill:#ff0000;stroke:#ff0000;" x="300.143541" xlink:href="#m5619ff8235" y="130.039024"/>
    </g>
   </g>
   <g id="PathCollection_47">
    <g clip-path="url(#p392bff4649)">
     <use style="fill:#ff0000;stroke:#ff0000;" x="290.434972" xlink:href="#m5619ff8235" y="142.331707"/>
    </g>
   </g>
   <g id="PathCollection_48">
    <g clip-path="url(#p392bff4649)">
     <use style="fill:#ff0000;stroke:#ff0000;" x="212.76642" xlink:href="#m5619ff8235" y="357.453659"/>
    </g>
   </g>
   <g id="PathCollection_49">
    <g clip-path="url(#p392bff4649)">
     <use style="fill:#ff0000;stroke:#ff0000;" x="406.937799" xlink:href="#m5619ff8235" y="603.307317"/>
    </g>
   </g>
   <g id="PathCollection_50">
    <g clip-path="url(#p392bff4649)">
     <use style="fill:#ff0000;stroke:#ff0000;" x="406.937799" xlink:href="#m5619ff8235" y="560.282927"/>
    </g>
   </g>
   <g id="PathCollection_51">
    <g clip-path="url(#p392bff4649)">
     <use style="fill:#ff0000;stroke:#ff0000;" x="552.566333" xlink:href="#m5619ff8235" y="418.917073"/>
    </g>
   </g>
   <g id="PathCollection_52">
    <g clip-path="url(#p392bff4649)">
     <use style="fill:#ff0000;stroke:#ff0000;" x="470.043497" xlink:href="#m5619ff8235" y="511.112195"/>
    </g>
   </g>
   <g id="PathCollection_53">
    <g clip-path="url(#p392bff4649)">
     <use style="fill:#ff0000;stroke:#ff0000;" x="324.414963" xlink:href="#m5619ff8235" y="449.64878"/>
    </g>
   </g>
   <g id="PathCollection_54">
    <g clip-path="url(#p392bff4649)">
     <use style="fill:#ff0000;stroke:#ff0000;" x="300.143541" xlink:href="#m5619ff8235" y="326.721951"/>
    </g>
   </g>
   <g id="PathCollection_55">
    <g clip-path="url(#p392bff4649)">
     <use style="fill:#ff0000;stroke:#ff0000;" x="470.043497" xlink:href="#m5619ff8235" y="265.258537"/>
    </g>
   </g>
   <g id="PathCollection_56">
    <g clip-path="url(#p392bff4649)">
     <use style="fill:#ff0000;stroke:#ff0000;" x="348.686385" xlink:href="#m5619ff8235" y="265.258537"/>
    </g>
   </g>
   <g id="PathCollection_57">
    <g clip-path="url(#p392bff4649)">
     <use style="fill:#ff0000;stroke:#ff0000;" x="445.772075" xlink:href="#m5619ff8235" y="418.917073"/>
    </g>
   </g>
   <g id="PathCollection_58">
    <g clip-path="url(#p392bff4649)">
     <use style="fill:#ff0000;stroke:#ff0000;" x="348.686385" xlink:href="#m5619ff8235" y="480.380488"/>
    </g>
   </g>
   <g id="PathCollection_59">
    <g clip-path="url(#p392bff4649)">
     <use style="fill:#ff0000;stroke:#ff0000;" x="275.872118" xlink:href="#m5619ff8235" y="572.57561"/>
    </g>
   </g>
   <g id="PathCollection_60">
    <g clip-path="url(#p392bff4649)">
     <use style="fill:#ff0000;stroke:#ff0000;" x="251.600696" xlink:href="#m5619ff8235" y="511.112195"/>
    </g>
   </g>
   <g id="PathCollection_61">
    <g clip-path="url(#p392bff4649)">
     <use style="fill:#ff0000;stroke:#ff0000;" x="275.872118" xlink:href="#m5619ff8235" y="265.258537"/>
    </g>
   </g>
   <g id="PathCollection_62">
    <g clip-path="url(#p392bff4649)">
     <use style="fill:#ff0000;stroke:#ff0000;" x="421.500652" xlink:href="#m5619ff8235" y="234.526829"/>
    </g>
   </g>
   <g id="PathCollection_63">
    <g clip-path="url(#p392bff4649)">
     <use style="fill:#ff0000;stroke:#ff0000;" x="518.586342" xlink:href="#m5619ff8235" y="418.917073"/>
    </g>
   </g>
   <g id="PathCollection_64">
    <g clip-path="url(#p392bff4649)">
     <use style="fill:#ff0000;stroke:#ff0000;" x="518.586342" xlink:href="#m5619ff8235" y="511.112195"/>
    </g>
   </g>
   <g id="PathCollection_65">
    <g clip-path="url(#p392bff4649)">
     <use style="fill:#ff0000;stroke:#ff0000;" x="421.500652" xlink:href="#m5619ff8235" y="449.64878"/>
    </g>
   </g>
   <g id="PathCollection_66">
    <g clip-path="url(#p392bff4649)">
     <use style="fill:#ff0000;stroke:#ff0000;" x="372.957808" xlink:href="#m5619ff8235" y="388.185366"/>
    </g>
   </g>
   <g id="PathCollection_67">
    <g clip-path="url(#p392bff4649)">
     <use style="fill:#ff0000;stroke:#ff0000;" x="402.083515" xlink:href="#m5619ff8235" y="406.62439"/>
    </g>
   </g>
   <g id="PathCollection_68">
    <g clip-path="url(#p392bff4649)">
     <use style="fill:#ff0000;stroke:#ff0000;" x="513.732057" xlink:href="#m5619ff8235" y="375.892683"/>
    </g>
   </g>
   <g id="PathCollection_69">
    <g clip-path="url(#p392bff4649)">
     <use style="fill:#ff0000;stroke:#ff0000;" x="397.22923" xlink:href="#m5619ff8235" y="265.258537"/>
    </g>
   </g>
   <g id="PathCollection_70">
    <g clip-path="url(#p392bff4649)">
     <use style="fill:#ff0000;stroke:#ff0000;" x="353.54067" xlink:href="#m5619ff8235" y="314.429268"/>
    </g>
   </g>
   <g id="PathCollection_71">
    <g clip-path="url(#p392bff4649)">
     <use style="fill:#ff0000;stroke:#ff0000;" x="372.957808" xlink:href="#m5619ff8235" y="209.941463"/>
    </g>
   </g>
   <g id="PathCollection_72">
    <g clip-path="url(#p392bff4649)">
     <use style="fill:#ff0000;stroke:#ff0000;" x="518.586342" xlink:href="#m5619ff8235" y="295.990244"/>
    </g>
   </g>
   <g id="PathCollection_73">
    <g clip-path="url(#p392bff4649)">
     <use style="fill:#ff0000;stroke:#ff0000;" x="508.877773" xlink:href="#m5619ff8235" y="234.526829"/>
    </g>
   </g>
   <g id="PathCollection_74">
    <g clip-path="url(#p392bff4649)">
     <use style="fill:#ff0000;stroke:#ff0000;" x="212.76642" xlink:href="#m5619ff8235" y="265.258537"/>
    </g>
   </g>
   <g id="PathCollection_75">
    <g clip-path="url(#p392bff4649)">
     <use style="fill:#ff0000;stroke:#ff0000;" x="300.143541" xlink:href="#m5619ff8235" y="511.112195"/>
    </g>
   </g>
   <g id="PathCollection_76">
    <g clip-path="url(#p392bff4649)">
     <use style="fill:#ff0000;stroke:#ff0000;" x="227.329274" xlink:href="#m5619ff8235" y="603.307317"/>
    </g>
   </g>
   <g id="PathCollection_77">
    <g clip-path="url(#p392bff4649)">
     <use style="fill:#ff0000;stroke:#ff0000;" x="494.31492" xlink:href="#m5619ff8235" y="560.282927"/>
    </g>
   </g>
   <g id="PathCollection_78">
    <g clip-path="url(#p392bff4649)">
     <use style="fill:#ff0000;stroke:#ff0000;" x="314.706394" xlink:href="#m5619ff8235" y="615.6"/>
    </g>
   </g>
   <g id="PathCollection_79">
    <g clip-path="url(#p392bff4649)">
     <use style="fill:#ff0000;stroke:#ff0000;" x="241.892127" xlink:href="#m5619ff8235" y="289.843902"/>
    </g>
   </g>
   <g id="PathCollection_80">
    <g clip-path="url(#p392bff4649)">
     <use style="fill:#ff0000;stroke:#ff0000;" x="232.183558" xlink:href="#m5619ff8235" y="216.087805"/>
    </g>
   </g>
   <g id="PathCollection_81">
    <g clip-path="url(#p392bff4649)">
     <use style="fill:#ff0000;stroke:#ff0000;" x="431.209221" xlink:href="#m5619ff8235" y="345.160976"/>
    </g>
   </g>
   <g id="PathCollection_82">
    <g clip-path="url(#p392bff4649)">
     <use style="fill:#ff0000;stroke:#ff0000;" x="440.91779" xlink:href="#m5619ff8235" y="277.55122"/>
    </g>
   </g>
   <g id="PathCollection_83">
    <g clip-path="url(#p392bff4649)">
     <use style="fill:#ff0000;stroke:#ff0000;" x="334.123532" xlink:href="#m5619ff8235" y="369.746341"/>
    </g>
   </g>
   <g id="PathCollection_84">
    <g clip-path="url(#p392bff4649)">
     <use style="fill:#ff0000;stroke:#ff0000;" x="382.666377" xlink:href="#m5619ff8235" y="443.502439"/>
    </g>
   </g>
   <g id="PathCollection_85">
    <g clip-path="url(#p392bff4649)">
     <use style="fill:#ff0000;stroke:#ff0000;" x="479.752066" xlink:href="#m5619ff8235" y="455.795122"/>
    </g>
   </g>
   <g id="PathCollection_86">
    <g clip-path="url(#p392bff4649)">
     <use style="fill:#ff0000;stroke:#ff0000;" x="508.877773" xlink:href="#m5619ff8235" y="492.673171"/>
    </g>
   </g>
   <g id="PathCollection_87">
    <g clip-path="url(#p392bff4649)">
     <use style="fill:#ff0000;stroke:#ff0000;" x="304.997825" xlink:href="#m5619ff8235" y="486.526829"/>
    </g>
   </g>
   <g id="PathCollection_88">
    <g clip-path="url(#p392bff4649)">
     <use style="fill:#ff0000;stroke:#ff0000;" x="261.309265" xlink:href="#m5619ff8235" y="486.526829"/>
    </g>
   </g>
   <g id="PathCollection_89">
    <g clip-path="url(#p392bff4649)">
     <use style="fill:#ff0000;stroke:#ff0000;" x="319.560679" xlink:href="#m5619ff8235" y="277.55122"/>
    </g>
   </g>
   <g id="PathCollection_90">
    <g clip-path="url(#p392bff4649)">
     <use style="fill:#ff0000;stroke:#ff0000;" x="528.294911" xlink:href="#m5619ff8235" y="603.307317"/>
    </g>
   </g>
   <g id="PathCollection_91">
    <g clip-path="url(#p392bff4649)">
     <use style="fill:#ff0000;stroke:#ff0000;" x="382.666377" xlink:href="#m5619ff8235" y="345.160976"/>
    </g>
   </g>
   <g id="PathCollection_92">
    <g clip-path="url(#p392bff4649)">
     <use style="fill:#ff0000;stroke:#ff0000;" x="440.91779" xlink:href="#m5619ff8235" y="375.892683"/>
    </g>
   </g>
   <g id="PathCollection_93">
    <g clip-path="url(#p392bff4649)">
     <use style="fill:#ff0000;stroke:#ff0000;" x="460.334928" xlink:href="#m5619ff8235" y="369.746341"/>
    </g>
   </g>
   <g id="PathCollection_94">
    <g clip-path="url(#p392bff4649)">
     <use style="fill:#ff0000;stroke:#ff0000;" x="499.169204" xlink:href="#m5619ff8235" y="314.429268"/>
    </g>
   </g>
   <g id="PathCollection_95">
    <g clip-path="url(#p392bff4649)">
     <use style="fill:#ff0000;stroke:#ff0000;" x="479.752066" xlink:href="#m5619ff8235" y="339.014634"/>
    </g>
   </g>
   <g id="PathCollection_96">
    <g clip-path="url(#p392bff4649)">
     <use style="fill:#ff0000;stroke:#ff0000;" x="474.897782" xlink:href="#m5619ff8235" y="406.62439"/>
    </g>
   </g>
   <g id="PathCollection_97">
    <g clip-path="url(#p392bff4649)">
     <use style="fill:#ff0000;stroke:#ff0000;" x="470.043497" xlink:href="#m5619ff8235" y="302.136585"/>
    </g>
   </g>
   <g id="PathCollection_98">
    <g clip-path="url(#p392bff4649)">
     <use style="fill:#ff0000;stroke:#ff0000;" x="222.474989" xlink:href="#m5619ff8235" y="523.404878"/>
    </g>
   </g>
   <g id="PathCollection_99">
    <g clip-path="url(#p392bff4649)">
     <use style="fill:#ff0000;stroke:#ff0000;" x="329.269247" xlink:href="#m5619ff8235" y="314.429268"/>
    </g>
   </g>
   <g id="PathCollection_100">
    <g clip-path="url(#p392bff4649)">
     <use style="fill:#ff0000;stroke:#ff0000;" x="329.269247" xlink:href="#m5619ff8235" y="418.917073"/>
    </g>
   </g>
   <g id="PathCollection_101">
    <g clip-path="url(#p392bff4649)">
     <use style="fill:#ff0000;stroke:#ff0000;" x="353.54067" xlink:href="#m5619ff8235" y="222.234146"/>
    </g>
   </g>
   <g id="matplotlib.axis_1">
    <g id="xtick_1">
     <g id="line2d_1">
      <defs>
       <path d="M 0 0 
L 0 3.5 
" id="m2aa5c664b1" style="stroke:#000000;stroke-width:0.8;"/>
      </defs>
      <g>
       <use style="stroke:#000000;stroke-width:0.8;" x="203.057851" xlink:href="#m2aa5c664b1" y="640.8"/>
      </g>
     </g>
     <g id="text_1">
      <!-- 0 -->
      <g transform="translate(199.876601 655.398438)scale(0.1 -0.1)">
       <defs>
        <path d="M 31.78125 66.40625 
Q 24.171875 66.40625 20.328125 58.90625 
Q 16.5 51.421875 16.5 36.375 
Q 16.5 21.390625 20.328125 13.890625 
Q 24.171875 6.390625 31.78125 6.390625 
Q 39.453125 6.390625 43.28125 13.890625 
Q 47.125 21.390625 47.125 36.375 
Q 47.125 51.421875 43.28125 58.90625 
Q 39.453125 66.40625 31.78125 66.40625 
z
M 31.78125 74.21875 
Q 44.046875 74.21875 50.515625 64.515625 
Q 56.984375 54.828125 56.984375 36.375 
Q 56.984375 17.96875 50.515625 8.265625 
Q 44.046875 -1.421875 31.78125 -1.421875 
Q 19.53125 -1.421875 13.0625 8.265625 
Q 6.59375 17.96875 6.59375 36.375 
Q 6.59375 54.828125 13.0625 64.515625 
Q 19.53125 74.21875 31.78125 74.21875 
z
" id="DejaVuSans-48"/>
       </defs>
       <use xlink:href="#DejaVuSans-48"/>
      </g>
     </g>
    </g>
    <g id="xtick_2">
     <g id="line2d_2">
      <g>
       <use style="stroke:#000000;stroke-width:0.8;" x="300.143541" xlink:href="#m2aa5c664b1" y="640.8"/>
      </g>
     </g>
     <g id="text_2">
      <!-- 20 -->
      <g transform="translate(293.781041 655.398438)scale(0.1 -0.1)">
       <defs>
        <path d="M 19.1875 8.296875 
L 53.609375 8.296875 
L 53.609375 0 
L 7.328125 0 
L 7.328125 8.296875 
Q 12.9375 14.109375 22.625 23.890625 
Q 32.328125 33.6875 34.8125 36.53125 
Q 39.546875 41.84375 41.421875 45.53125 
Q 43.3125 49.21875 43.3125 52.78125 
Q 43.3125 58.59375 39.234375 62.25 
Q 35.15625 65.921875 28.609375 65.921875 
Q 23.96875 65.921875 18.8125 64.3125 
Q 13.671875 62.703125 7.8125 59.421875 
L 7.8125 69.390625 
Q 13.765625 71.78125 18.9375 73 
Q 24.125 74.21875 28.421875 74.21875 
Q 39.75 74.21875 46.484375 68.546875 
Q 53.21875 62.890625 53.21875 53.421875 
Q 53.21875 48.921875 51.53125 44.890625 
Q 49.859375 40.875 45.40625 35.40625 
Q 44.1875 33.984375 37.640625 27.21875 
Q 31.109375 20.453125 19.1875 8.296875 
z
" id="DejaVuSans-50"/>
       </defs>
       <use xlink:href="#DejaVuSans-50"/>
       <use x="63.623047" xlink:href="#DejaVuSans-48"/>
      </g>
     </g>
    </g>
    <g id="xtick_3">
     <g id="line2d_3">
      <g>
       <use style="stroke:#000000;stroke-width:0.8;" x="397.22923" xlink:href="#m2aa5c664b1" y="640.8"/>
      </g>
     </g>
     <g id="text_3">
      <!-- 40 -->
      <g transform="translate(390.86673 655.398438)scale(0.1 -0.1)">
       <defs>
        <path d="M 37.796875 64.3125 
L 12.890625 25.390625 
L 37.796875 25.390625 
z
M 35.203125 72.90625 
L 47.609375 72.90625 
L 47.609375 25.390625 
L 58.015625 25.390625 
L 58.015625 17.1875 
L 47.609375 17.1875 
L 47.609375 0 
L 37.796875 0 
L 37.796875 17.1875 
L 4.890625 17.1875 
L 4.890625 26.703125 
z
" id="DejaVuSans-52"/>
       </defs>
       <use xlink:href="#DejaVuSans-52"/>
       <use x="63.623047" xlink:href="#DejaVuSans-48"/>
      </g>
     </g>
    </g>
    <g id="xtick_4">
     <g id="line2d_4">
      <g>
       <use style="stroke:#000000;stroke-width:0.8;" x="494.31492" xlink:href="#m2aa5c664b1" y="640.8"/>
      </g>
     </g>
     <g id="text_4">
      <!-- 60 -->
      <g transform="translate(487.95242 655.398438)scale(0.1 -0.1)">
       <defs>
        <path d="M 33.015625 40.375 
Q 26.375 40.375 22.484375 35.828125 
Q 18.609375 31.296875 18.609375 23.390625 
Q 18.609375 15.53125 22.484375 10.953125 
Q 26.375 6.390625 33.015625 6.390625 
Q 39.65625 6.390625 43.53125 10.953125 
Q 47.40625 15.53125 47.40625 23.390625 
Q 47.40625 31.296875 43.53125 35.828125 
Q 39.65625 40.375 33.015625 40.375 
z
M 52.59375 71.296875 
L 52.59375 62.3125 
Q 48.875 64.0625 45.09375 64.984375 
Q 41.3125 65.921875 37.59375 65.921875 
Q 27.828125 65.921875 22.671875 59.328125 
Q 17.53125 52.734375 16.796875 39.40625 
Q 19.671875 43.65625 24.015625 45.921875 
Q 28.375 48.1875 33.59375 48.1875 
Q 44.578125 48.1875 50.953125 41.515625 
Q 57.328125 34.859375 57.328125 23.390625 
Q 57.328125 12.15625 50.6875 5.359375 
Q 44.046875 -1.421875 33.015625 -1.421875 
Q 20.359375 -1.421875 13.671875 8.265625 
Q 6.984375 17.96875 6.984375 36.375 
Q 6.984375 53.65625 15.1875 63.9375 
Q 23.390625 74.21875 37.203125 74.21875 
Q 40.921875 74.21875 44.703125 73.484375 
Q 48.484375 72.75 52.59375 71.296875 
z
" id="DejaVuSans-54"/>
       </defs>
       <use xlink:href="#DejaVuSans-54"/>
       <use x="63.623047" xlink:href="#DejaVuSans-48"/>
      </g>
     </g>
    </g>
    <g id="xtick_5">
     <g id="line2d_5">
      <g>
       <use style="stroke:#000000;stroke-width:0.8;" x="591.400609" xlink:href="#m2aa5c664b1" y="640.8"/>
      </g>
     </g>
     <g id="text_5">
      <!-- 80 -->
      <g transform="translate(585.038109 655.398438)scale(0.1 -0.1)">
       <defs>
        <path d="M 31.78125 34.625 
Q 24.75 34.625 20.71875 30.859375 
Q 16.703125 27.09375 16.703125 20.515625 
Q 16.703125 13.921875 20.71875 10.15625 
Q 24.75 6.390625 31.78125 6.390625 
Q 38.8125 6.390625 42.859375 10.171875 
Q 46.921875 13.96875 46.921875 20.515625 
Q 46.921875 27.09375 42.890625 30.859375 
Q 38.875 34.625 31.78125 34.625 
z
M 21.921875 38.8125 
Q 15.578125 40.375 12.03125 44.71875 
Q 8.5 49.078125 8.5 55.328125 
Q 8.5 64.0625 14.71875 69.140625 
Q 20.953125 74.21875 31.78125 74.21875 
Q 42.671875 74.21875 48.875 69.140625 
Q 55.078125 64.0625 55.078125 55.328125 
Q 55.078125 49.078125 51.53125 44.71875 
Q 48 40.375 41.703125 38.8125 
Q 48.828125 37.15625 52.796875 32.3125 
Q 56.78125 27.484375 56.78125 20.515625 
Q 56.78125 9.90625 50.3125 4.234375 
Q 43.84375 -1.421875 31.78125 -1.421875 
Q 19.734375 -1.421875 13.25 4.234375 
Q 6.78125 9.90625 6.78125 20.515625 
Q 6.78125 27.484375 10.78125 32.3125 
Q 14.796875 37.15625 21.921875 38.8125 
z
M 18.3125 54.390625 
Q 18.3125 48.734375 21.84375 45.5625 
Q 25.390625 42.390625 31.78125 42.390625 
Q 38.140625 42.390625 41.71875 45.5625 
Q 45.3125 48.734375 45.3125 54.390625 
Q 45.3125 60.0625 41.71875 63.234375 
Q 38.140625 66.40625 31.78125 66.40625 
Q 25.390625 66.40625 21.84375 63.234375 
Q 18.3125 60.0625 18.3125 54.390625 
z
" id="DejaVuSans-56"/>
       </defs>
       <use xlink:href="#DejaVuSans-56"/>
       <use x="63.623047" xlink:href="#DejaVuSans-48"/>
      </g>
     </g>
    </g>
    <g id="text_6">
     <!-- Longitude -->
     <g transform="translate(413.084801 668.421875)scale(0.1 -0.1)">
      <defs>
       <path d="M 57.328125 18.3125 
L 58.9375 17.96875 
L 53.265625 0 
L 2 0 
L 2 1.8125 
L 4.5 1.8125 
Q 8.6875 1.8125 10.5 4.546875 
Q 11.53125 6.109375 11.53125 11.765625 
L 11.53125 54.5 
Q 11.53125 60.6875 10.15625 62.25 
Q 8.25 64.40625 4.5 64.40625 
L 2 64.40625 
L 2 66.21875 
L 31.984375 66.21875 
L 31.984375 64.40625 
Q 26.703125 64.453125 24.578125 63.421875 
Q 22.46875 62.40625 21.6875 60.84375 
Q 20.90625 59.28125 20.90625 53.375 
L 20.90625 11.765625 
Q 20.90625 7.71875 21.6875 6.203125 
Q 22.265625 5.171875 23.484375 4.6875 
Q 24.703125 4.203125 31.109375 4.203125 
L 35.9375 4.203125 
Q 43.5625 4.203125 46.625 5.328125 
Q 49.703125 6.453125 52.234375 9.296875 
Q 54.78125 12.15625 57.328125 18.3125 
z
" id="TimesNewRomanPSMT-76"/>
       <path d="M 25 46.046875 
Q 35.15625 46.046875 41.3125 38.328125 
Q 46.53125 31.734375 46.53125 23.1875 
Q 46.53125 17.1875 43.640625 11.03125 
Q 40.765625 4.890625 35.71875 1.75 
Q 30.671875 -1.375 24.46875 -1.375 
Q 14.359375 -1.375 8.40625 6.6875 
Q 3.375 13.484375 3.375 21.921875 
Q 3.375 28.078125 6.421875 34.15625 
Q 9.46875 40.234375 14.453125 43.140625 
Q 19.4375 46.046875 25 46.046875 
z
M 23.484375 42.875 
Q 20.90625 42.875 18.28125 41.328125 
Q 15.671875 39.796875 14.0625 35.9375 
Q 12.453125 32.078125 12.453125 26.03125 
Q 12.453125 16.265625 16.328125 9.171875 
Q 20.21875 2.09375 26.5625 2.09375 
Q 31.296875 2.09375 34.375 6 
Q 37.453125 9.90625 37.453125 19.4375 
Q 37.453125 31.34375 32.328125 38.1875 
Q 28.859375 42.875 23.484375 42.875 
z
" id="TimesNewRomanPSMT-111"/>
       <path d="M 16.15625 36.578125 
Q 24.03125 46.046875 31.15625 46.046875 
Q 34.8125 46.046875 37.453125 44.21875 
Q 40.09375 42.390625 41.65625 38.1875 
Q 42.71875 35.25 42.71875 29.203125 
L 42.71875 10.109375 
Q 42.71875 5.859375 43.40625 4.34375 
Q 43.953125 3.125 45.140625 2.4375 
Q 46.34375 1.765625 49.5625 1.765625 
L 49.5625 0 
L 27.4375 0 
L 27.4375 1.765625 
L 28.375 1.765625 
Q 31.5 1.765625 32.734375 2.703125 
Q 33.984375 3.65625 34.46875 5.515625 
Q 34.671875 6.25 34.671875 10.109375 
L 34.671875 28.421875 
Q 34.671875 34.515625 33.078125 37.28125 
Q 31.5 40.046875 27.734375 40.046875 
Q 21.921875 40.046875 16.15625 33.6875 
L 16.15625 10.109375 
Q 16.15625 5.5625 16.703125 4.5 
Q 17.390625 3.078125 18.578125 2.421875 
Q 19.78125 1.765625 23.4375 1.765625 
L 23.4375 0 
L 1.3125 0 
L 1.3125 1.765625 
L 2.296875 1.765625 
Q 5.71875 1.765625 6.90625 3.484375 
Q 8.109375 5.21875 8.109375 10.109375 
L 8.109375 26.703125 
Q 8.109375 34.765625 7.734375 36.515625 
Q 7.375 38.28125 6.609375 38.90625 
Q 5.859375 39.546875 4.59375 39.546875 
Q 3.21875 39.546875 1.3125 38.8125 
L 0.59375 40.578125 
L 14.0625 46.046875 
L 16.15625 46.046875 
z
" id="TimesNewRomanPSMT-110"/>
       <path d="M 15.09375 16.3125 
Q 10.984375 18.3125 8.78125 21.890625 
Q 6.59375 25.484375 6.59375 29.828125 
Q 6.59375 36.46875 11.59375 41.25 
Q 16.609375 46.046875 24.421875 46.046875 
Q 30.8125 46.046875 35.5 42.921875 
L 44.96875 42.921875 
Q 47.078125 42.921875 47.40625 42.796875 
Q 47.75 42.671875 47.90625 42.390625 
Q 48.1875 41.9375 48.1875 40.828125 
Q 48.1875 39.546875 47.953125 39.0625 
Q 47.796875 38.8125 47.4375 38.671875 
Q 47.078125 38.53125 44.96875 38.53125 
L 39.15625 38.53125 
Q 41.890625 35.015625 41.890625 29.546875 
Q 41.890625 23.296875 37.109375 18.84375 
Q 32.328125 14.40625 24.265625 14.40625 
Q 20.953125 14.40625 17.484375 15.375 
Q 15.328125 13.53125 14.5625 12.140625 
Q 13.8125 10.75 13.8125 9.765625 
Q 13.8125 8.9375 14.625 8.15625 
Q 15.4375 7.375 17.78125 7.03125 
Q 19.140625 6.84375 24.609375 6.6875 
Q 34.671875 6.453125 37.640625 6 
Q 42.1875 5.375 44.890625 2.640625 
Q 47.609375 -0.09375 47.609375 -4.109375 
Q 47.609375 -9.625 42.4375 -14.453125 
Q 34.8125 -21.578125 22.5625 -21.578125 
Q 13.140625 -21.578125 6.640625 -17.328125 
Q 2.984375 -14.890625 2.984375 -12.25 
Q 2.984375 -11.078125 3.515625 -9.90625 
Q 4.34375 -8.109375 6.9375 -4.890625 
Q 7.28125 -4.4375 11.921875 0.390625 
Q 9.375 1.90625 8.328125 3.09375 
Q 7.28125 4.296875 7.28125 5.8125 
Q 7.28125 7.515625 8.671875 9.8125 
Q 10.0625 12.109375 15.09375 16.3125 
z
M 23.578125 43.703125 
Q 19.96875 43.703125 17.53125 40.8125 
Q 15.09375 37.9375 15.09375 31.984375 
Q 15.09375 24.265625 18.40625 20.015625 
Q 20.953125 16.796875 24.859375 16.796875 
Q 28.5625 16.796875 30.953125 19.578125 
Q 33.34375 22.359375 33.34375 28.328125 
Q 33.34375 36.078125 29.984375 40.484375 
Q 27.484375 43.703125 23.578125 43.703125 
z
M 14.59375 0 
Q 12.3125 -2.484375 11.140625 -4.625 
Q 9.96875 -6.78125 9.96875 -8.59375 
Q 9.96875 -10.9375 12.796875 -12.703125 
Q 17.671875 -15.71875 26.90625 -15.71875 
Q 35.6875 -15.71875 39.859375 -12.609375 
Q 44.046875 -9.515625 44.046875 -6 
Q 44.046875 -3.46875 41.546875 -2.390625 
Q 39.015625 -1.3125 31.5 -1.125 
Q 20.515625 -0.828125 14.59375 0 
z
" id="TimesNewRomanPSMT-103"/>
       <path d="M 14.5 69.4375 
Q 16.546875 69.4375 17.984375 67.984375 
Q 19.4375 66.546875 19.4375 64.5 
Q 19.4375 62.453125 17.984375 60.984375 
Q 16.546875 59.515625 14.5 59.515625 
Q 12.453125 59.515625 10.984375 60.984375 
Q 9.515625 62.453125 9.515625 64.5 
Q 9.515625 66.546875 10.953125 67.984375 
Q 12.40625 69.4375 14.5 69.4375 
z
M 18.5625 46.046875 
L 18.5625 10.109375 
Q 18.5625 5.90625 19.171875 4.515625 
Q 19.78125 3.125 20.96875 2.4375 
Q 22.171875 1.765625 25.34375 1.765625 
L 25.34375 0 
L 3.609375 0 
L 3.609375 1.765625 
Q 6.890625 1.765625 8 2.390625 
Q 9.125 3.03125 9.78125 4.484375 
Q 10.453125 5.953125 10.453125 10.109375 
L 10.453125 27.34375 
Q 10.453125 34.625 10.015625 36.765625 
Q 9.671875 38.328125 8.9375 38.9375 
Q 8.203125 39.546875 6.9375 39.546875 
Q 5.5625 39.546875 3.609375 38.8125 
L 2.9375 40.578125 
L 16.40625 46.046875 
z
" id="TimesNewRomanPSMT-105"/>
       <path d="M 16.109375 59.421875 
L 16.109375 44.734375 
L 26.5625 44.734375 
L 26.5625 41.3125 
L 16.109375 41.3125 
L 16.109375 12.3125 
Q 16.109375 7.953125 17.359375 6.4375 
Q 18.609375 4.9375 20.5625 4.9375 
Q 22.171875 4.9375 23.6875 5.9375 
Q 25.203125 6.9375 26.03125 8.890625 
L 27.9375 8.890625 
Q 26.21875 4.109375 23.09375 1.6875 
Q 19.96875 -0.734375 16.65625 -0.734375 
Q 14.40625 -0.734375 12.25 0.515625 
Q 10.109375 1.765625 9.078125 4.078125 
Q 8.0625 6.390625 8.0625 11.234375 
L 8.0625 41.3125 
L 0.984375 41.3125 
L 0.984375 42.921875 
Q 3.65625 44 6.46875 46.5625 
Q 9.28125 49.125 11.46875 52.640625 
Q 12.59375 54.5 14.59375 59.421875 
z
" id="TimesNewRomanPSMT-116"/>
       <path d="M 42.328125 44.734375 
L 42.328125 17.625 
Q 42.328125 9.859375 42.6875 8.125 
Q 43.0625 6.390625 43.859375 5.703125 
Q 44.671875 5.03125 45.75 5.03125 
Q 47.265625 5.03125 49.171875 5.859375 
L 49.859375 4.15625 
L 36.46875 -1.375 
L 34.28125 -1.375 
L 34.28125 8.109375 
Q 28.515625 1.859375 25.484375 0.234375 
Q 22.46875 -1.375 19.09375 -1.375 
Q 15.328125 -1.375 12.5625 0.796875 
Q 9.8125 2.984375 8.734375 6.390625 
Q 7.671875 9.8125 7.671875 16.0625 
L 7.671875 36.03125 
Q 7.671875 39.203125 6.984375 40.421875 
Q 6.296875 41.65625 4.953125 42.3125 
Q 3.609375 42.96875 0.09375 42.921875 
L 0.09375 44.734375 
L 15.765625 44.734375 
L 15.765625 14.796875 
Q 15.765625 8.546875 17.9375 6.59375 
Q 20.125 4.640625 23.1875 4.640625 
Q 25.296875 4.640625 27.953125 5.953125 
Q 30.609375 7.28125 34.28125 10.984375 
L 34.28125 36.328125 
Q 34.28125 40.140625 32.890625 41.484375 
Q 31.5 42.828125 27.09375 42.921875 
L 27.09375 44.734375 
z
" id="TimesNewRomanPSMT-117"/>
       <path d="M 34.71875 5.03125 
Q 31.453125 1.609375 28.328125 0.109375 
Q 25.203125 -1.375 21.578125 -1.375 
Q 14.265625 -1.375 8.796875 4.75 
Q 3.328125 10.890625 3.328125 20.515625 
Q 3.328125 30.125 9.375 38.109375 
Q 15.4375 46.09375 24.953125 46.09375 
Q 30.859375 46.09375 34.71875 42.328125 
L 34.71875 50.59375 
Q 34.71875 58.25 34.34375 60 
Q 33.984375 61.765625 33.203125 62.390625 
Q 32.421875 63.03125 31.25 63.03125 
Q 29.984375 63.03125 27.875 62.25 
L 27.25 63.96875 
L 40.578125 69.4375 
L 42.78125 69.4375 
L 42.78125 17.71875 
Q 42.78125 9.859375 43.140625 8.125 
Q 43.5 6.390625 44.3125 5.703125 
Q 45.125 5.03125 46.1875 5.03125 
Q 47.515625 5.03125 49.703125 5.859375 
L 50.25 4.15625 
L 36.96875 -1.375 
L 34.71875 -1.375 
z
M 34.71875 8.453125 
L 34.71875 31.5 
Q 34.421875 34.8125 32.953125 37.546875 
Q 31.5 40.28125 29.078125 41.671875 
Q 26.65625 43.0625 24.359375 43.0625 
Q 20.0625 43.0625 16.703125 39.203125 
Q 12.25 34.125 12.25 24.359375 
Q 12.25 14.5 16.546875 9.25 
Q 20.84375 4 26.125 4 
Q 30.5625 4 34.71875 8.453125 
z
" id="TimesNewRomanPSMT-100"/>
       <path d="M 10.640625 27.875 
Q 10.59375 17.921875 15.484375 12.25 
Q 20.359375 6.59375 26.953125 6.59375 
Q 31.34375 6.59375 34.59375 9 
Q 37.84375 11.421875 40.046875 17.28125 
L 41.546875 16.3125 
Q 40.53125 9.625 35.59375 4.125 
Q 30.671875 -1.375 23.25 -1.375 
Q 15.1875 -1.375 9.453125 4.90625 
Q 3.71875 11.1875 3.71875 21.78125 
Q 3.71875 33.25 9.59375 39.671875 
Q 15.484375 46.09375 24.359375 46.09375 
Q 31.890625 46.09375 36.71875 41.140625 
Q 41.546875 36.1875 41.546875 27.875 
z
M 10.640625 30.71875 
L 31.34375 30.71875 
Q 31.109375 35.015625 30.328125 36.765625 
Q 29.109375 39.5 26.6875 41.0625 
Q 24.265625 42.625 21.625 42.625 
Q 17.578125 42.625 14.375 39.46875 
Q 11.1875 36.328125 10.640625 30.71875 
z
" id="TimesNewRomanPSMT-101"/>
      </defs>
      <use xlink:href="#TimesNewRomanPSMT-76"/>
      <use x="61.083984" xlink:href="#TimesNewRomanPSMT-111"/>
      <use x="111.083984" xlink:href="#TimesNewRomanPSMT-110"/>
      <use x="161.083984" xlink:href="#TimesNewRomanPSMT-103"/>
      <use x="211.083984" xlink:href="#TimesNewRomanPSMT-105"/>
      <use x="238.867188" xlink:href="#TimesNewRomanPSMT-116"/>
      <use x="266.650391" xlink:href="#TimesNewRomanPSMT-117"/>
      <use x="316.650391" xlink:href="#TimesNewRomanPSMT-100"/>
      <use x="366.650391" xlink:href="#TimesNewRomanPSMT-101"/>
     </g>
    </g>
   </g>
   <g id="matplotlib.axis_2">
    <g id="ytick_1">
     <g id="line2d_6">
      <defs>
       <path d="M 0 0 
L -3.5 0 
" id="m1e1d3c4ba4" style="stroke:#000000;stroke-width:0.8;"/>
      </defs>
      <g>
       <use style="stroke:#000000;stroke-width:0.8;" x="180" xlink:href="#m1e1d3c4ba4" y="634.039024"/>
      </g>
     </g>
     <g id="text_7">
      <!-- 0 -->
      <g transform="translate(166.6375 637.838243)scale(0.1 -0.1)">
       <use xlink:href="#DejaVuSans-48"/>
      </g>
     </g>
    </g>
    <g id="ytick_2">
     <g id="line2d_7">
      <g>
       <use style="stroke:#000000;stroke-width:0.8;" x="180" xlink:href="#m1e1d3c4ba4" y="511.112195"/>
      </g>
     </g>
     <g id="text_8">
      <!-- 20 -->
      <g transform="translate(160.275 514.911414)scale(0.1 -0.1)">
       <use xlink:href="#DejaVuSans-50"/>
       <use x="63.623047" xlink:href="#DejaVuSans-48"/>
      </g>
     </g>
    </g>
    <g id="ytick_3">
     <g id="line2d_8">
      <g>
       <use style="stroke:#000000;stroke-width:0.8;" x="180" xlink:href="#m1e1d3c4ba4" y="388.185366"/>
      </g>
     </g>
     <g id="text_9">
      <!-- 40 -->
      <g transform="translate(160.275 391.984585)scale(0.1 -0.1)">
       <use xlink:href="#DejaVuSans-52"/>
       <use x="63.623047" xlink:href="#DejaVuSans-48"/>
      </g>
     </g>
    </g>
    <g id="ytick_4">
     <g id="line2d_9">
      <g>
       <use style="stroke:#000000;stroke-width:0.8;" x="180" xlink:href="#m1e1d3c4ba4" y="265.258537"/>
      </g>
     </g>
     <g id="text_10">
      <!-- 60 -->
      <g transform="translate(160.275 269.057755)scale(0.1 -0.1)">
       <use xlink:href="#DejaVuSans-54"/>
       <use x="63.623047" xlink:href="#DejaVuSans-48"/>
      </g>
     </g>
    </g>
    <g id="ytick_5">
     <g id="line2d_10">
      <g>
       <use style="stroke:#000000;stroke-width:0.8;" x="180" xlink:href="#m1e1d3c4ba4" y="142.331707"/>
      </g>
     </g>
     <g id="text_11">
      <!-- 80 -->
      <g transform="translate(160.275 146.130926)scale(0.1 -0.1)">
       <use xlink:href="#DejaVuSans-56"/>
       <use x="63.623047" xlink:href="#DejaVuSans-48"/>
      </g>
     </g>
    </g>
    <g id="text_12">
     <!-- Latitude -->
     <g transform="translate(154.135938 380.260156)rotate(-90)scale(0.1 -0.1)">
      <defs>
       <path d="M 28.46875 6.453125 
Q 21.578125 1.125 19.828125 0.296875 
Q 17.1875 -0.921875 14.203125 -0.921875 
Q 9.578125 -0.921875 6.5625 2.25 
Q 3.5625 5.421875 3.5625 10.59375 
Q 3.5625 13.875 5.03125 16.265625 
Q 7.03125 19.578125 11.984375 22.5 
Q 16.9375 25.4375 28.46875 29.640625 
L 28.46875 31.390625 
Q 28.46875 38.09375 26.34375 40.578125 
Q 24.21875 43.0625 20.171875 43.0625 
Q 17.09375 43.0625 15.28125 41.40625 
Q 13.421875 39.75 13.421875 37.59375 
L 13.53125 34.765625 
Q 13.53125 32.515625 12.375 31.296875 
Q 11.234375 30.078125 9.375 30.078125 
Q 7.5625 30.078125 6.421875 31.34375 
Q 5.28125 32.625 5.28125 34.8125 
Q 5.28125 39.015625 9.578125 42.53125 
Q 13.875 46.046875 21.625 46.046875 
Q 27.59375 46.046875 31.390625 44.046875 
Q 34.28125 42.53125 35.640625 39.3125 
Q 36.53125 37.203125 36.53125 30.71875 
L 36.53125 15.53125 
Q 36.53125 9.125 36.765625 7.6875 
Q 37.015625 6.25 37.578125 5.765625 
Q 38.140625 5.28125 38.875 5.28125 
Q 39.65625 5.28125 40.234375 5.609375 
Q 41.265625 6.25 44.1875 9.1875 
L 44.1875 6.453125 
Q 38.71875 -0.875 33.734375 -0.875 
Q 31.34375 -0.875 29.921875 0.78125 
Q 28.515625 2.4375 28.46875 6.453125 
z
M 28.46875 9.625 
L 28.46875 26.65625 
Q 21.09375 23.734375 18.953125 22.515625 
Q 15.09375 20.359375 13.421875 18.015625 
Q 11.765625 15.671875 11.765625 12.890625 
Q 11.765625 9.375 13.859375 7.046875 
Q 15.96875 4.734375 18.703125 4.734375 
Q 22.40625 4.734375 28.46875 9.625 
z
" id="TimesNewRomanPSMT-97"/>
      </defs>
      <use xlink:href="#TimesNewRomanPSMT-76"/>
      <use x="61.083984" xlink:href="#TimesNewRomanPSMT-97"/>
      <use x="105.46875" xlink:href="#TimesNewRomanPSMT-116"/>
      <use x="133.251953" xlink:href="#TimesNewRomanPSMT-105"/>
      <use x="161.035156" xlink:href="#TimesNewRomanPSMT-116"/>
      <use x="188.818359" xlink:href="#TimesNewRomanPSMT-117"/>
      <use x="238.818359" xlink:href="#TimesNewRomanPSMT-100"/>
      <use x="288.818359" xlink:href="#TimesNewRomanPSMT-101"/>
     </g>
    </g>
   </g>
   <g id="line2d_11">
    <path clip-path="url(#p392bff4649)" d="M 397.22923 326.721951 
L 470.043497 142.331707 
L 470.043497 142.331707 
L 470.043497 130.039024 
L 470.043497 130.039024 
L 470.043497 130.039024 
L 484.606351 173.063415 
L 484.606351 173.063415 
L 484.606351 173.063415 
L 397.22923 326.721951 
L 397.22923 326.721951 
L 397.22923 326.721951 
" style="fill:none;stroke:#1f77b4;stroke-linecap:square;"/>
   </g>
   <g id="line2d_12">
    <path clip-path="url(#p392bff4649)" d="M 397.22923 326.721951 
L 372.957808 388.185366 
L 372.957808 388.185366 
L 251.600696 511.112195 
L 251.600696 511.112195 
L 227.329274 603.307317 
L 227.329274 603.307317 
L 261.309265 486.526829 
L 261.309265 486.526829 
L 222.474989 523.404878 
L 222.474989 523.404878 
L 275.872118 572.57561 
L 275.872118 572.57561 
L 275.872118 572.57561 
L 397.22923 326.721951 
L 397.22923 326.721951 
L 397.22923 326.721951 
" style="fill:none;stroke:#ff7f0e;stroke-linecap:square;"/>
   </g>
   <g id="line2d_13">
    <path clip-path="url(#p392bff4649)" d="M 397.22923 326.721951 
L 615.672031 480.380488 
L 615.672031 480.380488 
L 630.234885 449.64878 
L 630.234885 449.64878 
L 630.234885 449.64878 
L 649.652023 449.64878 
L 649.652023 449.64878 
L 664.214876 449.64878 
L 664.214876 449.64878 
L 664.214876 449.64878 
L 625.3806 449.64878 
L 625.3806 449.64878 
L 499.169204 314.429268 
L 499.169204 314.429268 
L 499.169204 314.429268 
L 431.209221 345.160976 
L 431.209221 345.160976 
L 397.22923 326.721951 
L 397.22923 326.721951 
L 397.22923 326.721951 
" style="fill:none;stroke:#2ca02c;stroke-linecap:square;"/>
   </g>
   <g id="line2d_14">
    <path clip-path="url(#p392bff4649)" d="M 397.22923 326.721951 
L 382.666377 443.502439 
L 382.666377 443.502439 
L 382.666377 443.502439 
L 421.500652 449.64878 
L 421.500652 449.64878 
L 470.043497 511.112195 
L 470.043497 511.112195 
L 470.043497 511.112195 
L 508.877773 492.673171 
L 508.877773 492.673171 
L 479.752066 455.795122 
L 479.752066 455.795122 
L 445.772075 418.917073 
L 445.772075 418.917073 
L 402.083515 406.62439 
L 402.083515 406.62439 
L 440.91779 375.892683 
L 440.91779 375.892683 
L 397.22923 326.721951 
L 397.22923 326.721951 
L 397.22923 326.721951 
" style="fill:none;stroke:#d62728;stroke-linecap:square;"/>
   </g>
   <g id="line2d_15">
    <path clip-path="url(#p392bff4649)" d="M 397.22923 326.721951 
L 664.214876 418.917073 
L 664.214876 418.917073 
L 664.214876 418.917073 
L 639.943454 418.917073 
L 639.943454 418.917073 
L 630.234885 418.917073 
L 630.234885 418.917073 
L 615.672031 418.917073 
L 615.672031 418.917073 
L 615.672031 418.917073 
L 552.566333 418.917073 
L 552.566333 418.917073 
L 528.294911 603.307317 
L 528.294911 603.307317 
L 397.22923 326.721951 
L 397.22923 326.721951 
L 397.22923 326.721951 
" style="fill:none;stroke:#9467bd;stroke-linecap:square;"/>
   </g>
   <g id="line2d_16">
    <path clip-path="url(#p392bff4649)" d="M 397.22923 326.721951 
L 227.329274 357.453659 
L 227.329274 357.453659 
L 212.76642 357.453659 
L 212.76642 357.453659 
L 241.892127 357.453659 
L 241.892127 357.453659 
L 212.76642 265.258537 
L 212.76642 265.258537 
L 232.183558 216.087805 
L 232.183558 216.087805 
L 290.434972 142.331707 
L 290.434972 142.331707 
L 348.686385 265.258537 
L 348.686385 265.258537 
L 397.22923 326.721951 
L 397.22923 326.721951 
L 397.22923 326.721951 
" style="fill:none;stroke:#8c564b;stroke-linecap:square;"/>
   </g>
   <g id="line2d_17">
    <path clip-path="url(#p392bff4649)" d="M 397.22923 326.721951 
L 334.123532 369.746341 
L 334.123532 369.746341 
L 334.123532 369.746341 
L 241.892127 388.185366 
L 241.892127 388.185366 
L 212.76642 388.185366 
L 212.76642 388.185366 
L 203.057851 388.185366 
L 203.057851 388.185366 
L 251.600696 418.917073 
L 251.600696 418.917073 
L 251.600696 388.185366 
L 251.600696 388.185366 
L 227.329274 418.917073 
L 227.329274 418.917073 
L 203.057851 357.453659 
L 203.057851 357.453659 
L 397.22923 326.721951 
L 397.22923 326.721951 
L 397.22923 326.721951 
" style="fill:none;stroke:#e377c2;stroke-linecap:square;"/>
   </g>
   <g id="line2d_18">
    <path clip-path="url(#p392bff4649)" d="M 397.22923 326.721951 
L 518.586342 511.112195 
L 518.586342 511.112195 
L 494.31492 560.282927 
L 494.31492 560.282927 
L 494.31492 560.282927 
L 416.646368 603.307317 
L 416.646368 603.307317 
L 372.957808 603.307317 
L 372.957808 603.307317 
L 372.957808 603.307317 
L 314.706394 615.6 
L 314.706394 615.6 
L 397.22923 326.721951 
L 397.22923 326.721951 
L 397.22923 326.721951 
" style="fill:none;stroke:#7f7f7f;stroke-linecap:square;"/>
   </g>
   <g id="line2d_19">
    <path clip-path="url(#p392bff4649)" d="M 397.22923 326.721951 
L 324.414963 449.64878 
L 324.414963 449.64878 
L 324.414963 449.64878 
L 329.269247 418.917073 
L 329.269247 418.917073 
L 329.269247 418.917073 
L 348.686385 480.380488 
L 348.686385 480.380488 
L 304.997825 486.526829 
L 304.997825 486.526829 
L 300.143541 511.112195 
L 300.143541 511.112195 
L 300.143541 511.112195 
L 397.22923 326.721951 
L 397.22923 326.721951 
L 397.22923 326.721951 
" style="fill:none;stroke:#bcbd22;stroke-linecap:square;"/>
   </g>
   <g id="line2d_20">
    <path clip-path="url(#p392bff4649)" d="M 397.22923 326.721951 
L 508.877773 234.526829 
L 508.877773 234.526829 
L 508.877773 234.526829 
L 494.31492 142.331707 
L 494.31492 142.331707 
L 518.586342 111.6 
L 518.586342 111.6 
L 504.023488 142.331707 
L 504.023488 142.331707 
L 494.31492 111.6 
L 494.31492 111.6 
L 470.043497 111.6 
L 470.043497 111.6 
L 470.043497 111.6 
L 518.586342 130.039024 
L 518.586342 130.039024 
L 528.294911 111.6 
L 528.294911 111.6 
L 372.957808 209.941463 
L 372.957808 209.941463 
L 397.22923 326.721951 
L 397.22923 326.721951 
L 397.22923 326.721951 
" style="fill:none;stroke:#17becf;stroke-linecap:square;"/>
   </g>
   <g id="line2d_21">
    <path clip-path="url(#p392bff4649)" d="M 397.22923 326.721951 
L 460.334928 369.746341 
L 460.334928 369.746341 
L 474.897782 406.62439 
L 474.897782 406.62439 
L 474.897782 406.62439 
L 518.586342 418.917073 
L 518.586342 418.917073 
L 513.732057 375.892683 
L 513.732057 375.892683 
L 518.586342 295.990244 
L 518.586342 295.990244 
L 479.752066 339.014634 
L 479.752066 339.014634 
L 470.043497 302.136585 
L 470.043497 302.136585 
L 470.043497 302.136585 
L 470.043497 265.258537 
L 470.043497 265.258537 
L 397.22923 265.258537 
L 397.22923 265.258537 
L 397.22923 326.721951 
L 397.22923 326.721951 
L 397.22923 326.721951 
" style="fill:none;stroke:#1f77b4;stroke-linecap:square;"/>
   </g>
   <g id="line2d_22">
    <path clip-path="url(#p392bff4649)" d="M 397.22923 326.721951 
L 421.500652 234.526829 
L 421.500652 234.526829 
L 421.500652 234.526829 
L 440.91779 277.55122 
L 440.91779 277.55122 
L 440.91779 277.55122 
L 382.666377 345.160976 
L 382.666377 345.160976 
L 397.22923 326.721951 
L 397.22923 326.721951 
L 397.22923 326.721951 
" style="fill:none;stroke:#ff7f0e;stroke-linecap:square;"/>
   </g>
   <g id="line2d_23">
    <path clip-path="url(#p392bff4649)" d="M 397.22923 326.721951 
L 300.143541 111.6 
L 300.143541 111.6 
L 300.143541 111.6 
L 300.143541 130.039024 
L 300.143541 130.039024 
L 309.85211 173.063415 
L 309.85211 173.063415 
L 275.872118 173.063415 
L 275.872118 173.063415 
L 290.434972 173.063415 
L 290.434972 173.063415 
L 275.872118 142.331707 
L 275.872118 142.331707 
L 309.85211 111.6 
L 309.85211 111.6 
L 324.414963 111.6 
L 324.414963 111.6 
L 300.143541 142.331707 
L 300.143541 142.331707 
L 353.54067 222.234146 
L 353.54067 222.234146 
L 397.22923 326.721951 
L 397.22923 326.721951 
L 397.22923 326.721951 
" style="fill:none;stroke:#2ca02c;stroke-linecap:square;"/>
   </g>
   <g id="line2d_24">
    <path clip-path="url(#p392bff4649)" d="M 397.22923 326.721951 
L 353.54067 314.429268 
L 353.54067 314.429268 
L 353.54067 314.429268 
L 329.269247 314.429268 
L 329.269247 314.429268 
L 319.560679 277.55122 
L 319.560679 277.55122 
L 300.143541 326.721951 
L 300.143541 326.721951 
L 300.143541 326.721951 
L 241.892127 289.843902 
L 241.892127 289.843902 
L 275.872118 265.258537 
L 275.872118 265.258537 
L 275.872118 265.258537 
L 397.22923 326.721951 
L 397.22923 326.721951 
L 397.22923 326.721951 
" style="fill:none;stroke:#d62728;stroke-linecap:square;"/>
   </g>
   <g id="line2d_25">
    <path clip-path="url(#p392bff4649)" d="M 397.22923 326.721951 
L 387.520661 603.307317 
L 387.520661 603.307317 
L 387.520661 603.307317 
L 397.22923 603.307317 
L 397.22923 603.307317 
L 406.937799 572.57561 
L 406.937799 572.57561 
L 406.937799 560.282927 
L 406.937799 560.282927 
L 397.22923 541.843902 
L 397.22923 541.843902 
L 406.937799 541.843902 
L 406.937799 541.843902 
L 406.937799 603.307317 
L 406.937799 603.307317 
L 406.937799 603.307317 
L 387.520661 541.843902 
L 387.520661 541.843902 
L 397.22923 326.721951 
L 397.22923 326.721951 
L 397.22923 326.721951 
" style="fill:none;stroke:#9467bd;stroke-linecap:square;"/>
   </g>
   <g id="patch_3">
    <path d="M 180 640.8 
L 180 86.4 
" style="fill:none;stroke:#000000;stroke-linecap:square;stroke-linejoin:miter;stroke-width:0.8;"/>
   </g>
   <g id="patch_4">
    <path d="M 687.272727 640.8 
L 687.272727 86.4 
" style="fill:none;stroke:#000000;stroke-linecap:square;stroke-linejoin:miter;stroke-width:0.8;"/>
   </g>
   <g id="patch_5">
    <path d="M 180 640.8 
L 687.272727 640.8 
" style="fill:none;stroke:#000000;stroke-linecap:square;stroke-linejoin:miter;stroke-width:0.8;"/>
   </g>
   <g id="patch_6">
    <path d="M 180 86.4 
L 687.272727 86.4 
" style="fill:none;stroke:#000000;stroke-linecap:square;stroke-linejoin:miter;stroke-width:0.8;"/>
   </g>
   <g id="text_13">
    <!-- Solution obtained by ADMM -->
    <g transform="translate(350.555114 80.4)scale(0.12 -0.12)">
     <defs>
      <path d="M 53.515625 70.515625 
L 53.515625 60.890625 
Q 47.90625 63.578125 42.921875 64.890625 
Q 37.9375 66.21875 33.296875 66.21875 
Q 25.25 66.21875 20.875 63.09375 
Q 16.5 59.96875 16.5 54.203125 
Q 16.5 49.359375 19.40625 46.890625 
Q 22.3125 44.4375 30.421875 42.921875 
L 36.375 41.703125 
Q 47.40625 39.59375 52.65625 34.296875 
Q 57.90625 29 57.90625 20.125 
Q 57.90625 9.515625 50.796875 4.046875 
Q 43.703125 -1.421875 29.984375 -1.421875 
Q 24.8125 -1.421875 18.96875 -0.25 
Q 13.140625 0.921875 6.890625 3.21875 
L 6.890625 13.375 
Q 12.890625 10.015625 18.65625 8.296875 
Q 24.421875 6.59375 29.984375 6.59375 
Q 38.421875 6.59375 43.015625 9.90625 
Q 47.609375 13.234375 47.609375 19.390625 
Q 47.609375 24.75 44.3125 27.78125 
Q 41.015625 30.8125 33.5 32.328125 
L 27.484375 33.5 
Q 16.453125 35.6875 11.515625 40.375 
Q 6.59375 45.0625 6.59375 53.421875 
Q 6.59375 63.09375 13.40625 68.65625 
Q 20.21875 74.21875 32.171875 74.21875 
Q 37.3125 74.21875 42.625 73.28125 
Q 47.953125 72.359375 53.515625 70.515625 
z
" id="DejaVuSans-83"/>
      <path d="M 30.609375 48.390625 
Q 23.390625 48.390625 19.1875 42.75 
Q 14.984375 37.109375 14.984375 27.296875 
Q 14.984375 17.484375 19.15625 11.84375 
Q 23.34375 6.203125 30.609375 6.203125 
Q 37.796875 6.203125 41.984375 11.859375 
Q 46.1875 17.53125 46.1875 27.296875 
Q 46.1875 37.015625 41.984375 42.703125 
Q 37.796875 48.390625 30.609375 48.390625 
z
M 30.609375 56 
Q 42.328125 56 49.015625 48.375 
Q 55.71875 40.765625 55.71875 27.296875 
Q 55.71875 13.875 49.015625 6.21875 
Q 42.328125 -1.421875 30.609375 -1.421875 
Q 18.84375 -1.421875 12.171875 6.21875 
Q 5.515625 13.875 5.515625 27.296875 
Q 5.515625 40.765625 12.171875 48.375 
Q 18.84375 56 30.609375 56 
z
" id="DejaVuSans-111"/>
      <path d="M 9.421875 75.984375 
L 18.40625 75.984375 
L 18.40625 0 
L 9.421875 0 
z
" id="DejaVuSans-108"/>
      <path d="M 8.5 21.578125 
L 8.5 54.6875 
L 17.484375 54.6875 
L 17.484375 21.921875 
Q 17.484375 14.15625 20.5 10.265625 
Q 23.53125 6.390625 29.59375 6.390625 
Q 36.859375 6.390625 41.078125 11.03125 
Q 45.3125 15.671875 45.3125 23.6875 
L 45.3125 54.6875 
L 54.296875 54.6875 
L 54.296875 0 
L 45.3125 0 
L 45.3125 8.40625 
Q 42.046875 3.421875 37.71875 1 
Q 33.40625 -1.421875 27.6875 -1.421875 
Q 18.265625 -1.421875 13.375 4.4375 
Q 8.5 10.296875 8.5 21.578125 
z
M 31.109375 56 
z
" id="DejaVuSans-117"/>
      <path d="M 18.3125 70.21875 
L 18.3125 54.6875 
L 36.8125 54.6875 
L 36.8125 47.703125 
L 18.3125 47.703125 
L 18.3125 18.015625 
Q 18.3125 11.328125 20.140625 9.421875 
Q 21.96875 7.515625 27.59375 7.515625 
L 36.8125 7.515625 
L 36.8125 0 
L 27.59375 0 
Q 17.1875 0 13.234375 3.875 
Q 9.28125 7.765625 9.28125 18.015625 
L 9.28125 47.703125 
L 2.6875 47.703125 
L 2.6875 54.6875 
L 9.28125 54.6875 
L 9.28125 70.21875 
z
" id="DejaVuSans-116"/>
      <path d="M 9.421875 54.6875 
L 18.40625 54.6875 
L 18.40625 0 
L 9.421875 0 
z
M 9.421875 75.984375 
L 18.40625 75.984375 
L 18.40625 64.59375 
L 9.421875 64.59375 
z
" id="DejaVuSans-105"/>
      <path d="M 54.890625 33.015625 
L 54.890625 0 
L 45.90625 0 
L 45.90625 32.71875 
Q 45.90625 40.484375 42.875 44.328125 
Q 39.84375 48.1875 33.796875 48.1875 
Q 26.515625 48.1875 22.3125 43.546875 
Q 18.109375 38.921875 18.109375 30.90625 
L 18.109375 0 
L 9.078125 0 
L 9.078125 54.6875 
L 18.109375 54.6875 
L 18.109375 46.1875 
Q 21.34375 51.125 25.703125 53.5625 
Q 30.078125 56 35.796875 56 
Q 45.21875 56 50.046875 50.171875 
Q 54.890625 44.34375 54.890625 33.015625 
z
" id="DejaVuSans-110"/>
      <path id="DejaVuSans-32"/>
      <path d="M 48.6875 27.296875 
Q 48.6875 37.203125 44.609375 42.84375 
Q 40.53125 48.484375 33.40625 48.484375 
Q 26.265625 48.484375 22.1875 42.84375 
Q 18.109375 37.203125 18.109375 27.296875 
Q 18.109375 17.390625 22.1875 11.75 
Q 26.265625 6.109375 33.40625 6.109375 
Q 40.53125 6.109375 44.609375 11.75 
Q 48.6875 17.390625 48.6875 27.296875 
z
M 18.109375 46.390625 
Q 20.953125 51.265625 25.265625 53.625 
Q 29.59375 56 35.59375 56 
Q 45.5625 56 51.78125 48.09375 
Q 58.015625 40.1875 58.015625 27.296875 
Q 58.015625 14.40625 51.78125 6.484375 
Q 45.5625 -1.421875 35.59375 -1.421875 
Q 29.59375 -1.421875 25.265625 0.953125 
Q 20.953125 3.328125 18.109375 8.203125 
L 18.109375 0 
L 9.078125 0 
L 9.078125 75.984375 
L 18.109375 75.984375 
z
" id="DejaVuSans-98"/>
      <path d="M 34.28125 27.484375 
Q 23.390625 27.484375 19.1875 25 
Q 14.984375 22.515625 14.984375 16.5 
Q 14.984375 11.71875 18.140625 8.90625 
Q 21.296875 6.109375 26.703125 6.109375 
Q 34.1875 6.109375 38.703125 11.40625 
Q 43.21875 16.703125 43.21875 25.484375 
L 43.21875 27.484375 
z
M 52.203125 31.203125 
L 52.203125 0 
L 43.21875 0 
L 43.21875 8.296875 
Q 40.140625 3.328125 35.546875 0.953125 
Q 30.953125 -1.421875 24.3125 -1.421875 
Q 15.921875 -1.421875 10.953125 3.296875 
Q 6 8.015625 6 15.921875 
Q 6 25.140625 12.171875 29.828125 
Q 18.359375 34.515625 30.609375 34.515625 
L 43.21875 34.515625 
L 43.21875 35.40625 
Q 43.21875 41.609375 39.140625 45 
Q 35.0625 48.390625 27.6875 48.390625 
Q 23 48.390625 18.546875 47.265625 
Q 14.109375 46.140625 10.015625 43.890625 
L 10.015625 52.203125 
Q 14.9375 54.109375 19.578125 55.046875 
Q 24.21875 56 28.609375 56 
Q 40.484375 56 46.34375 49.84375 
Q 52.203125 43.703125 52.203125 31.203125 
z
" id="DejaVuSans-97"/>
      <path d="M 56.203125 29.59375 
L 56.203125 25.203125 
L 14.890625 25.203125 
Q 15.484375 15.921875 20.484375 11.0625 
Q 25.484375 6.203125 34.421875 6.203125 
Q 39.59375 6.203125 44.453125 7.46875 
Q 49.3125 8.734375 54.109375 11.28125 
L 54.109375 2.78125 
Q 49.265625 0.734375 44.1875 -0.34375 
Q 39.109375 -1.421875 33.890625 -1.421875 
Q 20.796875 -1.421875 13.15625 6.1875 
Q 5.515625 13.8125 5.515625 26.8125 
Q 5.515625 40.234375 12.765625 48.109375 
Q 20.015625 56 32.328125 56 
Q 43.359375 56 49.78125 48.890625 
Q 56.203125 41.796875 56.203125 29.59375 
z
M 47.21875 32.234375 
Q 47.125 39.59375 43.09375 43.984375 
Q 39.0625 48.390625 32.421875 48.390625 
Q 24.90625 48.390625 20.390625 44.140625 
Q 15.875 39.890625 15.1875 32.171875 
z
" id="DejaVuSans-101"/>
      <path d="M 45.40625 46.390625 
L 45.40625 75.984375 
L 54.390625 75.984375 
L 54.390625 0 
L 45.40625 0 
L 45.40625 8.203125 
Q 42.578125 3.328125 38.25 0.953125 
Q 33.9375 -1.421875 27.875 -1.421875 
Q 17.96875 -1.421875 11.734375 6.484375 
Q 5.515625 14.40625 5.515625 27.296875 
Q 5.515625 40.1875 11.734375 48.09375 
Q 17.96875 56 27.875 56 
Q 33.9375 56 38.25 53.625 
Q 42.578125 51.265625 45.40625 46.390625 
z
M 14.796875 27.296875 
Q 14.796875 17.390625 18.875 11.75 
Q 22.953125 6.109375 30.078125 6.109375 
Q 37.203125 6.109375 41.296875 11.75 
Q 45.40625 17.390625 45.40625 27.296875 
Q 45.40625 37.203125 41.296875 42.84375 
Q 37.203125 48.484375 30.078125 48.484375 
Q 22.953125 48.484375 18.875 42.84375 
Q 14.796875 37.203125 14.796875 27.296875 
z
" id="DejaVuSans-100"/>
      <path d="M 32.171875 -5.078125 
Q 28.375 -14.84375 24.75 -17.8125 
Q 21.140625 -20.796875 15.09375 -20.796875 
L 7.90625 -20.796875 
L 7.90625 -13.28125 
L 13.1875 -13.28125 
Q 16.890625 -13.28125 18.9375 -11.515625 
Q 21 -9.765625 23.484375 -3.21875 
L 25.09375 0.875 
L 2.984375 54.6875 
L 12.5 54.6875 
L 29.59375 11.921875 
L 46.6875 54.6875 
L 56.203125 54.6875 
z
" id="DejaVuSans-121"/>
      <path d="M 34.1875 63.1875 
L 20.796875 26.90625 
L 47.609375 26.90625 
z
M 28.609375 72.90625 
L 39.796875 72.90625 
L 67.578125 0 
L 57.328125 0 
L 50.6875 18.703125 
L 17.828125 18.703125 
L 11.1875 0 
L 0.78125 0 
z
" id="DejaVuSans-65"/>
      <path d="M 19.671875 64.796875 
L 19.671875 8.109375 
L 31.59375 8.109375 
Q 46.6875 8.109375 53.6875 14.9375 
Q 60.6875 21.78125 60.6875 36.53125 
Q 60.6875 51.171875 53.6875 57.984375 
Q 46.6875 64.796875 31.59375 64.796875 
z
M 9.8125 72.90625 
L 30.078125 72.90625 
Q 51.265625 72.90625 61.171875 64.09375 
Q 71.09375 55.28125 71.09375 36.53125 
Q 71.09375 17.671875 61.125 8.828125 
Q 51.171875 0 30.078125 0 
L 9.8125 0 
z
" id="DejaVuSans-68"/>
      <path d="M 9.8125 72.90625 
L 24.515625 72.90625 
L 43.109375 23.296875 
L 61.8125 72.90625 
L 76.515625 72.90625 
L 76.515625 0 
L 66.890625 0 
L 66.890625 64.015625 
L 48.09375 14.015625 
L 38.1875 14.015625 
L 19.390625 64.015625 
L 19.390625 0 
L 9.8125 0 
z
" id="DejaVuSans-77"/>
     </defs>
     <use xlink:href="#DejaVuSans-83"/>
     <use x="63.476562" xlink:href="#DejaVuSans-111"/>
     <use x="124.658203" xlink:href="#DejaVuSans-108"/>
     <use x="152.441406" xlink:href="#DejaVuSans-117"/>
     <use x="215.820312" xlink:href="#DejaVuSans-116"/>
     <use x="255.029297" xlink:href="#DejaVuSans-105"/>
     <use x="282.8125" xlink:href="#DejaVuSans-111"/>
     <use x="343.994141" xlink:href="#DejaVuSans-110"/>
     <use x="407.373047" xlink:href="#DejaVuSans-32"/>
     <use x="439.160156" xlink:href="#DejaVuSans-111"/>
     <use x="500.341797" xlink:href="#DejaVuSans-98"/>
     <use x="563.818359" xlink:href="#DejaVuSans-116"/>
     <use x="603.027344" xlink:href="#DejaVuSans-97"/>
     <use x="664.306641" xlink:href="#DejaVuSans-105"/>
     <use x="692.089844" xlink:href="#DejaVuSans-110"/>
     <use x="755.46875" xlink:href="#DejaVuSans-101"/>
     <use x="816.992188" xlink:href="#DejaVuSans-100"/>
     <use x="880.46875" xlink:href="#DejaVuSans-32"/>
     <use x="912.255859" xlink:href="#DejaVuSans-98"/>
     <use x="975.732422" xlink:href="#DejaVuSans-121"/>
     <use x="1034.912109" xlink:href="#DejaVuSans-32"/>
     <use x="1066.699219" xlink:href="#DejaVuSans-65"/>
     <use x="1135.107422" xlink:href="#DejaVuSans-68"/>
     <use x="1212.109375" xlink:href="#DejaVuSans-77"/>
     <use x="1298.388672" xlink:href="#DejaVuSans-77"/>
    </g>
   </g>
  </g>
  <g id="axes_2">
   <g id="patch_7">
    <path d="M 788.727273 640.8 
L 1296 640.8 
L 1296 86.4 
L 788.727273 86.4 
z
" style="fill:#ffffff;"/>
   </g>
   <g id="PathCollection_102">
    <g clip-path="url(#p310d837040)">
     <use style="fill:#1f77b4;stroke:#1f77b4;" x="1005.956503" xlink:href="#m8b4a915c8c" y="326.721951"/>
    </g>
   </g>
   <g id="PathCollection_103">
    <g clip-path="url(#p310d837040)">
     <use style="fill:#ff0000;stroke:#ff0000;" x="933.142236" xlink:href="#m5619ff8235" y="111.6"/>
    </g>
   </g>
   <g id="PathCollection_104">
    <g clip-path="url(#p310d837040)">
     <use style="fill:#ff0000;stroke:#ff0000;" x="918.579382" xlink:href="#m5619ff8235" y="173.063415"/>
    </g>
   </g>
   <g id="PathCollection_105">
    <g clip-path="url(#p310d837040)">
     <use style="fill:#ff0000;stroke:#ff0000;" x="918.579382" xlink:href="#m5619ff8235" y="111.6"/>
    </g>
   </g>
   <g id="PathCollection_106">
    <g clip-path="url(#p310d837040)">
     <use style="fill:#ff0000;stroke:#ff0000;" x="908.870813" xlink:href="#m5619ff8235" y="142.331707"/>
    </g>
   </g>
   <g id="PathCollection_107">
    <g clip-path="url(#p310d837040)">
     <use style="fill:#ff0000;stroke:#ff0000;" x="908.870813" xlink:href="#m5619ff8235" y="111.6"/>
    </g>
   </g>
   <g id="PathCollection_108">
    <g clip-path="url(#p310d837040)">
     <use style="fill:#ff0000;stroke:#ff0000;" x="899.162244" xlink:href="#m5619ff8235" y="173.063415"/>
    </g>
   </g>
   <g id="PathCollection_109">
    <g clip-path="url(#p310d837040)">
     <use style="fill:#ff0000;stroke:#ff0000;" x="884.599391" xlink:href="#m5619ff8235" y="173.063415"/>
    </g>
   </g>
   <g id="PathCollection_110">
    <g clip-path="url(#p310d837040)">
     <use style="fill:#ff0000;stroke:#ff0000;" x="884.599391" xlink:href="#m5619ff8235" y="142.331707"/>
    </g>
   </g>
   <g id="PathCollection_111">
    <g clip-path="url(#p310d837040)">
     <use style="fill:#ff0000;stroke:#ff0000;" x="860.327969" xlink:href="#m5619ff8235" y="418.917073"/>
    </g>
   </g>
   <g id="PathCollection_112">
    <g clip-path="url(#p310d837040)">
     <use style="fill:#ff0000;stroke:#ff0000;" x="860.327969" xlink:href="#m5619ff8235" y="388.185366"/>
    </g>
   </g>
   <g id="PathCollection_113">
    <g clip-path="url(#p310d837040)">
     <use style="fill:#ff0000;stroke:#ff0000;" x="850.6194" xlink:href="#m5619ff8235" y="388.185366"/>
    </g>
   </g>
   <g id="PathCollection_114">
    <g clip-path="url(#p310d837040)">
     <use style="fill:#ff0000;stroke:#ff0000;" x="850.6194" xlink:href="#m5619ff8235" y="357.453659"/>
    </g>
   </g>
   <g id="PathCollection_115">
    <g clip-path="url(#p310d837040)">
     <use style="fill:#ff0000;stroke:#ff0000;" x="836.056546" xlink:href="#m5619ff8235" y="418.917073"/>
    </g>
   </g>
   <g id="PathCollection_116">
    <g clip-path="url(#p310d837040)">
     <use style="fill:#ff0000;stroke:#ff0000;" x="836.056546" xlink:href="#m5619ff8235" y="357.453659"/>
    </g>
   </g>
   <g id="PathCollection_117">
    <g clip-path="url(#p310d837040)">
     <use style="fill:#ff0000;stroke:#ff0000;" x="821.493693" xlink:href="#m5619ff8235" y="388.185366"/>
    </g>
   </g>
   <g id="PathCollection_118">
    <g clip-path="url(#p310d837040)">
     <use style="fill:#ff0000;stroke:#ff0000;" x="811.785124" xlink:href="#m5619ff8235" y="388.185366"/>
    </g>
   </g>
   <g id="PathCollection_119">
    <g clip-path="url(#p310d837040)">
     <use style="fill:#ff0000;stroke:#ff0000;" x="811.785124" xlink:href="#m5619ff8235" y="357.453659"/>
    </g>
   </g>
   <g id="PathCollection_120">
    <g clip-path="url(#p310d837040)">
     <use style="fill:#ff0000;stroke:#ff0000;" x="1025.373641" xlink:href="#m5619ff8235" y="603.307317"/>
    </g>
   </g>
   <g id="PathCollection_121">
    <g clip-path="url(#p310d837040)">
     <use style="fill:#ff0000;stroke:#ff0000;" x="1015.665072" xlink:href="#m5619ff8235" y="572.57561"/>
    </g>
   </g>
   <g id="PathCollection_122">
    <g clip-path="url(#p310d837040)">
     <use style="fill:#ff0000;stroke:#ff0000;" x="1015.665072" xlink:href="#m5619ff8235" y="541.843902"/>
    </g>
   </g>
   <g id="PathCollection_123">
    <g clip-path="url(#p310d837040)">
     <use style="fill:#ff0000;stroke:#ff0000;" x="1005.956503" xlink:href="#m5619ff8235" y="603.307317"/>
    </g>
   </g>
   <g id="PathCollection_124">
    <g clip-path="url(#p310d837040)">
     <use style="fill:#ff0000;stroke:#ff0000;" x="1005.956503" xlink:href="#m5619ff8235" y="541.843902"/>
    </g>
   </g>
   <g id="PathCollection_125">
    <g clip-path="url(#p310d837040)">
     <use style="fill:#ff0000;stroke:#ff0000;" x="996.247934" xlink:href="#m5619ff8235" y="603.307317"/>
    </g>
   </g>
   <g id="PathCollection_126">
    <g clip-path="url(#p310d837040)">
     <use style="fill:#ff0000;stroke:#ff0000;" x="996.247934" xlink:href="#m5619ff8235" y="541.843902"/>
    </g>
   </g>
   <g id="PathCollection_127">
    <g clip-path="url(#p310d837040)">
     <use style="fill:#ff0000;stroke:#ff0000;" x="981.68508" xlink:href="#m5619ff8235" y="603.307317"/>
    </g>
   </g>
   <g id="PathCollection_128">
    <g clip-path="url(#p310d837040)">
     <use style="fill:#ff0000;stroke:#ff0000;" x="1272.942149" xlink:href="#m5619ff8235" y="449.64878"/>
    </g>
   </g>
   <g id="PathCollection_129">
    <g clip-path="url(#p310d837040)">
     <use style="fill:#ff0000;stroke:#ff0000;" x="1272.942149" xlink:href="#m5619ff8235" y="418.917073"/>
    </g>
   </g>
   <g id="PathCollection_130">
    <g clip-path="url(#p310d837040)">
     <use style="fill:#ff0000;stroke:#ff0000;" x="1258.379295" xlink:href="#m5619ff8235" y="449.64878"/>
    </g>
   </g>
   <g id="PathCollection_131">
    <g clip-path="url(#p310d837040)">
     <use style="fill:#ff0000;stroke:#ff0000;" x="1248.670726" xlink:href="#m5619ff8235" y="418.917073"/>
    </g>
   </g>
   <g id="PathCollection_132">
    <g clip-path="url(#p310d837040)">
     <use style="fill:#ff0000;stroke:#ff0000;" x="1238.962157" xlink:href="#m5619ff8235" y="449.64878"/>
    </g>
   </g>
   <g id="PathCollection_133">
    <g clip-path="url(#p310d837040)">
     <use style="fill:#ff0000;stroke:#ff0000;" x="1238.962157" xlink:href="#m5619ff8235" y="418.917073"/>
    </g>
   </g>
   <g id="PathCollection_134">
    <g clip-path="url(#p310d837040)">
     <use style="fill:#ff0000;stroke:#ff0000;" x="1234.107873" xlink:href="#m5619ff8235" y="449.64878"/>
    </g>
   </g>
   <g id="PathCollection_135">
    <g clip-path="url(#p310d837040)">
     <use style="fill:#ff0000;stroke:#ff0000;" x="1224.399304" xlink:href="#m5619ff8235" y="480.380488"/>
    </g>
   </g>
   <g id="PathCollection_136">
    <g clip-path="url(#p310d837040)">
     <use style="fill:#ff0000;stroke:#ff0000;" x="1224.399304" xlink:href="#m5619ff8235" y="418.917073"/>
    </g>
   </g>
   <g id="PathCollection_137">
    <g clip-path="url(#p310d837040)">
     <use style="fill:#ff0000;stroke:#ff0000;" x="1137.022184" xlink:href="#m5619ff8235" y="111.6"/>
    </g>
   </g>
   <g id="PathCollection_138">
    <g clip-path="url(#p310d837040)">
     <use style="fill:#ff0000;stroke:#ff0000;" x="1127.313615" xlink:href="#m5619ff8235" y="111.6"/>
    </g>
   </g>
   <g id="PathCollection_139">
    <g clip-path="url(#p310d837040)">
     <use style="fill:#ff0000;stroke:#ff0000;" x="1127.313615" xlink:href="#m5619ff8235" y="130.039024"/>
    </g>
   </g>
   <g id="PathCollection_140">
    <g clip-path="url(#p310d837040)">
     <use style="fill:#ff0000;stroke:#ff0000;" x="1112.750761" xlink:href="#m5619ff8235" y="142.331707"/>
    </g>
   </g>
   <g id="PathCollection_141">
    <g clip-path="url(#p310d837040)">
     <use style="fill:#ff0000;stroke:#ff0000;" x="1103.042192" xlink:href="#m5619ff8235" y="142.331707"/>
    </g>
   </g>
   <g id="PathCollection_142">
    <g clip-path="url(#p310d837040)">
     <use style="fill:#ff0000;stroke:#ff0000;" x="1103.042192" xlink:href="#m5619ff8235" y="111.6"/>
    </g>
   </g>
   <g id="PathCollection_143">
    <g clip-path="url(#p310d837040)">
     <use style="fill:#ff0000;stroke:#ff0000;" x="1093.333623" xlink:href="#m5619ff8235" y="173.063415"/>
    </g>
   </g>
   <g id="PathCollection_144">
    <g clip-path="url(#p310d837040)">
     <use style="fill:#ff0000;stroke:#ff0000;" x="1078.77077" xlink:href="#m5619ff8235" y="142.331707"/>
    </g>
   </g>
   <g id="PathCollection_145">
    <g clip-path="url(#p310d837040)">
     <use style="fill:#ff0000;stroke:#ff0000;" x="1078.77077" xlink:href="#m5619ff8235" y="111.6"/>
    </g>
   </g>
   <g id="PathCollection_146">
    <g clip-path="url(#p310d837040)">
     <use style="fill:#ff0000;stroke:#ff0000;" x="1078.77077" xlink:href="#m5619ff8235" y="130.039024"/>
    </g>
   </g>
   <g id="PathCollection_147">
    <g clip-path="url(#p310d837040)">
     <use style="fill:#ff0000;stroke:#ff0000;" x="908.870813" xlink:href="#m5619ff8235" y="130.039024"/>
    </g>
   </g>
   <g id="PathCollection_148">
    <g clip-path="url(#p310d837040)">
     <use style="fill:#ff0000;stroke:#ff0000;" x="899.162244" xlink:href="#m5619ff8235" y="142.331707"/>
    </g>
   </g>
   <g id="PathCollection_149">
    <g clip-path="url(#p310d837040)">
     <use style="fill:#ff0000;stroke:#ff0000;" x="821.493693" xlink:href="#m5619ff8235" y="357.453659"/>
    </g>
   </g>
   <g id="PathCollection_150">
    <g clip-path="url(#p310d837040)">
     <use style="fill:#ff0000;stroke:#ff0000;" x="1015.665072" xlink:href="#m5619ff8235" y="603.307317"/>
    </g>
   </g>
   <g id="PathCollection_151">
    <g clip-path="url(#p310d837040)">
     <use style="fill:#ff0000;stroke:#ff0000;" x="1015.665072" xlink:href="#m5619ff8235" y="560.282927"/>
    </g>
   </g>
   <g id="PathCollection_152">
    <g clip-path="url(#p310d837040)">
     <use style="fill:#ff0000;stroke:#ff0000;" x="1161.293606" xlink:href="#m5619ff8235" y="418.917073"/>
    </g>
   </g>
   <g id="PathCollection_153">
    <g clip-path="url(#p310d837040)">
     <use style="fill:#ff0000;stroke:#ff0000;" x="1078.77077" xlink:href="#m5619ff8235" y="511.112195"/>
    </g>
   </g>
   <g id="PathCollection_154">
    <g clip-path="url(#p310d837040)">
     <use style="fill:#ff0000;stroke:#ff0000;" x="933.142236" xlink:href="#m5619ff8235" y="449.64878"/>
    </g>
   </g>
   <g id="PathCollection_155">
    <g clip-path="url(#p310d837040)">
     <use style="fill:#ff0000;stroke:#ff0000;" x="908.870813" xlink:href="#m5619ff8235" y="326.721951"/>
    </g>
   </g>
   <g id="PathCollection_156">
    <g clip-path="url(#p310d837040)">
     <use style="fill:#ff0000;stroke:#ff0000;" x="1078.77077" xlink:href="#m5619ff8235" y="265.258537"/>
    </g>
   </g>
   <g id="PathCollection_157">
    <g clip-path="url(#p310d837040)">
     <use style="fill:#ff0000;stroke:#ff0000;" x="957.413658" xlink:href="#m5619ff8235" y="265.258537"/>
    </g>
   </g>
   <g id="PathCollection_158">
    <g clip-path="url(#p310d837040)">
     <use style="fill:#ff0000;stroke:#ff0000;" x="1054.499348" xlink:href="#m5619ff8235" y="418.917073"/>
    </g>
   </g>
   <g id="PathCollection_159">
    <g clip-path="url(#p310d837040)">
     <use style="fill:#ff0000;stroke:#ff0000;" x="957.413658" xlink:href="#m5619ff8235" y="480.380488"/>
    </g>
   </g>
   <g id="PathCollection_160">
    <g clip-path="url(#p310d837040)">
     <use style="fill:#ff0000;stroke:#ff0000;" x="884.599391" xlink:href="#m5619ff8235" y="572.57561"/>
    </g>
   </g>
   <g id="PathCollection_161">
    <g clip-path="url(#p310d837040)">
     <use style="fill:#ff0000;stroke:#ff0000;" x="860.327969" xlink:href="#m5619ff8235" y="511.112195"/>
    </g>
   </g>
   <g id="PathCollection_162">
    <g clip-path="url(#p310d837040)">
     <use style="fill:#ff0000;stroke:#ff0000;" x="884.599391" xlink:href="#m5619ff8235" y="265.258537"/>
    </g>
   </g>
   <g id="PathCollection_163">
    <g clip-path="url(#p310d837040)">
     <use style="fill:#ff0000;stroke:#ff0000;" x="1030.227925" xlink:href="#m5619ff8235" y="234.526829"/>
    </g>
   </g>
   <g id="PathCollection_164">
    <g clip-path="url(#p310d837040)">
     <use style="fill:#ff0000;stroke:#ff0000;" x="1127.313615" xlink:href="#m5619ff8235" y="418.917073"/>
    </g>
   </g>
   <g id="PathCollection_165">
    <g clip-path="url(#p310d837040)">
     <use style="fill:#ff0000;stroke:#ff0000;" x="1127.313615" xlink:href="#m5619ff8235" y="511.112195"/>
    </g>
   </g>
   <g id="PathCollection_166">
    <g clip-path="url(#p310d837040)">
     <use style="fill:#ff0000;stroke:#ff0000;" x="1030.227925" xlink:href="#m5619ff8235" y="449.64878"/>
    </g>
   </g>
   <g id="PathCollection_167">
    <g clip-path="url(#p310d837040)">
     <use style="fill:#ff0000;stroke:#ff0000;" x="981.68508" xlink:href="#m5619ff8235" y="388.185366"/>
    </g>
   </g>
   <g id="PathCollection_168">
    <g clip-path="url(#p310d837040)">
     <use style="fill:#ff0000;stroke:#ff0000;" x="1010.810787" xlink:href="#m5619ff8235" y="406.62439"/>
    </g>
   </g>
   <g id="PathCollection_169">
    <g clip-path="url(#p310d837040)">
     <use style="fill:#ff0000;stroke:#ff0000;" x="1122.45933" xlink:href="#m5619ff8235" y="375.892683"/>
    </g>
   </g>
   <g id="PathCollection_170">
    <g clip-path="url(#p310d837040)">
     <use style="fill:#ff0000;stroke:#ff0000;" x="1005.956503" xlink:href="#m5619ff8235" y="265.258537"/>
    </g>
   </g>
   <g id="PathCollection_171">
    <g clip-path="url(#p310d837040)">
     <use style="fill:#ff0000;stroke:#ff0000;" x="962.267943" xlink:href="#m5619ff8235" y="314.429268"/>
    </g>
   </g>
   <g id="PathCollection_172">
    <g clip-path="url(#p310d837040)">
     <use style="fill:#ff0000;stroke:#ff0000;" x="981.68508" xlink:href="#m5619ff8235" y="209.941463"/>
    </g>
   </g>
   <g id="PathCollection_173">
    <g clip-path="url(#p310d837040)">
     <use style="fill:#ff0000;stroke:#ff0000;" x="1127.313615" xlink:href="#m5619ff8235" y="295.990244"/>
    </g>
   </g>
   <g id="PathCollection_174">
    <g clip-path="url(#p310d837040)">
     <use style="fill:#ff0000;stroke:#ff0000;" x="1117.605046" xlink:href="#m5619ff8235" y="234.526829"/>
    </g>
   </g>
   <g id="PathCollection_175">
    <g clip-path="url(#p310d837040)">
     <use style="fill:#ff0000;stroke:#ff0000;" x="821.493693" xlink:href="#m5619ff8235" y="265.258537"/>
    </g>
   </g>
   <g id="PathCollection_176">
    <g clip-path="url(#p310d837040)">
     <use style="fill:#ff0000;stroke:#ff0000;" x="908.870813" xlink:href="#m5619ff8235" y="511.112195"/>
    </g>
   </g>
   <g id="PathCollection_177">
    <g clip-path="url(#p310d837040)">
     <use style="fill:#ff0000;stroke:#ff0000;" x="836.056546" xlink:href="#m5619ff8235" y="603.307317"/>
    </g>
   </g>
   <g id="PathCollection_178">
    <g clip-path="url(#p310d837040)">
     <use style="fill:#ff0000;stroke:#ff0000;" x="1103.042192" xlink:href="#m5619ff8235" y="560.282927"/>
    </g>
   </g>
   <g id="PathCollection_179">
    <g clip-path="url(#p310d837040)">
     <use style="fill:#ff0000;stroke:#ff0000;" x="923.433667" xlink:href="#m5619ff8235" y="615.6"/>
    </g>
   </g>
   <g id="PathCollection_180">
    <g clip-path="url(#p310d837040)">
     <use style="fill:#ff0000;stroke:#ff0000;" x="850.6194" xlink:href="#m5619ff8235" y="289.843902"/>
    </g>
   </g>
   <g id="PathCollection_181">
    <g clip-path="url(#p310d837040)">
     <use style="fill:#ff0000;stroke:#ff0000;" x="840.910831" xlink:href="#m5619ff8235" y="216.087805"/>
    </g>
   </g>
   <g id="PathCollection_182">
    <g clip-path="url(#p310d837040)">
     <use style="fill:#ff0000;stroke:#ff0000;" x="1039.936494" xlink:href="#m5619ff8235" y="345.160976"/>
    </g>
   </g>
   <g id="PathCollection_183">
    <g clip-path="url(#p310d837040)">
     <use style="fill:#ff0000;stroke:#ff0000;" x="1049.645063" xlink:href="#m5619ff8235" y="277.55122"/>
    </g>
   </g>
   <g id="PathCollection_184">
    <g clip-path="url(#p310d837040)">
     <use style="fill:#ff0000;stroke:#ff0000;" x="942.850805" xlink:href="#m5619ff8235" y="369.746341"/>
    </g>
   </g>
   <g id="PathCollection_185">
    <g clip-path="url(#p310d837040)">
     <use style="fill:#ff0000;stroke:#ff0000;" x="991.393649" xlink:href="#m5619ff8235" y="443.502439"/>
    </g>
   </g>
   <g id="PathCollection_186">
    <g clip-path="url(#p310d837040)">
     <use style="fill:#ff0000;stroke:#ff0000;" x="1088.479339" xlink:href="#m5619ff8235" y="455.795122"/>
    </g>
   </g>
   <g id="PathCollection_187">
    <g clip-path="url(#p310d837040)">
     <use style="fill:#ff0000;stroke:#ff0000;" x="1117.605046" xlink:href="#m5619ff8235" y="492.673171"/>
    </g>
   </g>
   <g id="PathCollection_188">
    <g clip-path="url(#p310d837040)">
     <use style="fill:#ff0000;stroke:#ff0000;" x="913.725098" xlink:href="#m5619ff8235" y="486.526829"/>
    </g>
   </g>
   <g id="PathCollection_189">
    <g clip-path="url(#p310d837040)">
     <use style="fill:#ff0000;stroke:#ff0000;" x="870.036538" xlink:href="#m5619ff8235" y="486.526829"/>
    </g>
   </g>
   <g id="PathCollection_190">
    <g clip-path="url(#p310d837040)">
     <use style="fill:#ff0000;stroke:#ff0000;" x="928.287951" xlink:href="#m5619ff8235" y="277.55122"/>
    </g>
   </g>
   <g id="PathCollection_191">
    <g clip-path="url(#p310d837040)">
     <use style="fill:#ff0000;stroke:#ff0000;" x="1137.022184" xlink:href="#m5619ff8235" y="603.307317"/>
    </g>
   </g>
   <g id="PathCollection_192">
    <g clip-path="url(#p310d837040)">
     <use style="fill:#ff0000;stroke:#ff0000;" x="991.393649" xlink:href="#m5619ff8235" y="345.160976"/>
    </g>
   </g>
   <g id="PathCollection_193">
    <g clip-path="url(#p310d837040)">
     <use style="fill:#ff0000;stroke:#ff0000;" x="1049.645063" xlink:href="#m5619ff8235" y="375.892683"/>
    </g>
   </g>
   <g id="PathCollection_194">
    <g clip-path="url(#p310d837040)">
     <use style="fill:#ff0000;stroke:#ff0000;" x="1069.062201" xlink:href="#m5619ff8235" y="369.746341"/>
    </g>
   </g>
   <g id="PathCollection_195">
    <g clip-path="url(#p310d837040)">
     <use style="fill:#ff0000;stroke:#ff0000;" x="1107.896477" xlink:href="#m5619ff8235" y="314.429268"/>
    </g>
   </g>
   <g id="PathCollection_196">
    <g clip-path="url(#p310d837040)">
     <use style="fill:#ff0000;stroke:#ff0000;" x="1088.479339" xlink:href="#m5619ff8235" y="339.014634"/>
    </g>
   </g>
   <g id="PathCollection_197">
    <g clip-path="url(#p310d837040)">
     <use style="fill:#ff0000;stroke:#ff0000;" x="1083.625054" xlink:href="#m5619ff8235" y="406.62439"/>
    </g>
   </g>
   <g id="PathCollection_198">
    <g clip-path="url(#p310d837040)">
     <use style="fill:#ff0000;stroke:#ff0000;" x="1078.77077" xlink:href="#m5619ff8235" y="302.136585"/>
    </g>
   </g>
   <g id="PathCollection_199">
    <g clip-path="url(#p310d837040)">
     <use style="fill:#ff0000;stroke:#ff0000;" x="831.202262" xlink:href="#m5619ff8235" y="523.404878"/>
    </g>
   </g>
   <g id="PathCollection_200">
    <g clip-path="url(#p310d837040)">
     <use style="fill:#ff0000;stroke:#ff0000;" x="937.99652" xlink:href="#m5619ff8235" y="314.429268"/>
    </g>
   </g>
   <g id="PathCollection_201">
    <g clip-path="url(#p310d837040)">
     <use style="fill:#ff0000;stroke:#ff0000;" x="937.99652" xlink:href="#m5619ff8235" y="418.917073"/>
    </g>
   </g>
   <g id="PathCollection_202">
    <g clip-path="url(#p310d837040)">
     <use style="fill:#ff0000;stroke:#ff0000;" x="962.267943" xlink:href="#m5619ff8235" y="222.234146"/>
    </g>
   </g>
   <g id="matplotlib.axis_3">
    <g id="xtick_6">
     <g id="line2d_26">
      <g>
       <use style="stroke:#000000;stroke-width:0.8;" x="811.785124" xlink:href="#m2aa5c664b1" y="640.8"/>
      </g>
     </g>
     <g id="text_14">
      <!-- 0 -->
      <g transform="translate(808.603874 655.398438)scale(0.1 -0.1)">
       <use xlink:href="#DejaVuSans-48"/>
      </g>
     </g>
    </g>
    <g id="xtick_7">
     <g id="line2d_27">
      <g>
       <use style="stroke:#000000;stroke-width:0.8;" x="908.870813" xlink:href="#m2aa5c664b1" y="640.8"/>
      </g>
     </g>
     <g id="text_15">
      <!-- 20 -->
      <g transform="translate(902.508313 655.398438)scale(0.1 -0.1)">
       <use xlink:href="#DejaVuSans-50"/>
       <use x="63.623047" xlink:href="#DejaVuSans-48"/>
      </g>
     </g>
    </g>
    <g id="xtick_8">
     <g id="line2d_28">
      <g>
       <use style="stroke:#000000;stroke-width:0.8;" x="1005.956503" xlink:href="#m2aa5c664b1" y="640.8"/>
      </g>
     </g>
     <g id="text_16">
      <!-- 40 -->
      <g transform="translate(999.594003 655.398438)scale(0.1 -0.1)">
       <use xlink:href="#DejaVuSans-52"/>
       <use x="63.623047" xlink:href="#DejaVuSans-48"/>
      </g>
     </g>
    </g>
    <g id="xtick_9">
     <g id="line2d_29">
      <g>
       <use style="stroke:#000000;stroke-width:0.8;" x="1103.042192" xlink:href="#m2aa5c664b1" y="640.8"/>
      </g>
     </g>
     <g id="text_17">
      <!-- 60 -->
      <g transform="translate(1096.679692 655.398438)scale(0.1 -0.1)">
       <use xlink:href="#DejaVuSans-54"/>
       <use x="63.623047" xlink:href="#DejaVuSans-48"/>
      </g>
     </g>
    </g>
    <g id="xtick_10">
     <g id="line2d_30">
      <g>
       <use style="stroke:#000000;stroke-width:0.8;" x="1200.127882" xlink:href="#m2aa5c664b1" y="640.8"/>
      </g>
     </g>
     <g id="text_18">
      <!-- 80 -->
      <g transform="translate(1193.765382 655.398438)scale(0.1 -0.1)">
       <use xlink:href="#DejaVuSans-56"/>
       <use x="63.623047" xlink:href="#DejaVuSans-48"/>
      </g>
     </g>
    </g>
    <g id="text_19">
     <!-- Longitude -->
     <g transform="translate(1021.812074 668.421875)scale(0.1 -0.1)">
      <use xlink:href="#TimesNewRomanPSMT-76"/>
      <use x="61.083984" xlink:href="#TimesNewRomanPSMT-111"/>
      <use x="111.083984" xlink:href="#TimesNewRomanPSMT-110"/>
      <use x="161.083984" xlink:href="#TimesNewRomanPSMT-103"/>
      <use x="211.083984" xlink:href="#TimesNewRomanPSMT-105"/>
      <use x="238.867188" xlink:href="#TimesNewRomanPSMT-116"/>
      <use x="266.650391" xlink:href="#TimesNewRomanPSMT-117"/>
      <use x="316.650391" xlink:href="#TimesNewRomanPSMT-100"/>
      <use x="366.650391" xlink:href="#TimesNewRomanPSMT-101"/>
     </g>
    </g>
   </g>
   <g id="matplotlib.axis_4">
    <g id="ytick_6">
     <g id="line2d_31">
      <g>
       <use style="stroke:#000000;stroke-width:0.8;" x="788.727273" xlink:href="#m1e1d3c4ba4" y="634.039024"/>
      </g>
     </g>
     <g id="text_20">
      <!-- 0 -->
      <g transform="translate(775.364773 637.838243)scale(0.1 -0.1)">
       <use xlink:href="#DejaVuSans-48"/>
      </g>
     </g>
    </g>
    <g id="ytick_7">
     <g id="line2d_32">
      <g>
       <use style="stroke:#000000;stroke-width:0.8;" x="788.727273" xlink:href="#m1e1d3c4ba4" y="511.112195"/>
      </g>
     </g>
     <g id="text_21">
      <!-- 20 -->
      <g transform="translate(769.002273 514.911414)scale(0.1 -0.1)">
       <use xlink:href="#DejaVuSans-50"/>
       <use x="63.623047" xlink:href="#DejaVuSans-48"/>
      </g>
     </g>
    </g>
    <g id="ytick_8">
     <g id="line2d_33">
      <g>
       <use style="stroke:#000000;stroke-width:0.8;" x="788.727273" xlink:href="#m1e1d3c4ba4" y="388.185366"/>
      </g>
     </g>
     <g id="text_22">
      <!-- 40 -->
      <g transform="translate(769.002273 391.984585)scale(0.1 -0.1)">
       <use xlink:href="#DejaVuSans-52"/>
       <use x="63.623047" xlink:href="#DejaVuSans-48"/>
      </g>
     </g>
    </g>
    <g id="ytick_9">
     <g id="line2d_34">
      <g>
       <use style="stroke:#000000;stroke-width:0.8;" x="788.727273" xlink:href="#m1e1d3c4ba4" y="265.258537"/>
      </g>
     </g>
     <g id="text_23">
      <!-- 60 -->
      <g transform="translate(769.002273 269.057755)scale(0.1 -0.1)">
       <use xlink:href="#DejaVuSans-54"/>
       <use x="63.623047" xlink:href="#DejaVuSans-48"/>
      </g>
     </g>
    </g>
    <g id="ytick_10">
     <g id="line2d_35">
      <g>
       <use style="stroke:#000000;stroke-width:0.8;" x="788.727273" xlink:href="#m1e1d3c4ba4" y="142.331707"/>
      </g>
     </g>
     <g id="text_24">
      <!-- 80 -->
      <g transform="translate(769.002273 146.130926)scale(0.1 -0.1)">
       <use xlink:href="#DejaVuSans-56"/>
       <use x="63.623047" xlink:href="#DejaVuSans-48"/>
      </g>
     </g>
    </g>
    <g id="text_25">
     <!-- Latitude -->
     <g transform="translate(762.86321 380.260156)rotate(-90)scale(0.1 -0.1)">
      <use xlink:href="#TimesNewRomanPSMT-76"/>
      <use x="61.083984" xlink:href="#TimesNewRomanPSMT-97"/>
      <use x="105.46875" xlink:href="#TimesNewRomanPSMT-116"/>
      <use x="133.251953" xlink:href="#TimesNewRomanPSMT-105"/>
      <use x="161.035156" xlink:href="#TimesNewRomanPSMT-116"/>
      <use x="188.818359" xlink:href="#TimesNewRomanPSMT-117"/>
      <use x="238.818359" xlink:href="#TimesNewRomanPSMT-100"/>
      <use x="288.818359" xlink:href="#TimesNewRomanPSMT-101"/>
     </g>
    </g>
   </g>
   <g id="line2d_36">
    <path clip-path="url(#p310d837040)" d="M 1005.956503 326.721951 
L 1258.379295 449.64878 
L 1224.399304 480.380488 
L 1117.605046 492.673171 
L 1137.022184 603.307317 
L 1049.645063 375.892683 
L 1005.956503 326.721951 
" style="fill:none;stroke:#1f77b4;stroke-linecap:square;"/>
   </g>
   <g id="line2d_37">
    <path clip-path="url(#p310d837040)" d="M 1005.956503 326.721951 
L 981.68508 388.185366 
L 933.142236 449.64878 
L 937.99652 418.917073 
L 957.413658 480.380488 
L 913.725098 486.526829 
L 908.870813 511.112195 
L 1005.956503 326.721951 
" style="fill:none;stroke:#ff7f0e;stroke-linecap:square;"/>
   </g>
   <g id="line2d_38">
    <path clip-path="url(#p310d837040)" d="M 1005.956503 326.721951 
L 962.267943 314.429268 
L 937.99652 314.429268 
L 928.287951 277.55122 
L 908.870813 326.721951 
L 850.6194 289.843902 
L 957.413658 265.258537 
L 1005.956503 265.258537 
L 1005.956503 326.721951 
" style="fill:none;stroke:#2ca02c;stroke-linecap:square;"/>
   </g>
   <g id="line2d_39">
    <path clip-path="url(#p310d837040)" d="M 1005.956503 326.721951 
L 1272.942149 418.917073 
L 1248.670726 418.917073 
L 1238.962157 418.917073 
L 1238.962157 449.64878 
L 1224.399304 418.917073 
L 1272.942149 449.64878 
L 1234.107873 449.64878 
L 1107.896477 314.429268 
L 1005.956503 326.721951 
" style="fill:none;stroke:#d62728;stroke-linecap:square;"/>
   </g>
   <g id="line2d_40">
    <path clip-path="url(#p310d837040)" d="M 1005.956503 326.721951 
L 1069.062201 369.746341 
L 1083.625054 406.62439 
L 1127.313615 418.917073 
L 1122.45933 375.892683 
L 1127.313615 295.990244 
L 1088.479339 339.014634 
L 1161.293606 418.917073 
L 1039.936494 345.160976 
L 1005.956503 326.721951 
" style="fill:none;stroke:#9467bd;stroke-linecap:square;"/>
   </g>
   <g id="line2d_41">
    <path clip-path="url(#p310d837040)" d="M 1005.956503 326.721951 
L 1030.227925 449.64878 
L 991.393649 345.160976 
L 1088.479339 455.795122 
L 1054.499348 418.917073 
L 1010.810787 406.62439 
L 1005.956503 326.721951 
" style="fill:none;stroke:#8c564b;stroke-linecap:square;"/>
   </g>
   <g id="line2d_42">
    <path clip-path="url(#p310d837040)" d="M 1005.956503 326.721951 
L 1117.605046 234.526829 
L 1127.313615 111.6 
L 1112.750761 142.331707 
L 1093.333623 173.063415 
L 1103.042192 111.6 
L 1078.77077 111.6 
L 1127.313615 130.039024 
L 1137.022184 111.6 
L 1005.956503 326.721951 
" style="fill:none;stroke:#e377c2;stroke-linecap:square;"/>
   </g>
   <g id="line2d_43">
    <path clip-path="url(#p310d837040)" d="M 1005.956503 326.721951 
L 836.056546 357.453659 
L 821.493693 357.453659 
L 850.6194 357.453659 
L 821.493693 265.258537 
L 840.910831 216.087805 
L 899.162244 142.331707 
L 908.870813 142.331707 
L 884.599391 265.258537 
L 1005.956503 326.721951 
" style="fill:none;stroke:#7f7f7f;stroke-linecap:square;"/>
   </g>
   <g id="line2d_44">
    <path clip-path="url(#p310d837040)" d="M 1005.956503 326.721951 
L 1127.313615 511.112195 
L 1103.042192 560.282927 
L 1078.77077 511.112195 
L 1005.956503 541.843902 
L 1015.665072 560.282927 
L 1015.665072 541.843902 
L 996.247934 541.843902 
L 1005.956503 326.721951 
" style="fill:none;stroke:#bcbd22;stroke-linecap:square;"/>
   </g>
   <g id="line2d_45">
    <path clip-path="url(#p310d837040)" d="M 1005.956503 326.721951 
L 860.327969 511.112195 
L 836.056546 603.307317 
L 870.036538 486.526829 
L 831.202262 523.404878 
L 884.599391 572.57561 
L 923.433667 615.6 
L 1005.956503 326.721951 
" style="fill:none;stroke:#17becf;stroke-linecap:square;"/>
   </g>
   <g id="line2d_46">
    <path clip-path="url(#p310d837040)" d="M 1005.956503 326.721951 
L 1103.042192 142.331707 
L 1078.77077 142.331707 
L 1078.77077 130.039024 
L 1030.227925 234.526829 
L 1049.645063 277.55122 
L 1078.77077 265.258537 
L 1078.77077 302.136585 
L 1005.956503 326.721951 
" style="fill:none;stroke:#1f77b4;stroke-linecap:square;"/>
   </g>
   <g id="line2d_47">
    <path clip-path="url(#p310d837040)" d="M 1005.956503 326.721951 
L 991.393649 443.502439 
L 996.247934 603.307317 
L 1005.956503 603.307317 
L 1015.665072 572.57561 
L 1025.373641 603.307317 
L 1015.665072 603.307317 
L 981.68508 603.307317 
L 1005.956503 326.721951 
" style="fill:none;stroke:#ff7f0e;stroke-linecap:square;"/>
   </g>
   <g id="line2d_48">
    <path clip-path="url(#p310d837040)" d="M 1005.956503 326.721951 
L 942.850805 369.746341 
L 850.6194 388.185366 
L 821.493693 388.185366 
L 811.785124 388.185366 
L 860.327969 418.917073 
L 860.327969 388.185366 
L 836.056546 418.917073 
L 811.785124 357.453659 
L 1005.956503 326.721951 
" style="fill:none;stroke:#2ca02c;stroke-linecap:square;"/>
   </g>
   <g id="line2d_49">
    <path clip-path="url(#p310d837040)" d="M 1005.956503 326.721951 
L 908.870813 111.6 
L 908.870813 130.039024 
L 918.579382 173.063415 
L 884.599391 173.063415 
L 899.162244 173.063415 
L 884.599391 142.331707 
L 918.579382 111.6 
L 933.142236 111.6 
L 981.68508 209.941463 
L 962.267943 222.234146 
L 1005.956503 326.721951 
" style="fill:none;stroke:#d62728;stroke-linecap:square;"/>
   </g>
   <g id="patch_8">
    <path d="M 788.727273 640.8 
L 788.727273 86.4 
" style="fill:none;stroke:#000000;stroke-linecap:square;stroke-linejoin:miter;stroke-width:0.8;"/>
   </g>
   <g id="patch_9">
    <path d="M 1296 640.8 
L 1296 86.4 
" style="fill:none;stroke:#000000;stroke-linecap:square;stroke-linejoin:miter;stroke-width:0.8;"/>
   </g>
   <g id="patch_10">
    <path d="M 788.727273 640.8 
L 1296 640.8 
" style="fill:none;stroke:#000000;stroke-linecap:square;stroke-linejoin:miter;stroke-width:0.8;"/>
   </g>
   <g id="patch_11">
    <path d="M 788.727273 86.4 
L 1296 86.4 
" style="fill:none;stroke:#000000;stroke-linecap:square;stroke-linejoin:miter;stroke-width:0.8;"/>
   </g>
   <g id="text_26">
    <!-- Best-known solution -->
    <g transform="translate(981.589261 80.4)scale(0.12 -0.12)">
     <defs>
      <path d="M 19.671875 34.8125 
L 19.671875 8.109375 
L 35.5 8.109375 
Q 43.453125 8.109375 47.28125 11.40625 
Q 51.125 14.703125 51.125 21.484375 
Q 51.125 28.328125 47.28125 31.5625 
Q 43.453125 34.8125 35.5 34.8125 
z
M 19.671875 64.796875 
L 19.671875 42.828125 
L 34.28125 42.828125 
Q 41.5 42.828125 45.03125 45.53125 
Q 48.578125 48.25 48.578125 53.8125 
Q 48.578125 59.328125 45.03125 62.0625 
Q 41.5 64.796875 34.28125 64.796875 
z
M 9.8125 72.90625 
L 35.015625 72.90625 
Q 46.296875 72.90625 52.390625 68.21875 
Q 58.5 63.53125 58.5 54.890625 
Q 58.5 48.1875 55.375 44.234375 
Q 52.25 40.28125 46.1875 39.3125 
Q 53.46875 37.75 57.5 32.78125 
Q 61.53125 27.828125 61.53125 20.40625 
Q 61.53125 10.640625 54.890625 5.3125 
Q 48.25 0 35.984375 0 
L 9.8125 0 
z
" id="DejaVuSans-66"/>
      <path d="M 44.28125 53.078125 
L 44.28125 44.578125 
Q 40.484375 46.53125 36.375 47.5 
Q 32.28125 48.484375 27.875 48.484375 
Q 21.1875 48.484375 17.84375 46.4375 
Q 14.5 44.390625 14.5 40.28125 
Q 14.5 37.15625 16.890625 35.375 
Q 19.28125 33.59375 26.515625 31.984375 
L 29.59375 31.296875 
Q 39.15625 29.25 43.1875 25.515625 
Q 47.21875 21.78125 47.21875 15.09375 
Q 47.21875 7.46875 41.1875 3.015625 
Q 35.15625 -1.421875 24.609375 -1.421875 
Q 20.21875 -1.421875 15.453125 -0.5625 
Q 10.6875 0.296875 5.421875 2 
L 5.421875 11.28125 
Q 10.40625 8.6875 15.234375 7.390625 
Q 20.0625 6.109375 24.8125 6.109375 
Q 31.15625 6.109375 34.5625 8.28125 
Q 37.984375 10.453125 37.984375 14.40625 
Q 37.984375 18.0625 35.515625 20.015625 
Q 33.0625 21.96875 24.703125 23.78125 
L 21.578125 24.515625 
Q 13.234375 26.265625 9.515625 29.90625 
Q 5.8125 33.546875 5.8125 39.890625 
Q 5.8125 47.609375 11.28125 51.796875 
Q 16.75 56 26.8125 56 
Q 31.78125 56 36.171875 55.265625 
Q 40.578125 54.546875 44.28125 53.078125 
z
" id="DejaVuSans-115"/>
      <path d="M 4.890625 31.390625 
L 31.203125 31.390625 
L 31.203125 23.390625 
L 4.890625 23.390625 
z
" id="DejaVuSans-45"/>
      <path d="M 9.078125 75.984375 
L 18.109375 75.984375 
L 18.109375 31.109375 
L 44.921875 54.6875 
L 56.390625 54.6875 
L 27.390625 29.109375 
L 57.625 0 
L 45.90625 0 
L 18.109375 26.703125 
L 18.109375 0 
L 9.078125 0 
z
" id="DejaVuSans-107"/>
      <path d="M 4.203125 54.6875 
L 13.1875 54.6875 
L 24.421875 12.015625 
L 35.59375 54.6875 
L 46.1875 54.6875 
L 57.421875 12.015625 
L 68.609375 54.6875 
L 77.59375 54.6875 
L 63.28125 0 
L 52.6875 0 
L 40.921875 44.828125 
L 29.109375 0 
L 18.5 0 
z
" id="DejaVuSans-119"/>
     </defs>
     <use xlink:href="#DejaVuSans-66"/>
     <use x="68.603516" xlink:href="#DejaVuSans-101"/>
     <use x="130.126953" xlink:href="#DejaVuSans-115"/>
     <use x="182.226562" xlink:href="#DejaVuSans-116"/>
     <use x="221.435547" xlink:href="#DejaVuSans-45"/>
     <use x="257.519531" xlink:href="#DejaVuSans-107"/>
     <use x="315.429688" xlink:href="#DejaVuSans-110"/>
     <use x="378.808594" xlink:href="#DejaVuSans-111"/>
     <use x="439.990234" xlink:href="#DejaVuSans-119"/>
     <use x="521.777344" xlink:href="#DejaVuSans-110"/>
     <use x="585.15625" xlink:href="#DejaVuSans-32"/>
     <use x="616.943359" xlink:href="#DejaVuSans-115"/>
     <use x="669.042969" xlink:href="#DejaVuSans-111"/>
     <use x="730.224609" xlink:href="#DejaVuSans-108"/>
     <use x="758.007812" xlink:href="#DejaVuSans-117"/>
     <use x="821.386719" xlink:href="#DejaVuSans-116"/>
     <use x="860.595703" xlink:href="#DejaVuSans-105"/>
     <use x="888.378906" xlink:href="#DejaVuSans-111"/>
     <use x="949.560547" xlink:href="#DejaVuSans-110"/>
    </g>
   </g>
  </g>
 </g>
 <defs>
  <clipPath id="p392bff4649">
   <rect height="554.4" width="507.272727" x="180" y="86.4"/>
  </clipPath>
  <clipPath id="p310d837040">
   <rect height="554.4" width="507.272727" x="788.727273" y="86.4"/>
  </clipPath>
 </defs>
</svg>
