<?xml version="1.0" encoding="utf-8" standalone="no"?>
<!DOCTYPE svg PUBLIC "-//W3C//DTD SVG 1.1//EN"
  "http://www.w3.org/Graphics/SVG/1.1/DTD/svg11.dtd">
<!-- Created with matplotlib (https://matplotlib.org/) -->
<svg height="288pt" version="1.1" viewBox="0 0 432 288" width="432pt" xmlns="http://www.w3.org/2000/svg" xmlns:xlink="http://www.w3.org/1999/xlink">
 <metadata>
  <rdf:RDF xmlns:cc="http://creativecommons.org/ns#" xmlns:dc="http://purl.org/dc/elements/1.1/" xmlns:rdf="http://www.w3.org/1999/02/22-rdf-syntax-ns#">
   <cc:Work>
    <dc:type rdf:resource="http://purl.org/dc/dcmitype/StillImage"/>
    <dc:date>2022-01-31T16:58:17.403839</dc:date>
    <dc:format>image/svg+xml</dc:format>
    <dc:creator>
     <cc:Agent>
      <dc:title>Matplotlib v3.3.4, https://matplotlib.org/</dc:title>
     </cc:Agent>
    </dc:creator>
   </cc:Work>
  </rdf:RDF>
 </metadata>
 <defs>
  <style type="text/css">*{stroke-linecap:butt;stroke-linejoin:round;}</style>
 </defs>
 <g id="figure_1">
  <g id="patch_1">
   <path d="M 0 288 
L 432 288 
L 432 0 
L 0 0 
z
" style="fill:none;"/>
  </g>
  <g id="axes_1">
   <g id="patch_2">
    <path d="M 54 252 
L 388.8 252 
L 388.8 34.56 
L 54 34.56 
z
" style="fill:#ffffff;"/>
   </g>
   <g id="PathCollection_1">
    <defs>
     <path d="M 0 -3 
L -3 3 
L 3 3 
z
" id="maa2577b431" style="stroke:#1f77b4;"/>
    </defs>
    <g clip-path="url(#pd07063311a)">
     <use style="fill:#1f77b4;stroke:#1f77b4;" x="305.326598" xlink:href="#maa2577b431" y="207.407107"/>
    </g>
   </g>
   <g id="PathCollection_2">
    <defs>
     <path d="M 0 3 
C 0.795609 3 1.55874 2.683901 2.12132 2.12132 
C 2.683901 1.55874 3 0.795609 3 0 
C 3 -0.795609 2.683901 -1.55874 2.12132 -2.12132 
C 1.55874 -2.683901 0.795609 -3 0 -3 
C -0.795609 -3 -1.55874 -2.683901 -2.12132 -2.12132 
C -2.683901 -1.55874 -3 -0.795609 -3 0 
C -3 0.795609 -2.683901 1.55874 -2.12132 2.12132 
C -1.55874 2.683901 -0.795609 3 0 3 
z
" id="mc31070cdc2" style="stroke:#ff0000;"/>
    </defs>
    <g clip-path="url(#pd07063311a)">
     <use style="fill:#ff0000;stroke:#ff0000;" x="137.383716" xlink:href="#mc31070cdc2" y="85.297106"/>
    </g>
   </g>
   <g id="PathCollection_3">
    <g clip-path="url(#pd07063311a)">
     <use style="fill:#ff0000;stroke:#ff0000;" x="219.707429" xlink:href="#mc31070cdc2" y="172.447769"/>
    </g>
   </g>
   <g id="PathCollection_4">
    <g clip-path="url(#pd07063311a)">
     <use style="fill:#ff0000;stroke:#ff0000;" x="108.972578" xlink:href="#mc31070cdc2" y="109.855188"/>
    </g>
   </g>
   <g id="PathCollection_5">
    <g clip-path="url(#pd07063311a)">
     <use style="fill:#ff0000;stroke:#ff0000;" x="272.915763" xlink:href="#mc31070cdc2" y="192.807292"/>
    </g>
   </g>
   <g id="PathCollection_6">
    <g clip-path="url(#pd07063311a)">
     <use style="fill:#ff0000;stroke:#ff0000;" x="80.796865" xlink:href="#mc31070cdc2" y="192.970957"/>
    </g>
   </g>
   <g id="PathCollection_7">
    <g clip-path="url(#pd07063311a)">
     <use style="fill:#ff0000;stroke:#ff0000;" x="162.888719" xlink:href="#mc31070cdc2" y="142.228178"/>
    </g>
   </g>
   <g id="PathCollection_8">
    <g clip-path="url(#pd07063311a)">
     <use style="fill:#ff0000;stroke:#ff0000;" x="238.155254" xlink:href="#mc31070cdc2" y="189.860881"/>
    </g>
   </g>
   <g id="PathCollection_9">
    <g clip-path="url(#pd07063311a)">
     <use style="fill:#ff0000;stroke:#ff0000;" x="273.400884" xlink:href="#mc31070cdc2" y="193.870462"/>
    </g>
   </g>
   <g id="PathCollection_10">
    <g clip-path="url(#pd07063311a)">
     <use style="fill:#ff0000;stroke:#ff0000;" x="207.015823" xlink:href="#mc31070cdc2" y="206.458285"/>
    </g>
   </g>
   <g id="PathCollection_11">
    <g clip-path="url(#pd07063311a)">
     <use style="fill:#ff0000;stroke:#ff0000;" x="196.659113" xlink:href="#mc31070cdc2" y="150.805984"/>
    </g>
   </g>
   <g id="PathCollection_12">
    <g clip-path="url(#pd07063311a)">
     <use style="fill:#ff0000;stroke:#ff0000;" x="204.522446" xlink:href="#mc31070cdc2" y="175.572685"/>
    </g>
   </g>
   <g id="PathCollection_13">
    <g clip-path="url(#pd07063311a)">
     <use style="fill:#ff0000;stroke:#ff0000;" x="107.300645" xlink:href="#mc31070cdc2" y="46.56212"/>
    </g>
   </g>
   <g id="PathCollection_14">
    <g clip-path="url(#pd07063311a)">
     <use style="fill:#ff0000;stroke:#ff0000;" x="95.633295" xlink:href="#mc31070cdc2" y="96.129564"/>
    </g>
   </g>
   <g id="PathCollection_15">
    <g clip-path="url(#pd07063311a)">
     <use style="fill:#ff0000;stroke:#ff0000;" x="359.854235" xlink:href="#mc31070cdc2" y="183.502376"/>
    </g>
   </g>
   <g id="PathCollection_16">
    <g clip-path="url(#pd07063311a)">
     <use style="fill:#ff0000;stroke:#ff0000;" x="129.339992" xlink:href="#mc31070cdc2" y="242.116364"/>
    </g>
   </g>
   <g id="PathCollection_17">
    <g clip-path="url(#pd07063311a)">
     <use style="fill:#ff0000;stroke:#ff0000;" x="170.458024" xlink:href="#mc31070cdc2" y="73.564706"/>
    </g>
   </g>
   <g id="PathCollection_18">
    <g clip-path="url(#pd07063311a)">
     <use style="fill:#ff0000;stroke:#ff0000;" x="222.307817" xlink:href="#mc31070cdc2" y="218.916048"/>
    </g>
   </g>
   <g id="PathCollection_19">
    <g clip-path="url(#pd07063311a)">
     <use style="fill:#ff0000;stroke:#ff0000;" x="183.875273" xlink:href="#mc31070cdc2" y="181.723007"/>
    </g>
   </g>
   <g id="PathCollection_20">
    <g clip-path="url(#pd07063311a)">
     <use style="fill:#ff0000;stroke:#ff0000;" x="114.431201" xlink:href="#mc31070cdc2" y="67.350664"/>
    </g>
   </g>
   <g id="PathCollection_21">
    <g clip-path="url(#pd07063311a)">
     <use style="fill:#ff0000;stroke:#ff0000;" x="221.330442" xlink:href="#mc31070cdc2" y="51.073171"/>
    </g>
   </g>
   <g id="PathCollection_22">
    <g clip-path="url(#pd07063311a)">
     <use style="fill:#ff0000;stroke:#ff0000;" x="87.784739" xlink:href="#mc31070cdc2" y="130.217329"/>
    </g>
   </g>
   <g id="PathCollection_23">
    <g clip-path="url(#pd07063311a)">
     <use style="fill:#ff0000;stroke:#ff0000;" x="80.092115" xlink:href="#mc31070cdc2" y="198.584021"/>
    </g>
   </g>
   <g id="PathCollection_24">
    <g clip-path="url(#pd07063311a)">
     <use style="fill:#ff0000;stroke:#ff0000;" x="342.087719" xlink:href="#mc31070cdc2" y="110.911811"/>
    </g>
   </g>
   <g id="PathCollection_25">
    <g clip-path="url(#pd07063311a)">
     <use style="fill:#ff0000;stroke:#ff0000;" x="165.068703" xlink:href="#mc31070cdc2" y="188.114245"/>
    </g>
   </g>
   <g id="PathCollection_26">
    <g clip-path="url(#pd07063311a)">
     <use style="fill:#ff0000;stroke:#ff0000;" x="241.849711" xlink:href="#mc31070cdc2" y="113.468917"/>
    </g>
   </g>
   <g id="PathCollection_27">
    <g clip-path="url(#pd07063311a)">
     <use style="fill:#ff0000;stroke:#ff0000;" x="155.17826" xlink:href="#mc31070cdc2" y="47.75884"/>
    </g>
   </g>
   <g id="PathCollection_28">
    <g clip-path="url(#pd07063311a)">
     <use style="fill:#ff0000;stroke:#ff0000;" x="194.721689" xlink:href="#mc31070cdc2" y="175.349664"/>
    </g>
   </g>
   <g id="PathCollection_29">
    <g clip-path="url(#pd07063311a)">
     <use style="fill:#ff0000;stroke:#ff0000;" x="176.105702" xlink:href="#mc31070cdc2" y="171.502002"/>
    </g>
   </g>
   <g id="PathCollection_30">
    <g clip-path="url(#pd07063311a)">
     <use style="fill:#ff0000;stroke:#ff0000;" x="230.914119" xlink:href="#mc31070cdc2" y="175.570939"/>
    </g>
   </g>
   <g id="PathCollection_31">
    <g clip-path="url(#pd07063311a)">
     <use style="fill:#ff0000;stroke:#ff0000;" x="254.328313" xlink:href="#mc31070cdc2" y="131.446347"/>
    </g>
   </g>
   <g id="PathCollection_32">
    <g clip-path="url(#pd07063311a)">
     <use style="fill:#ff0000;stroke:#ff0000;" x="268.448783" xlink:href="#mc31070cdc2" y="113.662697"/>
    </g>
   </g>
   <g id="PathCollection_33">
    <g clip-path="url(#pd07063311a)">
     <use style="fill:#ff0000;stroke:#ff0000;" x="177.033138" xlink:href="#mc31070cdc2" y="144.653915"/>
    </g>
   </g>
   <g id="PathCollection_34">
    <g clip-path="url(#pd07063311a)">
     <use style="fill:#ff0000;stroke:#ff0000;" x="238.598589" xlink:href="#mc31070cdc2" y="150.582526"/>
    </g>
   </g>
   <g id="PathCollection_35">
    <g clip-path="url(#pd07063311a)">
     <use style="fill:#ff0000;stroke:#ff0000;" x="118.957293" xlink:href="#mc31070cdc2" y="222.564256"/>
    </g>
   </g>
   <g id="PathCollection_36">
    <g clip-path="url(#pd07063311a)">
     <use style="fill:#ff0000;stroke:#ff0000;" x="240.135993" xlink:href="#mc31070cdc2" y="79.916228"/>
    </g>
   </g>
   <g id="PathCollection_37">
    <g clip-path="url(#pd07063311a)">
     <use style="fill:#ff0000;stroke:#ff0000;" x="283.732624" xlink:href="#mc31070cdc2" y="155.025929"/>
    </g>
   </g>
   <g id="PathCollection_38">
    <g clip-path="url(#pd07063311a)">
     <use style="fill:#ff0000;stroke:#ff0000;" x="339.325794" xlink:href="#mc31070cdc2" y="198.084297"/>
    </g>
   </g>
   <g id="PathCollection_39">
    <g clip-path="url(#pd07063311a)">
     <use style="fill:#ff0000;stroke:#ff0000;" x="193.515512" xlink:href="#mc31070cdc2" y="239.098376"/>
    </g>
   </g>
   <g id="PathCollection_40">
    <g clip-path="url(#pd07063311a)">
     <use style="fill:#ff0000;stroke:#ff0000;" x="125.213411" xlink:href="#mc31070cdc2" y="45.452251"/>
    </g>
   </g>
   <g id="PathCollection_41">
    <g clip-path="url(#pd07063311a)">
     <use style="fill:#ff0000;stroke:#ff0000;" x="218.901783" xlink:href="#mc31070cdc2" y="180.518431"/>
    </g>
   </g>
   <g id="PathCollection_42">
    <g clip-path="url(#pd07063311a)">
     <use style="fill:#ff0000;stroke:#ff0000;" x="242.168709" xlink:href="#mc31070cdc2" y="157.456031"/>
    </g>
   </g>
   <g id="PathCollection_43">
    <g clip-path="url(#pd07063311a)">
     <use style="fill:#ff0000;stroke:#ff0000;" x="271.234658" xlink:href="#mc31070cdc2" y="84.607529"/>
    </g>
   </g>
   <g id="PathCollection_44">
    <g clip-path="url(#pd07063311a)">
     <use style="fill:#ff0000;stroke:#ff0000;" x="287.232931" xlink:href="#mc31070cdc2" y="173.820375"/>
    </g>
   </g>
   <g id="PathCollection_45">
    <g clip-path="url(#pd07063311a)">
     <use style="fill:#ff0000;stroke:#ff0000;" x="357.51679" xlink:href="#mc31070cdc2" y="125.512062"/>
    </g>
   </g>
   <g id="PathCollection_46">
    <g clip-path="url(#pd07063311a)">
     <use style="fill:#ff0000;stroke:#ff0000;" x="228.619479" xlink:href="#mc31070cdc2" y="173.760583"/>
    </g>
   </g>
   <g id="PathCollection_47">
    <g clip-path="url(#pd07063311a)">
     <use style="fill:#ff0000;stroke:#ff0000;" x="180.427962" xlink:href="#mc31070cdc2" y="130.494469"/>
    </g>
   </g>
   <g id="PathCollection_48">
    <g clip-path="url(#pd07063311a)">
     <use style="fill:#ff0000;stroke:#ff0000;" x="329.604531" xlink:href="#mc31070cdc2" y="134.812177"/>
    </g>
   </g>
   <g id="PathCollection_49">
    <g clip-path="url(#pd07063311a)">
     <use style="fill:#ff0000;stroke:#ff0000;" x="77.333757" xlink:href="#mc31070cdc2" y="97.613026"/>
    </g>
   </g>
   <g id="PathCollection_50">
    <g clip-path="url(#pd07063311a)">
     <use style="fill:#ff0000;stroke:#ff0000;" x="182.665529" xlink:href="#mc31070cdc2" y="104.730938"/>
    </g>
   </g>
   <g id="PathCollection_51">
    <g clip-path="url(#pd07063311a)">
     <use style="fill:#ff0000;stroke:#ff0000;" x="123.352933" xlink:href="#mc31070cdc2" y="63.361595"/>
    </g>
   </g>
   <g id="PathCollection_52">
    <g clip-path="url(#pd07063311a)">
     <use style="fill:#ff0000;stroke:#ff0000;" x="103.535866" xlink:href="#mc31070cdc2" y="56.938498"/>
    </g>
   </g>
   <g id="PathCollection_53">
    <g clip-path="url(#pd07063311a)">
     <use style="fill:#ff0000;stroke:#ff0000;" x="160.048828" xlink:href="#mc31070cdc2" y="99.473136"/>
    </g>
   </g>
   <g id="PathCollection_54">
    <g clip-path="url(#pd07063311a)">
     <use style="fill:#ff0000;stroke:#ff0000;" x="293.253112" xlink:href="#mc31070cdc2" y="73.6808"/>
    </g>
   </g>
   <g id="PathCollection_55">
    <g clip-path="url(#pd07063311a)">
     <use style="fill:#ff0000;stroke:#ff0000;" x="231.22853" xlink:href="#mc31070cdc2" y="218.178027"/>
    </g>
   </g>
   <g id="PathCollection_56">
    <g clip-path="url(#pd07063311a)">
     <use style="fill:#ff0000;stroke:#ff0000;" x="115.276595" xlink:href="#mc31070cdc2" y="153.277547"/>
    </g>
   </g>
   <g id="PathCollection_57">
    <g clip-path="url(#pd07063311a)">
     <use style="fill:#ff0000;stroke:#ff0000;" x="218.406471" xlink:href="#mc31070cdc2" y="61.039731"/>
    </g>
   </g>
   <g id="PathCollection_58">
    <g clip-path="url(#pd07063311a)">
     <use style="fill:#ff0000;stroke:#ff0000;" x="282.483133" xlink:href="#mc31070cdc2" y="216.167345"/>
    </g>
   </g>
   <g id="PathCollection_59">
    <g clip-path="url(#pd07063311a)">
     <use style="fill:#ff0000;stroke:#ff0000;" x="273.711728" xlink:href="#mc31070cdc2" y="158.91898"/>
    </g>
   </g>
   <g id="PathCollection_60">
    <g clip-path="url(#pd07063311a)">
     <use style="fill:#ff0000;stroke:#ff0000;" x="329.961747" xlink:href="#mc31070cdc2" y="109.030752"/>
    </g>
   </g>
   <g id="PathCollection_61">
    <g clip-path="url(#pd07063311a)">
     <use style="fill:#ff0000;stroke:#ff0000;" x="161.080728" xlink:href="#mc31070cdc2" y="140.060813"/>
    </g>
   </g>
   <g id="PathCollection_62">
    <g clip-path="url(#pd07063311a)">
     <use style="fill:#ff0000;stroke:#ff0000;" x="196.778355" xlink:href="#mc31070cdc2" y="95.340479"/>
    </g>
   </g>
   <g id="PathCollection_63">
    <g clip-path="url(#pd07063311a)">
     <use style="fill:#ff0000;stroke:#ff0000;" x="108.664281" xlink:href="#mc31070cdc2" y="98.672704"/>
    </g>
   </g>
   <g id="PathCollection_64">
    <g clip-path="url(#pd07063311a)">
     <use style="fill:#ff0000;stroke:#ff0000;" x="303.067119" xlink:href="#mc31070cdc2" y="150.98056"/>
    </g>
   </g>
   <g id="PathCollection_65">
    <g clip-path="url(#pd07063311a)">
     <use style="fill:#ff0000;stroke:#ff0000;" x="245.494229" xlink:href="#mc31070cdc2" y="193.914979"/>
    </g>
   </g>
   <g id="PathCollection_66">
    <g clip-path="url(#pd07063311a)">
     <use style="fill:#ff0000;stroke:#ff0000;" x="174.786909" xlink:href="#mc31070cdc2" y="51.781514"/>
    </g>
   </g>
   <g id="PathCollection_67">
    <g clip-path="url(#pd07063311a)">
     <use style="fill:#ff0000;stroke:#ff0000;" x="369.470525" xlink:href="#mc31070cdc2" y="130.511054"/>
    </g>
   </g>
   <g id="PathCollection_68">
    <g clip-path="url(#pd07063311a)">
     <use style="fill:#ff0000;stroke:#ff0000;" x="80.174158" xlink:href="#mc31070cdc2" y="103.604048"/>
    </g>
   </g>
   <g id="PathCollection_69">
    <g clip-path="url(#pd07063311a)">
     <use style="fill:#ff0000;stroke:#ff0000;" x="82.85455" xlink:href="#mc31070cdc2" y="191.461745"/>
    </g>
   </g>
   <g id="PathCollection_70">
    <g clip-path="url(#pd07063311a)">
     <use style="fill:#ff0000;stroke:#ff0000;" x="94.184558" xlink:href="#mc31070cdc2" y="198.239233"/>
    </g>
   </g>
   <g id="PathCollection_71">
    <g clip-path="url(#pd07063311a)">
     <use style="fill:#ff0000;stroke:#ff0000;" x="69.218182" xlink:href="#mc31070cdc2" y="133.784359"/>
    </g>
   </g>
   <g id="PathCollection_72">
    <g clip-path="url(#pd07063311a)">
     <use style="fill:#ff0000;stroke:#ff0000;" x="367.534119" xlink:href="#mc31070cdc2" y="126.758537"/>
    </g>
   </g>
   <g id="PathCollection_73">
    <g clip-path="url(#pd07063311a)">
     <use style="fill:#ff0000;stroke:#ff0000;" x="176.232588" xlink:href="#mc31070cdc2" y="112.041756"/>
    </g>
   </g>
   <g id="PathCollection_74">
    <g clip-path="url(#pd07063311a)">
     <use style="fill:#ff0000;stroke:#ff0000;" x="295.190536" xlink:href="#mc31070cdc2" y="56.859502"/>
    </g>
   </g>
   <g id="PathCollection_75">
    <g clip-path="url(#pd07063311a)">
     <use style="fill:#ff0000;stroke:#ff0000;" x="278.660771" xlink:href="#mc31070cdc2" y="127.781117"/>
    </g>
   </g>
   <g id="PathCollection_76">
    <g clip-path="url(#pd07063311a)">
     <use style="fill:#ff0000;stroke:#ff0000;" x="155.729116" xlink:href="#mc31070cdc2" y="107.87462"/>
    </g>
   </g>
   <g id="PathCollection_77">
    <g clip-path="url(#pd07063311a)">
     <use style="fill:#ff0000;stroke:#ff0000;" x="158.373328" xlink:href="#mc31070cdc2" y="117.97124"/>
    </g>
   </g>
   <g id="PathCollection_78">
    <g clip-path="url(#pd07063311a)">
     <use style="fill:#ff0000;stroke:#ff0000;" x="136.061865" xlink:href="#mc31070cdc2" y="44.443636"/>
    </g>
   </g>
   <g id="PathCollection_79">
    <g clip-path="url(#pd07063311a)">
     <use style="fill:#ff0000;stroke:#ff0000;" x="373.581818" xlink:href="#mc31070cdc2" y="124.816812"/>
    </g>
   </g>
   <g id="PathCollection_80">
    <g clip-path="url(#pd07063311a)">
     <use style="fill:#ff0000;stroke:#ff0000;" x="179.839907" xlink:href="#mc31070cdc2" y="241.539825"/>
    </g>
   </g>
   <g id="PathCollection_81">
    <g clip-path="url(#pd07063311a)">
     <use style="fill:#ff0000;stroke:#ff0000;" x="165.874859" xlink:href="#mc31070cdc2" y="226.273129"/>
    </g>
   </g>
   <g id="PathCollection_82">
    <g clip-path="url(#pd07063311a)">
     <use style="fill:#ff0000;stroke:#ff0000;" x="239.422071" xlink:href="#mc31070cdc2" y="136.619478"/>
    </g>
   </g>
   <g id="PathCollection_83">
    <g clip-path="url(#pd07063311a)">
     <use style="fill:#ff0000;stroke:#ff0000;" x="189.434284" xlink:href="#mc31070cdc2" y="148.39945"/>
    </g>
   </g>
   <g id="PathCollection_84">
    <g clip-path="url(#pd07063311a)">
     <use style="fill:#ff0000;stroke:#ff0000;" x="216.219352" xlink:href="#mc31070cdc2" y="102.680976"/>
    </g>
   </g>
   <g id="PathCollection_85">
    <g clip-path="url(#pd07063311a)">
     <use style="fill:#ff0000;stroke:#ff0000;" x="189.319119" xlink:href="#mc31070cdc2" y="233.980236"/>
    </g>
   </g>
   <g id="PathCollection_86">
    <g clip-path="url(#pd07063311a)">
     <use style="fill:#ff0000;stroke:#ff0000;" x="229.251868" xlink:href="#mc31070cdc2" y="144.176013"/>
    </g>
   </g>
   <g id="PathCollection_87">
    <g clip-path="url(#pd07063311a)">
     <use style="fill:#ff0000;stroke:#ff0000;" x="269.541832" xlink:href="#mc31070cdc2" y="142.892004"/>
    </g>
   </g>
   <g id="PathCollection_88">
    <g clip-path="url(#pd07063311a)">
     <use style="fill:#ff0000;stroke:#ff0000;" x="106.715646" xlink:href="#mc31070cdc2" y="170.455854"/>
    </g>
   </g>
   <g id="PathCollection_89">
    <g clip-path="url(#pd07063311a)">
     <use style="fill:#ff0000;stroke:#ff0000;" x="371.966958" xlink:href="#mc31070cdc2" y="123.485668"/>
    </g>
   </g>
   <g id="PathCollection_90">
    <g clip-path="url(#pd07063311a)">
     <use style="fill:#ff0000;stroke:#ff0000;" x="154.803208" xlink:href="#mc31070cdc2" y="136.79711"/>
    </g>
   </g>
   <g id="PathCollection_91">
    <g clip-path="url(#pd07063311a)">
     <use style="fill:#ff0000;stroke:#ff0000;" x="180.736768" xlink:href="#mc31070cdc2" y="124.121126"/>
    </g>
   </g>
   <g id="PathCollection_92">
    <g clip-path="url(#pd07063311a)">
     <use style="fill:#ff0000;stroke:#ff0000;" x="338.277077" xlink:href="#mc31070cdc2" y="104.14087"/>
    </g>
   </g>
   <g id="PathCollection_93">
    <g clip-path="url(#pd07063311a)">
     <use style="fill:#ff0000;stroke:#ff0000;" x="261.833921" xlink:href="#mc31070cdc2" y="223.494311"/>
    </g>
   </g>
   <g id="PathCollection_94">
    <g clip-path="url(#pd07063311a)">
     <use style="fill:#ff0000;stroke:#ff0000;" x="239.839417" xlink:href="#mc31070cdc2" y="159.716794"/>
    </g>
   </g>
   <g id="PathCollection_95">
    <g clip-path="url(#pd07063311a)">
     <use style="fill:#ff0000;stroke:#ff0000;" x="244.616732" xlink:href="#mc31070cdc2" y="219.121175"/>
    </g>
   </g>
   <g id="PathCollection_96">
    <g clip-path="url(#pd07063311a)">
     <use style="fill:#ff0000;stroke:#ff0000;" x="202.019388" xlink:href="#mc31070cdc2" y="226.102481"/>
    </g>
   </g>
   <g id="PathCollection_97">
    <g clip-path="url(#pd07063311a)">
     <use style="fill:#ff0000;stroke:#ff0000;" x="150.123733" xlink:href="#mc31070cdc2" y="114.718447"/>
    </g>
   </g>
   <g id="PathCollection_98">
    <g clip-path="url(#pd07063311a)">
     <use style="fill:#ff0000;stroke:#ff0000;" x="214.675324" xlink:href="#mc31070cdc2" y="146.261763"/>
    </g>
   </g>
   <g id="PathCollection_99">
    <g clip-path="url(#pd07063311a)">
     <use style="fill:#ff0000;stroke:#ff0000;" x="195.785693" xlink:href="#mc31070cdc2" y="111.234777"/>
    </g>
   </g>
   <g id="PathCollection_100">
    <g clip-path="url(#pd07063311a)">
     <use style="fill:#ff0000;stroke:#ff0000;" x="301.070074" xlink:href="#mc31070cdc2" y="151.528729"/>
    </g>
   </g>
   <g id="matplotlib.axis_1">
    <g id="xtick_1">
     <g id="line2d_1">
      <defs>
       <path d="M 0 0 
L 0 3.5 
" id="m898a7ce617" style="stroke:#000000;stroke-width:0.8;"/>
      </defs>
      <g>
       <use style="stroke:#000000;stroke-width:0.8;" x="65.001405" xlink:href="#m898a7ce617" y="252"/>
      </g>
     </g>
     <g id="text_1">
      <!-- 116.1 -->
      <g transform="translate(50.687343 266.598437)scale(0.1 -0.1)">
       <defs>
        <path d="M 12.40625 8.296875 
L 28.515625 8.296875 
L 28.515625 63.921875 
L 10.984375 60.40625 
L 10.984375 69.390625 
L 28.421875 72.90625 
L 38.28125 72.90625 
L 38.28125 8.296875 
L 54.390625 8.296875 
L 54.390625 0 
L 12.40625 0 
z
" id="DejaVuSans-49"/>
        <path d="M 33.015625 40.375 
Q 26.375 40.375 22.484375 35.828125 
Q 18.609375 31.296875 18.609375 23.390625 
Q 18.609375 15.53125 22.484375 10.953125 
Q 26.375 6.390625 33.015625 6.390625 
Q 39.65625 6.390625 43.53125 10.953125 
Q 47.40625 15.53125 47.40625 23.390625 
Q 47.40625 31.296875 43.53125 35.828125 
Q 39.65625 40.375 33.015625 40.375 
z
M 52.59375 71.296875 
L 52.59375 62.3125 
Q 48.875 64.0625 45.09375 64.984375 
Q 41.3125 65.921875 37.59375 65.921875 
Q 27.828125 65.921875 22.671875 59.328125 
Q 17.53125 52.734375 16.796875 39.40625 
Q 19.671875 43.65625 24.015625 45.921875 
Q 28.375 48.1875 33.59375 48.1875 
Q 44.578125 48.1875 50.953125 41.515625 
Q 57.328125 34.859375 57.328125 23.390625 
Q 57.328125 12.15625 50.6875 5.359375 
Q 44.046875 -1.421875 33.015625 -1.421875 
Q 20.359375 -1.421875 13.671875 8.265625 
Q 6.984375 17.96875 6.984375 36.375 
Q 6.984375 53.65625 15.1875 63.9375 
Q 23.390625 74.21875 37.203125 74.21875 
Q 40.921875 74.21875 44.703125 73.484375 
Q 48.484375 72.75 52.59375 71.296875 
z
" id="DejaVuSans-54"/>
        <path d="M 10.6875 12.40625 
L 21 12.40625 
L 21 0 
L 10.6875 0 
z
" id="DejaVuSans-46"/>
       </defs>
       <use xlink:href="#DejaVuSans-49"/>
       <use x="63.623047" xlink:href="#DejaVuSans-49"/>
       <use x="127.246094" xlink:href="#DejaVuSans-54"/>
       <use x="190.869141" xlink:href="#DejaVuSans-46"/>
       <use x="222.65625" xlink:href="#DejaVuSans-49"/>
      </g>
     </g>
    </g>
    <g id="xtick_2">
     <g id="line2d_2">
      <g>
       <use style="stroke:#000000;stroke-width:0.8;" x="115.959433" xlink:href="#m898a7ce617" y="252"/>
      </g>
     </g>
     <g id="text_2">
      <!-- 116.2 -->
      <g transform="translate(101.64537 266.598437)scale(0.1 -0.1)">
       <defs>
        <path d="M 19.1875 8.296875 
L 53.609375 8.296875 
L 53.609375 0 
L 7.328125 0 
L 7.328125 8.296875 
Q 12.9375 14.109375 22.625 23.890625 
Q 32.328125 33.6875 34.8125 36.53125 
Q 39.546875 41.84375 41.421875 45.53125 
Q 43.3125 49.21875 43.3125 52.78125 
Q 43.3125 58.59375 39.234375 62.25 
Q 35.15625 65.921875 28.609375 65.921875 
Q 23.96875 65.921875 18.8125 64.3125 
Q 13.671875 62.703125 7.8125 59.421875 
L 7.8125 69.390625 
Q 13.765625 71.78125 18.9375 73 
Q 24.125 74.21875 28.421875 74.21875 
Q 39.75 74.21875 46.484375 68.546875 
Q 53.21875 62.890625 53.21875 53.421875 
Q 53.21875 48.921875 51.53125 44.890625 
Q 49.859375 40.875 45.40625 35.40625 
Q 44.1875 33.984375 37.640625 27.21875 
Q 31.109375 20.453125 19.1875 8.296875 
z
" id="DejaVuSans-50"/>
       </defs>
       <use xlink:href="#DejaVuSans-49"/>
       <use x="63.623047" xlink:href="#DejaVuSans-49"/>
       <use x="127.246094" xlink:href="#DejaVuSans-54"/>
       <use x="190.869141" xlink:href="#DejaVuSans-46"/>
       <use x="222.65625" xlink:href="#DejaVuSans-50"/>
      </g>
     </g>
    </g>
    <g id="xtick_3">
     <g id="line2d_3">
      <g>
       <use style="stroke:#000000;stroke-width:0.8;" x="166.91746" xlink:href="#m898a7ce617" y="252"/>
      </g>
     </g>
     <g id="text_3">
      <!-- 116.3 -->
      <g transform="translate(152.603398 266.598437)scale(0.1 -0.1)">
       <defs>
        <path d="M 40.578125 39.3125 
Q 47.65625 37.796875 51.625 33 
Q 55.609375 28.21875 55.609375 21.1875 
Q 55.609375 10.40625 48.1875 4.484375 
Q 40.765625 -1.421875 27.09375 -1.421875 
Q 22.515625 -1.421875 17.65625 -0.515625 
Q 12.796875 0.390625 7.625 2.203125 
L 7.625 11.71875 
Q 11.71875 9.328125 16.59375 8.109375 
Q 21.484375 6.890625 26.8125 6.890625 
Q 36.078125 6.890625 40.9375 10.546875 
Q 45.796875 14.203125 45.796875 21.1875 
Q 45.796875 27.640625 41.28125 31.265625 
Q 36.765625 34.90625 28.71875 34.90625 
L 20.21875 34.90625 
L 20.21875 43.015625 
L 29.109375 43.015625 
Q 36.375 43.015625 40.234375 45.921875 
Q 44.09375 48.828125 44.09375 54.296875 
Q 44.09375 59.90625 40.109375 62.90625 
Q 36.140625 65.921875 28.71875 65.921875 
Q 24.65625 65.921875 20.015625 65.03125 
Q 15.375 64.15625 9.8125 62.3125 
L 9.8125 71.09375 
Q 15.4375 72.65625 20.34375 73.4375 
Q 25.25 74.21875 29.59375 74.21875 
Q 40.828125 74.21875 47.359375 69.109375 
Q 53.90625 64.015625 53.90625 55.328125 
Q 53.90625 49.265625 50.4375 45.09375 
Q 46.96875 40.921875 40.578125 39.3125 
z
" id="DejaVuSans-51"/>
       </defs>
       <use xlink:href="#DejaVuSans-49"/>
       <use x="63.623047" xlink:href="#DejaVuSans-49"/>
       <use x="127.246094" xlink:href="#DejaVuSans-54"/>
       <use x="190.869141" xlink:href="#DejaVuSans-46"/>
       <use x="222.65625" xlink:href="#DejaVuSans-51"/>
      </g>
     </g>
    </g>
    <g id="xtick_4">
     <g id="line2d_4">
      <g>
       <use style="stroke:#000000;stroke-width:0.8;" x="217.875488" xlink:href="#m898a7ce617" y="252"/>
      </g>
     </g>
     <g id="text_4">
      <!-- 116.4 -->
      <g transform="translate(203.561426 266.598437)scale(0.1 -0.1)">
       <defs>
        <path d="M 37.796875 64.3125 
L 12.890625 25.390625 
L 37.796875 25.390625 
z
M 35.203125 72.90625 
L 47.609375 72.90625 
L 47.609375 25.390625 
L 58.015625 25.390625 
L 58.015625 17.1875 
L 47.609375 17.1875 
L 47.609375 0 
L 37.796875 0 
L 37.796875 17.1875 
L 4.890625 17.1875 
L 4.890625 26.703125 
z
" id="DejaVuSans-52"/>
       </defs>
       <use xlink:href="#DejaVuSans-49"/>
       <use x="63.623047" xlink:href="#DejaVuSans-49"/>
       <use x="127.246094" xlink:href="#DejaVuSans-54"/>
       <use x="190.869141" xlink:href="#DejaVuSans-46"/>
       <use x="222.65625" xlink:href="#DejaVuSans-52"/>
      </g>
     </g>
    </g>
    <g id="xtick_5">
     <g id="line2d_5">
      <g>
       <use style="stroke:#000000;stroke-width:0.8;" x="268.833516" xlink:href="#m898a7ce617" y="252"/>
      </g>
     </g>
     <g id="text_5">
      <!-- 116.5 -->
      <g transform="translate(254.519453 266.598437)scale(0.1 -0.1)">
       <defs>
        <path d="M 10.796875 72.90625 
L 49.515625 72.90625 
L 49.515625 64.59375 
L 19.828125 64.59375 
L 19.828125 46.734375 
Q 21.96875 47.46875 24.109375 47.828125 
Q 26.265625 48.1875 28.421875 48.1875 
Q 40.625 48.1875 47.75 41.5 
Q 54.890625 34.8125 54.890625 23.390625 
Q 54.890625 11.625 47.5625 5.09375 
Q 40.234375 -1.421875 26.90625 -1.421875 
Q 22.3125 -1.421875 17.546875 -0.640625 
Q 12.796875 0.140625 7.71875 1.703125 
L 7.71875 11.625 
Q 12.109375 9.234375 16.796875 8.0625 
Q 21.484375 6.890625 26.703125 6.890625 
Q 35.15625 6.890625 40.078125 11.328125 
Q 45.015625 15.765625 45.015625 23.390625 
Q 45.015625 31 40.078125 35.4375 
Q 35.15625 39.890625 26.703125 39.890625 
Q 22.75 39.890625 18.8125 39.015625 
Q 14.890625 38.140625 10.796875 36.28125 
z
" id="DejaVuSans-53"/>
       </defs>
       <use xlink:href="#DejaVuSans-49"/>
       <use x="63.623047" xlink:href="#DejaVuSans-49"/>
       <use x="127.246094" xlink:href="#DejaVuSans-54"/>
       <use x="190.869141" xlink:href="#DejaVuSans-46"/>
       <use x="222.65625" xlink:href="#DejaVuSans-53"/>
      </g>
     </g>
    </g>
    <g id="xtick_6">
     <g id="line2d_6">
      <g>
       <use style="stroke:#000000;stroke-width:0.8;" x="319.791543" xlink:href="#m898a7ce617" y="252"/>
      </g>
     </g>
     <g id="text_6">
      <!-- 116.6 -->
      <g transform="translate(305.477481 266.598437)scale(0.1 -0.1)">
       <use xlink:href="#DejaVuSans-49"/>
       <use x="63.623047" xlink:href="#DejaVuSans-49"/>
       <use x="127.246094" xlink:href="#DejaVuSans-54"/>
       <use x="190.869141" xlink:href="#DejaVuSans-46"/>
       <use x="222.65625" xlink:href="#DejaVuSans-54"/>
      </g>
     </g>
    </g>
    <g id="xtick_7">
     <g id="line2d_7">
      <g>
       <use style="stroke:#000000;stroke-width:0.8;" x="370.749571" xlink:href="#m898a7ce617" y="252"/>
      </g>
     </g>
     <g id="text_7">
      <!-- 116.7 -->
      <g transform="translate(356.435509 266.598437)scale(0.1 -0.1)">
       <defs>
        <path d="M 8.203125 72.90625 
L 55.078125 72.90625 
L 55.078125 68.703125 
L 28.609375 0 
L 18.3125 0 
L 43.21875 64.59375 
L 8.203125 64.59375 
z
" id="DejaVuSans-55"/>
       </defs>
       <use xlink:href="#DejaVuSans-49"/>
       <use x="63.623047" xlink:href="#DejaVuSans-49"/>
       <use x="127.246094" xlink:href="#DejaVuSans-54"/>
       <use x="190.869141" xlink:href="#DejaVuSans-46"/>
       <use x="222.65625" xlink:href="#DejaVuSans-55"/>
      </g>
     </g>
    </g>
   </g>
   <g id="matplotlib.axis_2">
    <g id="ytick_1">
     <g id="line2d_8">
      <defs>
       <path d="M 0 0 
L -3.5 0 
" id="mb3bce0880c" style="stroke:#000000;stroke-width:0.8;"/>
      </defs>
      <g>
       <use style="stroke:#000000;stroke-width:0.8;" x="54" xlink:href="#mb3bce0880c" y="247.928008"/>
      </g>
     </g>
     <g id="text_8">
      <!-- 39.7 -->
      <g transform="translate(24.734375 251.727227)scale(0.1 -0.1)">
       <defs>
        <path d="M 10.984375 1.515625 
L 10.984375 10.5 
Q 14.703125 8.734375 18.5 7.8125 
Q 22.3125 6.890625 25.984375 6.890625 
Q 35.75 6.890625 40.890625 13.453125 
Q 46.046875 20.015625 46.78125 33.40625 
Q 43.953125 29.203125 39.59375 26.953125 
Q 35.25 24.703125 29.984375 24.703125 
Q 19.046875 24.703125 12.671875 31.3125 
Q 6.296875 37.9375 6.296875 49.421875 
Q 6.296875 60.640625 12.9375 67.421875 
Q 19.578125 74.21875 30.609375 74.21875 
Q 43.265625 74.21875 49.921875 64.515625 
Q 56.59375 54.828125 56.59375 36.375 
Q 56.59375 19.140625 48.40625 8.859375 
Q 40.234375 -1.421875 26.421875 -1.421875 
Q 22.703125 -1.421875 18.890625 -0.6875 
Q 15.09375 0.046875 10.984375 1.515625 
z
M 30.609375 32.421875 
Q 37.25 32.421875 41.125 36.953125 
Q 45.015625 41.5 45.015625 49.421875 
Q 45.015625 57.28125 41.125 61.84375 
Q 37.25 66.40625 30.609375 66.40625 
Q 23.96875 66.40625 20.09375 61.84375 
Q 16.21875 57.28125 16.21875 49.421875 
Q 16.21875 41.5 20.09375 36.953125 
Q 23.96875 32.421875 30.609375 32.421875 
z
" id="DejaVuSans-57"/>
       </defs>
       <use xlink:href="#DejaVuSans-51"/>
       <use x="63.623047" xlink:href="#DejaVuSans-57"/>
       <use x="127.246094" xlink:href="#DejaVuSans-46"/>
       <use x="159.033203" xlink:href="#DejaVuSans-55"/>
      </g>
     </g>
    </g>
    <g id="ytick_2">
     <g id="line2d_9">
      <g>
       <use style="stroke:#000000;stroke-width:0.8;" x="54" xlink:href="#mb3bce0880c" y="204.283937"/>
      </g>
     </g>
     <g id="text_9">
      <!-- 39.8 -->
      <g transform="translate(24.734375 208.083156)scale(0.1 -0.1)">
       <defs>
        <path d="M 31.78125 34.625 
Q 24.75 34.625 20.71875 30.859375 
Q 16.703125 27.09375 16.703125 20.515625 
Q 16.703125 13.921875 20.71875 10.15625 
Q 24.75 6.390625 31.78125 6.390625 
Q 38.8125 6.390625 42.859375 10.171875 
Q 46.921875 13.96875 46.921875 20.515625 
Q 46.921875 27.09375 42.890625 30.859375 
Q 38.875 34.625 31.78125 34.625 
z
M 21.921875 38.8125 
Q 15.578125 40.375 12.03125 44.71875 
Q 8.5 49.078125 8.5 55.328125 
Q 8.5 64.0625 14.71875 69.140625 
Q 20.953125 74.21875 31.78125 74.21875 
Q 42.671875 74.21875 48.875 69.140625 
Q 55.078125 64.0625 55.078125 55.328125 
Q 55.078125 49.078125 51.53125 44.71875 
Q 48 40.375 41.703125 38.8125 
Q 48.828125 37.15625 52.796875 32.3125 
Q 56.78125 27.484375 56.78125 20.515625 
Q 56.78125 9.90625 50.3125 4.234375 
Q 43.84375 -1.421875 31.78125 -1.421875 
Q 19.734375 -1.421875 13.25 4.234375 
Q 6.78125 9.90625 6.78125 20.515625 
Q 6.78125 27.484375 10.78125 32.3125 
Q 14.796875 37.15625 21.921875 38.8125 
z
M 18.3125 54.390625 
Q 18.3125 48.734375 21.84375 45.5625 
Q 25.390625 42.390625 31.78125 42.390625 
Q 38.140625 42.390625 41.71875 45.5625 
Q 45.3125 48.734375 45.3125 54.390625 
Q 45.3125 60.0625 41.71875 63.234375 
Q 38.140625 66.40625 31.78125 66.40625 
Q 25.390625 66.40625 21.84375 63.234375 
Q 18.3125 60.0625 18.3125 54.390625 
z
" id="DejaVuSans-56"/>
       </defs>
       <use xlink:href="#DejaVuSans-51"/>
       <use x="63.623047" xlink:href="#DejaVuSans-57"/>
       <use x="127.246094" xlink:href="#DejaVuSans-46"/>
       <use x="159.033203" xlink:href="#DejaVuSans-56"/>
      </g>
     </g>
    </g>
    <g id="ytick_3">
     <g id="line2d_10">
      <g>
       <use style="stroke:#000000;stroke-width:0.8;" x="54" xlink:href="#mb3bce0880c" y="160.639866"/>
      </g>
     </g>
     <g id="text_10">
      <!-- 39.9 -->
      <g transform="translate(24.734375 164.439085)scale(0.1 -0.1)">
       <use xlink:href="#DejaVuSans-51"/>
       <use x="63.623047" xlink:href="#DejaVuSans-57"/>
       <use x="127.246094" xlink:href="#DejaVuSans-46"/>
       <use x="159.033203" xlink:href="#DejaVuSans-57"/>
      </g>
     </g>
    </g>
    <g id="ytick_4">
     <g id="line2d_11">
      <g>
       <use style="stroke:#000000;stroke-width:0.8;" x="54" xlink:href="#mb3bce0880c" y="116.995795"/>
      </g>
     </g>
     <g id="text_11">
      <!-- 40.0 -->
      <g transform="translate(24.734375 120.795013)scale(0.1 -0.1)">
       <defs>
        <path d="M 31.78125 66.40625 
Q 24.171875 66.40625 20.328125 58.90625 
Q 16.5 51.421875 16.5 36.375 
Q 16.5 21.390625 20.328125 13.890625 
Q 24.171875 6.390625 31.78125 6.390625 
Q 39.453125 6.390625 43.28125 13.890625 
Q 47.125 21.390625 47.125 36.375 
Q 47.125 51.421875 43.28125 58.90625 
Q 39.453125 66.40625 31.78125 66.40625 
z
M 31.78125 74.21875 
Q 44.046875 74.21875 50.515625 64.515625 
Q 56.984375 54.828125 56.984375 36.375 
Q 56.984375 17.96875 50.515625 8.265625 
Q 44.046875 -1.421875 31.78125 -1.421875 
Q 19.53125 -1.421875 13.0625 8.265625 
Q 6.59375 17.96875 6.59375 36.375 
Q 6.59375 54.828125 13.0625 64.515625 
Q 19.53125 74.21875 31.78125 74.21875 
z
" id="DejaVuSans-48"/>
       </defs>
       <use xlink:href="#DejaVuSans-52"/>
       <use x="63.623047" xlink:href="#DejaVuSans-48"/>
       <use x="127.246094" xlink:href="#DejaVuSans-46"/>
       <use x="159.033203" xlink:href="#DejaVuSans-48"/>
      </g>
     </g>
    </g>
    <g id="ytick_5">
     <g id="line2d_12">
      <g>
       <use style="stroke:#000000;stroke-width:0.8;" x="54" xlink:href="#mb3bce0880c" y="73.351723"/>
      </g>
     </g>
     <g id="text_12">
      <!-- 40.1 -->
      <g transform="translate(24.734375 77.150942)scale(0.1 -0.1)">
       <use xlink:href="#DejaVuSans-52"/>
       <use x="63.623047" xlink:href="#DejaVuSans-48"/>
       <use x="127.246094" xlink:href="#DejaVuSans-46"/>
       <use x="159.033203" xlink:href="#DejaVuSans-49"/>
      </g>
     </g>
    </g>
   </g>
   <g id="line2d_13">
    <path clip-path="url(#pd07063311a)" d="M 305.326598 207.407107 
L 238.155254 189.860881 
L 238.155254 189.860881 
L 238.155254 189.860881 
L 183.875273 181.723007 
L 183.875273 181.723007 
L 177.033138 144.653915 
L 177.033138 144.653915 
L 177.033138 144.653915 
L 161.080728 140.060813 
L 161.080728 140.060813 
L 162.888719 142.228178 
L 162.888719 142.228178 
L 189.434284 148.39945 
L 189.434284 148.39945 
L 154.803208 136.79711 
L 154.803208 136.79711 
L 305.326598 207.407107 
L 305.326598 207.407107 
" style="fill:none;stroke:#1f77b4;stroke-linecap:square;stroke-width:1.5;"/>
   </g>
   <g id="line2d_14">
    <path clip-path="url(#pd07063311a)" d="M 305.326598 207.407107 
L 221.330442 51.073171 
L 221.330442 51.073171 
L 170.458024 73.564706 
L 170.458024 73.564706 
L 155.17826 47.75884 
L 155.17826 47.75884 
L 125.213411 45.452251 
L 125.213411 45.452251 
L 218.406471 61.039731 
L 218.406471 61.039731 
L 216.219352 102.680976 
L 216.219352 102.680976 
L 180.736768 124.121126 
L 180.736768 124.121126 
L 180.427962 130.494469 
L 180.427962 130.494469 
L 305.326598 207.407107 
L 305.326598 207.407107 
" style="fill:none;stroke:#ff7f0e;stroke-linecap:square;stroke-width:1.5;"/>
   </g>
   <g id="line2d_15">
    <path clip-path="url(#pd07063311a)" d="M 305.326598 207.407107 
L 271.234658 84.607529 
L 271.234658 84.607529 
L 271.234658 84.607529 
L 240.135993 79.916228 
L 240.135993 79.916228 
L 195.785693 111.234777 
L 195.785693 111.234777 
L 176.232588 112.041756 
L 176.232588 112.041756 
L 182.665529 104.730938 
L 182.665529 104.730938 
L 182.665529 104.730938 
L 155.729116 107.87462 
L 155.729116 107.87462 
L 150.123733 114.718447 
L 150.123733 114.718447 
L 158.373328 117.97124 
L 158.373328 117.97124 
L 305.326598 207.407107 
L 305.326598 207.407107 
" style="fill:none;stroke:#2ca02c;stroke-linecap:square;stroke-width:1.5;"/>
   </g>
   <g id="line2d_16">
    <path clip-path="url(#pd07063311a)" d="M 305.326598 207.407107 
L 196.778355 95.340479 
L 196.778355 95.340479 
L 196.778355 95.340479 
L 160.048828 99.473136 
L 160.048828 99.473136 
L 137.383716 85.297106 
L 137.383716 85.297106 
L 123.352933 63.361595 
L 123.352933 63.361595 
L 103.535866 56.938498 
L 103.535866 56.938498 
L 114.431201 67.350664 
L 114.431201 67.350664 
L 174.786909 51.781514 
L 174.786909 51.781514 
L 136.061865 44.443636 
L 136.061865 44.443636 
L 107.300645 46.56212 
L 107.300645 46.56212 
L 305.326598 207.407107 
L 305.326598 207.407107 
" style="fill:none;stroke:#d62728;stroke-linecap:square;stroke-width:1.5;"/>
   </g>
   <g id="line2d_17">
    <path clip-path="url(#pd07063311a)" d="M 305.326598 207.407107 
L 207.015823 206.458285 
L 207.015823 206.458285 
L 207.015823 206.458285 
L 80.092115 198.584021 
L 80.092115 198.584021 
L 129.339992 242.116364 
L 129.339992 242.116364 
L 118.957293 222.564256 
L 118.957293 222.564256 
L 80.796865 192.970957 
L 80.796865 192.970957 
L 94.184558 198.239233 
L 94.184558 198.239233 
L 82.85455 191.461745 
L 82.85455 191.461745 
L 106.715646 170.455854 
L 106.715646 170.455854 
L 115.276595 153.277547 
L 115.276595 153.277547 
L 305.326598 207.407107 
L 305.326598 207.407107 
" style="fill:none;stroke:#9467bd;stroke-linecap:square;stroke-width:1.5;"/>
   </g>
   <g id="line2d_18">
    <path clip-path="url(#pd07063311a)" d="M 305.326598 207.407107 
L 241.849711 113.468917 
L 241.849711 113.468917 
L 241.849711 113.468917 
L 268.448783 113.662697 
L 268.448783 113.662697 
L 329.961747 109.030752 
L 329.961747 109.030752 
L 295.190536 56.859502 
L 295.190536 56.859502 
L 293.253112 73.6808 
L 293.253112 73.6808 
L 293.253112 73.6808 
L 369.470525 130.511054 
L 369.470525 130.511054 
L 357.51679 125.512062 
L 357.51679 125.512062 
L 305.326598 207.407107 
L 305.326598 207.407107 
" style="fill:none;stroke:#8c564b;stroke-linecap:square;stroke-width:1.5;"/>
   </g>
   <g id="line2d_19">
    <path clip-path="url(#pd07063311a)" d="M 305.326598 207.407107 
L 282.483133 216.167345 
L 282.483133 216.167345 
L 282.483133 216.167345 
L 231.22853 218.178027 
L 231.22853 218.178027 
L 222.307817 218.916048 
L 222.307817 218.916048 
L 189.319119 233.980236 
L 189.319119 233.980236 
L 179.839907 241.539825 
L 179.839907 241.539825 
L 193.515512 239.098376 
L 193.515512 239.098376 
L 202.019388 226.102481 
L 202.019388 226.102481 
L 165.874859 226.273129 
L 165.874859 226.273129 
L 165.068703 188.114245 
L 165.068703 188.114245 
L 305.326598 207.407107 
L 305.326598 207.407107 
" style="fill:none;stroke:#e377c2;stroke-linecap:square;stroke-width:1.5;"/>
   </g>
   <g id="line2d_20">
    <path clip-path="url(#pd07063311a)" d="M 305.326598 207.407107 
L 228.619479 173.760583 
L 228.619479 173.760583 
L 228.619479 173.760583 
L 254.328313 131.446347 
L 254.328313 131.446347 
L 254.328313 131.446347 
L 239.422071 136.619478 
L 239.422071 136.619478 
L 229.251868 144.176013 
L 229.251868 144.176013 
L 229.251868 144.176013 
L 214.675324 146.261763 
L 214.675324 146.261763 
L 196.659113 150.805984 
L 196.659113 150.805984 
L 196.659113 150.805984 
L 238.598589 150.582526 
L 238.598589 150.582526 
L 269.541832 142.892004 
L 269.541832 142.892004 
L 287.232931 173.820375 
L 287.232931 173.820375 
L 305.326598 207.407107 
L 305.326598 207.407107 
" style="fill:none;stroke:#7f7f7f;stroke-linecap:square;stroke-width:1.5;"/>
   </g>
   <g id="line2d_21">
    <path clip-path="url(#pd07063311a)" d="M 305.326598 207.407107 
L 359.854235 183.502376 
L 359.854235 183.502376 
L 359.854235 183.502376 
L 373.581818 124.816812 
L 373.581818 124.816812 
L 373.581818 124.816812 
L 371.966958 123.485668 
L 371.966958 123.485668 
L 367.534119 126.758537 
L 367.534119 126.758537 
L 342.087719 110.911811 
L 342.087719 110.911811 
L 342.087719 110.911811 
L 338.277077 104.14087 
L 338.277077 104.14087 
L 329.604531 134.812177 
L 329.604531 134.812177 
L 278.660771 127.781117 
L 278.660771 127.781117 
L 305.326598 207.407107 
L 305.326598 207.407107 
" style="fill:none;stroke:#bcbd22;stroke-linecap:square;stroke-width:1.5;"/>
   </g>
   <g id="line2d_22">
    <path clip-path="url(#pd07063311a)" d="M 305.326598 207.407107 
L 69.218182 133.784359 
L 69.218182 133.784359 
L 69.218182 133.784359 
L 80.174158 103.604048 
L 80.174158 103.604048 
L 87.784739 130.217329 
L 87.784739 130.217329 
L 108.664281 98.672704 
L 108.664281 98.672704 
L 77.333757 97.613026 
L 77.333757 97.613026 
L 95.633295 96.129564 
L 95.633295 96.129564 
L 95.633295 96.129564 
L 108.972578 109.855188 
L 108.972578 109.855188 
L 305.326598 207.407107 
L 305.326598 207.407107 
" style="fill:none;stroke:#17becf;stroke-linecap:square;stroke-width:1.5;"/>
   </g>
   <g id="line2d_23">
    <path clip-path="url(#pd07063311a)" d="M 305.326598 207.407107 
L 339.325794 198.084297 
L 339.325794 198.084297 
L 339.325794 198.084297 
L 245.494229 193.914979 
L 245.494229 193.914979 
L 218.901783 180.518431 
L 218.901783 180.518431 
L 219.707429 172.447769 
L 219.707429 172.447769 
L 219.707429 172.447769 
L 204.522446 175.572685 
L 204.522446 175.572685 
L 194.721689 175.349664 
L 194.721689 175.349664 
L 176.105702 171.502002 
L 176.105702 171.502002 
L 305.326598 207.407107 
L 305.326598 207.407107 
" style="fill:none;stroke:#1f77b4;stroke-linecap:square;stroke-width:1.5;"/>
   </g>
   <g id="line2d_24">
    <path clip-path="url(#pd07063311a)" d="M 305.326598 207.407107 
L 272.915763 192.807292 
L 272.915763 192.807292 
L 272.915763 192.807292 
L 273.711728 158.91898 
L 273.711728 158.91898 
L 283.732624 155.025929 
L 283.732624 155.025929 
L 303.067119 150.98056 
L 303.067119 150.98056 
L 301.070074 151.528729 
L 301.070074 151.528729 
L 239.839417 159.716794 
L 239.839417 159.716794 
L 242.168709 157.456031 
L 242.168709 157.456031 
L 230.914119 175.570939 
L 230.914119 175.570939 
L 273.400884 193.870462 
L 273.400884 193.870462 
L 305.326598 207.407107 
L 305.326598 207.407107 
" style="fill:none;stroke:#ff7f0e;stroke-linecap:square;stroke-width:1.5;"/>
   </g>
   <g id="line2d_25">
    <path clip-path="url(#pd07063311a)" d="M 305.326598 207.407107 
L 261.833921 223.494311 
L 261.833921 223.494311 
L 261.833921 223.494311 
L 244.616732 219.121175 
L 244.616732 219.121175 
L 244.616732 219.121175 
L 305.326598 207.407107 
L 305.326598 207.407107 
" style="fill:none;stroke:#2ca02c;stroke-linecap:square;stroke-width:1.5;"/>
   </g>
   <g id="patch_3">
    <path d="M 54 252 
L 54 34.56 
" style="fill:none;stroke:#000000;stroke-linecap:square;stroke-linejoin:miter;stroke-width:0.8;"/>
   </g>
   <g id="patch_4">
    <path d="M 388.8 252 
L 388.8 34.56 
" style="fill:none;stroke:#000000;stroke-linecap:square;stroke-linejoin:miter;stroke-width:0.8;"/>
   </g>
   <g id="patch_5">
    <path d="M 54 252 
L 388.8 252 
" style="fill:none;stroke:#000000;stroke-linecap:square;stroke-linejoin:miter;stroke-width:0.8;"/>
   </g>
   <g id="patch_6">
    <path d="M 54 34.56 
L 388.8 34.56 
" style="fill:none;stroke:#000000;stroke-linecap:square;stroke-linejoin:miter;stroke-width:0.8;"/>
   </g>
  </g>
 </g>
 <defs>
  <clipPath id="pd07063311a">
   <rect height="217.44" width="334.8" x="54" y="34.56"/>
  </clipPath>
 </defs>
</svg>
