<?xml version="1.0" encoding="utf-8" standalone="no"?>
<!DOCTYPE svg PUBLIC "-//W3C//DTD SVG 1.1//EN"
  "http://www.w3.org/Graphics/SVG/1.1/DTD/svg11.dtd">
<!-- Created with matplotlib (https://matplotlib.org/) -->
<svg height="345.6pt" version="1.1" viewBox="0 0 460.8 345.6" width="460.8pt" xmlns="http://www.w3.org/2000/svg" xmlns:xlink="http://www.w3.org/1999/xlink">
 <metadata>
  <rdf:RDF xmlns:cc="http://creativecommons.org/ns#" xmlns:dc="http://purl.org/dc/elements/1.1/" xmlns:rdf="http://www.w3.org/1999/02/22-rdf-syntax-ns#">
   <cc:Work>
    <dc:type rdf:resource="http://purl.org/dc/dcmitype/StillImage"/>
    <dc:date>2022-01-29T22:42:33.034021</dc:date>
    <dc:format>image/svg+xml</dc:format>
    <dc:creator>
     <cc:Agent>
      <dc:title>Matplotlib v3.3.4, https://matplotlib.org/</dc:title>
     </cc:Agent>
    </dc:creator>
   </cc:Work>
  </rdf:RDF>
 </metadata>
 <defs>
  <style type="text/css">*{stroke-linecap:butt;stroke-linejoin:round;}</style>
 </defs>
 <g id="figure_1">
  <g id="patch_1">
   <path d="M 0 345.6 
L 460.8 345.6 
L 460.8 0 
L 0 0 
z
" style="fill:#ffffff;"/>
  </g>
  <g id="axes_1">
   <g id="patch_2">
    <path d="M 57.6 307.584 
L 414.72 307.584 
L 414.72 41.472 
L 57.6 41.472 
z
" style="fill:#ffffff;"/>
   </g>
   <g id="PathCollection_1">
    <defs>
     <path d="M 0 -3 
L -3 3 
L 3 3 
z
" id="md73f2f930f" style="stroke:#1f77b4;"/>
    </defs>
    <g clip-path="url(#pceb75eb68b)">
     <use style="fill:#1f77b4;stroke:#1f77b4;" x="210.529378" xlink:href="#md73f2f930f" y="159.408"/>
    </g>
   </g>
   <g id="PathCollection_2">
    <defs>
     <path d="M 0 3 
C 0.795609 3 1.55874 2.683901 2.12132 2.12132 
C 2.683901 1.55874 3 0.795609 3 0 
C 3 -0.795609 2.683901 -1.55874 2.12132 -2.12132 
C 1.55874 -2.683901 0.795609 -3 0 -3 
C -0.795609 -3 -1.55874 -2.683901 -2.12132 -2.12132 
C -2.683901 -1.55874 -3 -0.795609 -3 0 
C -3 0.795609 -2.683901 1.55874 -2.12132 2.12132 
C -1.55874 2.683901 -0.795609 3 0 3 
z
" id="m052bf9ec98" style="stroke:#ff7f0e;"/>
    </defs>
    <g clip-path="url(#pceb75eb68b)">
     <use style="fill:#ff7f0e;stroke:#ff7f0e;" x="227.616459" xlink:href="#m052bf9ec98" y="104.976"/>
     <use style="fill:#ff7f0e;stroke:#ff7f0e;" x="227.616459" xlink:href="#m052bf9ec98" y="98.928"/>
     <use style="fill:#ff7f0e;stroke:#ff7f0e;" x="217.364211" xlink:href="#m052bf9ec98" y="111.024"/>
     <use style="fill:#ff7f0e;stroke:#ff7f0e;" x="217.364211" xlink:href="#m052bf9ec98" y="104.976"/>
     <use style="fill:#ff7f0e;stroke:#ff7f0e;" x="217.364211" xlink:href="#m052bf9ec98" y="114.048"/>
     <use style="fill:#ff7f0e;stroke:#ff7f0e;" x="210.529378" xlink:href="#m052bf9ec98" y="101.952"/>
     <use style="fill:#ff7f0e;stroke:#ff7f0e;" x="210.529378" xlink:href="#m052bf9ec98" y="111.024"/>
     <use style="fill:#ff7f0e;stroke:#ff7f0e;" x="203.694545" xlink:href="#m052bf9ec98" y="104.976"/>
     <use style="fill:#ff7f0e;stroke:#ff7f0e;" x="203.694545" xlink:href="#m052bf9ec98" y="98.928"/>
     <use style="fill:#ff7f0e;stroke:#ff7f0e;" x="193.442297" xlink:href="#m052bf9ec98" y="111.024"/>
     <use style="fill:#ff7f0e;stroke:#ff7f0e;" x="193.442297" xlink:href="#m052bf9ec98" y="101.952"/>
     <use style="fill:#ff7f0e;stroke:#ff7f0e;" x="159.268134" xlink:href="#m052bf9ec98" y="53.568"/>
     <use style="fill:#ff7f0e;stroke:#ff7f0e;" x="149.015885" xlink:href="#m052bf9ec98" y="83.808"/>
     <use style="fill:#ff7f0e;stroke:#ff7f0e;" x="149.015885" xlink:href="#m052bf9ec98" y="53.568"/>
     <use style="fill:#ff7f0e;stroke:#ff7f0e;" x="142.181053" xlink:href="#m052bf9ec98" y="68.688"/>
     <use style="fill:#ff7f0e;stroke:#ff7f0e;" x="142.181053" xlink:href="#m052bf9ec98" y="53.568"/>
     <use style="fill:#ff7f0e;stroke:#ff7f0e;" x="135.34622" xlink:href="#m052bf9ec98" y="83.808"/>
     <use style="fill:#ff7f0e;stroke:#ff7f0e;" x="125.093971" xlink:href="#m052bf9ec98" y="83.808"/>
     <use style="fill:#ff7f0e;stroke:#ff7f0e;" x="125.093971" xlink:href="#m052bf9ec98" y="68.688"/>
     <use style="fill:#ff7f0e;stroke:#ff7f0e;" x="176.355215" xlink:href="#m052bf9ec98" y="159.408"/>
     <use style="fill:#ff7f0e;stroke:#ff7f0e;" x="176.355215" xlink:href="#m052bf9ec98" y="153.36"/>
     <use style="fill:#ff7f0e;stroke:#ff7f0e;" x="169.520383" xlink:href="#m052bf9ec98" y="153.36"/>
     <use style="fill:#ff7f0e;stroke:#ff7f0e;" x="169.520383" xlink:href="#m052bf9ec98" y="144.288"/>
     <use style="fill:#ff7f0e;stroke:#ff7f0e;" x="159.268134" xlink:href="#m052bf9ec98" y="159.408"/>
     <use style="fill:#ff7f0e;stroke:#ff7f0e;" x="159.268134" xlink:href="#m052bf9ec98" y="153.36"/>
     <use style="fill:#ff7f0e;stroke:#ff7f0e;" x="159.268134" xlink:href="#m052bf9ec98" y="144.288"/>
     <use style="fill:#ff7f0e;stroke:#ff7f0e;" x="152.433301" xlink:href="#m052bf9ec98" y="153.36"/>
     <use style="fill:#ff7f0e;stroke:#ff7f0e;" x="152.433301" xlink:href="#m052bf9ec98" y="144.288"/>
     <use style="fill:#ff7f0e;stroke:#ff7f0e;" x="142.181053" xlink:href="#m052bf9ec98" y="159.408"/>
     <use style="fill:#ff7f0e;stroke:#ff7f0e;" x="142.181053" xlink:href="#m052bf9ec98" y="144.288"/>
     <use style="fill:#ff7f0e;stroke:#ff7f0e;" x="108.00689" xlink:href="#m052bf9ec98" y="204.768"/>
     <use style="fill:#ff7f0e;stroke:#ff7f0e;" x="108.00689" xlink:href="#m052bf9ec98" y="189.648"/>
     <use style="fill:#ff7f0e;stroke:#ff7f0e;" x="101.172057" xlink:href="#m052bf9ec98" y="189.648"/>
     <use style="fill:#ff7f0e;stroke:#ff7f0e;" x="101.172057" xlink:href="#m052bf9ec98" y="174.528"/>
     <use style="fill:#ff7f0e;stroke:#ff7f0e;" x="90.919809" xlink:href="#m052bf9ec98" y="204.768"/>
     <use style="fill:#ff7f0e;stroke:#ff7f0e;" x="90.919809" xlink:href="#m052bf9ec98" y="174.528"/>
     <use style="fill:#ff7f0e;stroke:#ff7f0e;" x="80.66756" xlink:href="#m052bf9ec98" y="189.648"/>
     <use style="fill:#ff7f0e;stroke:#ff7f0e;" x="73.832727" xlink:href="#m052bf9ec98" y="189.648"/>
     <use style="fill:#ff7f0e;stroke:#ff7f0e;" x="73.832727" xlink:href="#m052bf9ec98" y="174.528"/>
     <use style="fill:#ff7f0e;stroke:#ff7f0e;" x="193.442297" xlink:href="#m052bf9ec98" y="219.888"/>
     <use style="fill:#ff7f0e;stroke:#ff7f0e;" x="193.442297" xlink:href="#m052bf9ec98" y="213.84"/>
     <use style="fill:#ff7f0e;stroke:#ff7f0e;" x="186.607464" xlink:href="#m052bf9ec98" y="213.84"/>
     <use style="fill:#ff7f0e;stroke:#ff7f0e;" x="186.607464" xlink:href="#m052bf9ec98" y="204.768"/>
     <use style="fill:#ff7f0e;stroke:#ff7f0e;" x="183.190048" xlink:href="#m052bf9ec98" y="219.888"/>
     <use style="fill:#ff7f0e;stroke:#ff7f0e;" x="176.355215" xlink:href="#m052bf9ec98" y="219.888"/>
     <use style="fill:#ff7f0e;stroke:#ff7f0e;" x="176.355215" xlink:href="#m052bf9ec98" y="213.84"/>
     <use style="fill:#ff7f0e;stroke:#ff7f0e;" x="176.355215" xlink:href="#m052bf9ec98" y="204.768"/>
     <use style="fill:#ff7f0e;stroke:#ff7f0e;" x="169.520383" xlink:href="#m052bf9ec98" y="219.888"/>
     <use style="fill:#ff7f0e;stroke:#ff7f0e;" x="169.520383" xlink:href="#m052bf9ec98" y="204.768"/>
     <use style="fill:#ff7f0e;stroke:#ff7f0e;" x="162.68555" xlink:href="#m052bf9ec98" y="213.84"/>
     <use style="fill:#ff7f0e;stroke:#ff7f0e;" x="159.268134" xlink:href="#m052bf9ec98" y="219.888"/>
     <use style="fill:#ff7f0e;stroke:#ff7f0e;" x="159.268134" xlink:href="#m052bf9ec98" y="204.768"/>
     <use style="fill:#ff7f0e;stroke:#ff7f0e;" x="224.199043" xlink:href="#m052bf9ec98" y="295.488"/>
     <use style="fill:#ff7f0e;stroke:#ff7f0e;" x="217.364211" xlink:href="#m052bf9ec98" y="280.368"/>
     <use style="fill:#ff7f0e;stroke:#ff7f0e;" x="217.364211" xlink:href="#m052bf9ec98" y="265.248"/>
     <use style="fill:#ff7f0e;stroke:#ff7f0e;" x="210.529378" xlink:href="#m052bf9ec98" y="295.488"/>
     <use style="fill:#ff7f0e;stroke:#ff7f0e;" x="210.529378" xlink:href="#m052bf9ec98" y="265.248"/>
     <use style="fill:#ff7f0e;stroke:#ff7f0e;" x="203.694545" xlink:href="#m052bf9ec98" y="295.488"/>
     <use style="fill:#ff7f0e;stroke:#ff7f0e;" x="203.694545" xlink:href="#m052bf9ec98" y="265.248"/>
     <use style="fill:#ff7f0e;stroke:#ff7f0e;" x="193.442297" xlink:href="#m052bf9ec98" y="295.488"/>
     <use style="fill:#ff7f0e;stroke:#ff7f0e;" x="244.703541" xlink:href="#m052bf9ec98" y="219.888"/>
     <use style="fill:#ff7f0e;stroke:#ff7f0e;" x="244.703541" xlink:href="#m052bf9ec98" y="204.768"/>
     <use style="fill:#ff7f0e;stroke:#ff7f0e;" x="244.703541" xlink:href="#m052bf9ec98" y="189.648"/>
     <use style="fill:#ff7f0e;stroke:#ff7f0e;" x="237.868708" xlink:href="#m052bf9ec98" y="219.888"/>
     <use style="fill:#ff7f0e;stroke:#ff7f0e;" x="237.868708" xlink:href="#m052bf9ec98" y="189.648"/>
     <use style="fill:#ff7f0e;stroke:#ff7f0e;" x="234.451292" xlink:href="#m052bf9ec98" y="204.768"/>
     <use style="fill:#ff7f0e;stroke:#ff7f0e;" x="234.451292" xlink:href="#m052bf9ec98" y="189.648"/>
     <use style="fill:#ff7f0e;stroke:#ff7f0e;" x="227.616459" xlink:href="#m052bf9ec98" y="219.888"/>
     <use style="fill:#ff7f0e;stroke:#ff7f0e;" x="227.616459" xlink:href="#m052bf9ec98" y="204.768"/>
     <use style="fill:#ff7f0e;stroke:#ff7f0e;" x="398.487273" xlink:href="#m052bf9ec98" y="219.888"/>
     <use style="fill:#ff7f0e;stroke:#ff7f0e;" x="398.487273" xlink:href="#m052bf9ec98" y="204.768"/>
     <use style="fill:#ff7f0e;stroke:#ff7f0e;" x="254.955789" xlink:href="#m052bf9ec98" y="219.888"/>
     <use style="fill:#ff7f0e;stroke:#ff7f0e;" x="388.235024" xlink:href="#m052bf9ec98" y="219.888"/>
     <use style="fill:#ff7f0e;stroke:#ff7f0e;" x="254.955789" xlink:href="#m052bf9ec98" y="204.768"/>
     <use style="fill:#ff7f0e;stroke:#ff7f0e;" x="227.616459" xlink:href="#m052bf9ec98" y="114.048"/>
     <use style="fill:#ff7f0e;stroke:#ff7f0e;" x="381.400191" xlink:href="#m052bf9ec98" y="204.768"/>
     <use style="fill:#ff7f0e;stroke:#ff7f0e;" x="374.565359" xlink:href="#m052bf9ec98" y="219.888"/>
     <use style="fill:#ff7f0e;stroke:#ff7f0e;" x="374.565359" xlink:href="#m052bf9ec98" y="204.768"/>
     <use style="fill:#ff7f0e;stroke:#ff7f0e;" x="371.147943" xlink:href="#m052bf9ec98" y="219.888"/>
     <use style="fill:#ff7f0e;stroke:#ff7f0e;" x="364.31311" xlink:href="#m052bf9ec98" y="235.008"/>
     <use style="fill:#ff7f0e;stroke:#ff7f0e;" x="364.31311" xlink:href="#m052bf9ec98" y="204.768"/>
     <use style="fill:#ff7f0e;stroke:#ff7f0e;" x="330.138947" xlink:href="#m052bf9ec98" y="144.288"/>
     <use style="fill:#ff7f0e;stroke:#ff7f0e;" x="319.886699" xlink:href="#m052bf9ec98" y="144.288"/>
     <use style="fill:#ff7f0e;stroke:#ff7f0e;" x="313.051866" xlink:href="#m052bf9ec98" y="135.216"/>
     <use style="fill:#ff7f0e;stroke:#ff7f0e;" x="306.217033" xlink:href="#m052bf9ec98" y="129.168"/>
     <use style="fill:#ff7f0e;stroke:#ff7f0e;" x="299.382201" xlink:href="#m052bf9ec98" y="144.288"/>
     <use style="fill:#ff7f0e;stroke:#ff7f0e;" x="295.964785" xlink:href="#m052bf9ec98" y="144.288"/>
     <use style="fill:#ff7f0e;stroke:#ff7f0e;" x="295.964785" xlink:href="#m052bf9ec98" y="129.168"/>
     <use style="fill:#ff7f0e;stroke:#ff7f0e;" x="289.129952" xlink:href="#m052bf9ec98" y="135.216"/>
     <use style="fill:#ff7f0e;stroke:#ff7f0e;" x="278.877703" xlink:href="#m052bf9ec98" y="144.288"/>
     <use style="fill:#ff7f0e;stroke:#ff7f0e;" x="278.877703" xlink:href="#m052bf9ec98" y="129.168"/>
     <use style="fill:#ff7f0e;stroke:#ff7f0e;" x="302.799617" xlink:href="#m052bf9ec98" y="53.568"/>
     <use style="fill:#ff7f0e;stroke:#ff7f0e;" x="295.964785" xlink:href="#m052bf9ec98" y="53.568"/>
     <use style="fill:#ff7f0e;stroke:#ff7f0e;" x="295.964785" xlink:href="#m052bf9ec98" y="62.64"/>
     <use style="fill:#ff7f0e;stroke:#ff7f0e;" x="285.712536" xlink:href="#m052bf9ec98" y="68.688"/>
     <use style="fill:#ff7f0e;stroke:#ff7f0e;" x="278.877703" xlink:href="#m052bf9ec98" y="68.688"/>
     <use style="fill:#ff7f0e;stroke:#ff7f0e;" x="278.877703" xlink:href="#m052bf9ec98" y="53.568"/>
     <use style="fill:#ff7f0e;stroke:#ff7f0e;" x="272.042871" xlink:href="#m052bf9ec98" y="83.808"/>
     <use style="fill:#ff7f0e;stroke:#ff7f0e;" x="261.790622" xlink:href="#m052bf9ec98" y="68.688"/>
     <use style="fill:#ff7f0e;stroke:#ff7f0e;" x="261.790622" xlink:href="#m052bf9ec98" y="53.568"/>
    </g>
   </g>
   <g id="matplotlib.axis_1">
    <g id="xtick_1">
     <g id="line2d_1">
      <defs>
       <path d="M 0 0 
L 0 3.5 
" id="m660b5bc683" style="stroke:#000000;stroke-width:0.8;"/>
      </defs>
      <g>
       <use style="stroke:#000000;stroke-width:0.8;" x="73.832727" xlink:href="#m660b5bc683" y="307.584"/>
      </g>
     </g>
     <g id="text_1">
      <!-- 0 -->
      <g transform="translate(70.651477 322.182437)scale(0.1 -0.1)">
       <defs>
        <path d="M 31.78125 66.40625 
Q 24.171875 66.40625 20.328125 58.90625 
Q 16.5 51.421875 16.5 36.375 
Q 16.5 21.390625 20.328125 13.890625 
Q 24.171875 6.390625 31.78125 6.390625 
Q 39.453125 6.390625 43.28125 13.890625 
Q 47.125 21.390625 47.125 36.375 
Q 47.125 51.421875 43.28125 58.90625 
Q 39.453125 66.40625 31.78125 66.40625 
z
M 31.78125 74.21875 
Q 44.046875 74.21875 50.515625 64.515625 
Q 56.984375 54.828125 56.984375 36.375 
Q 56.984375 17.96875 50.515625 8.265625 
Q 44.046875 -1.421875 31.78125 -1.421875 
Q 19.53125 -1.421875 13.0625 8.265625 
Q 6.59375 17.96875 6.59375 36.375 
Q 6.59375 54.828125 13.0625 64.515625 
Q 19.53125 74.21875 31.78125 74.21875 
z
" id="DejaVuSans-48"/>
       </defs>
       <use xlink:href="#DejaVuSans-48"/>
      </g>
     </g>
    </g>
    <g id="xtick_2">
     <g id="line2d_2">
      <g>
       <use style="stroke:#000000;stroke-width:0.8;" x="142.181053" xlink:href="#m660b5bc683" y="307.584"/>
      </g>
     </g>
     <g id="text_2">
      <!-- 20 -->
      <g transform="translate(135.818553 322.182437)scale(0.1 -0.1)">
       <defs>
        <path d="M 19.1875 8.296875 
L 53.609375 8.296875 
L 53.609375 0 
L 7.328125 0 
L 7.328125 8.296875 
Q 12.9375 14.109375 22.625 23.890625 
Q 32.328125 33.6875 34.8125 36.53125 
Q 39.546875 41.84375 41.421875 45.53125 
Q 43.3125 49.21875 43.3125 52.78125 
Q 43.3125 58.59375 39.234375 62.25 
Q 35.15625 65.921875 28.609375 65.921875 
Q 23.96875 65.921875 18.8125 64.3125 
Q 13.671875 62.703125 7.8125 59.421875 
L 7.8125 69.390625 
Q 13.765625 71.78125 18.9375 73 
Q 24.125 74.21875 28.421875 74.21875 
Q 39.75 74.21875 46.484375 68.546875 
Q 53.21875 62.890625 53.21875 53.421875 
Q 53.21875 48.921875 51.53125 44.890625 
Q 49.859375 40.875 45.40625 35.40625 
Q 44.1875 33.984375 37.640625 27.21875 
Q 31.109375 20.453125 19.1875 8.296875 
z
" id="DejaVuSans-50"/>
       </defs>
       <use xlink:href="#DejaVuSans-50"/>
       <use x="63.623047" xlink:href="#DejaVuSans-48"/>
      </g>
     </g>
    </g>
    <g id="xtick_3">
     <g id="line2d_3">
      <g>
       <use style="stroke:#000000;stroke-width:0.8;" x="210.529378" xlink:href="#m660b5bc683" y="307.584"/>
      </g>
     </g>
     <g id="text_3">
      <!-- 40 -->
      <g transform="translate(204.166878 322.182437)scale(0.1 -0.1)">
       <defs>
        <path d="M 37.796875 64.3125 
L 12.890625 25.390625 
L 37.796875 25.390625 
z
M 35.203125 72.90625 
L 47.609375 72.90625 
L 47.609375 25.390625 
L 58.015625 25.390625 
L 58.015625 17.1875 
L 47.609375 17.1875 
L 47.609375 0 
L 37.796875 0 
L 37.796875 17.1875 
L 4.890625 17.1875 
L 4.890625 26.703125 
z
" id="DejaVuSans-52"/>
       </defs>
       <use xlink:href="#DejaVuSans-52"/>
       <use x="63.623047" xlink:href="#DejaVuSans-48"/>
      </g>
     </g>
    </g>
    <g id="xtick_4">
     <g id="line2d_4">
      <g>
       <use style="stroke:#000000;stroke-width:0.8;" x="278.877703" xlink:href="#m660b5bc683" y="307.584"/>
      </g>
     </g>
     <g id="text_4">
      <!-- 60 -->
      <g transform="translate(272.515203 322.182437)scale(0.1 -0.1)">
       <defs>
        <path d="M 33.015625 40.375 
Q 26.375 40.375 22.484375 35.828125 
Q 18.609375 31.296875 18.609375 23.390625 
Q 18.609375 15.53125 22.484375 10.953125 
Q 26.375 6.390625 33.015625 6.390625 
Q 39.65625 6.390625 43.53125 10.953125 
Q 47.40625 15.53125 47.40625 23.390625 
Q 47.40625 31.296875 43.53125 35.828125 
Q 39.65625 40.375 33.015625 40.375 
z
M 52.59375 71.296875 
L 52.59375 62.3125 
Q 48.875 64.0625 45.09375 64.984375 
Q 41.3125 65.921875 37.59375 65.921875 
Q 27.828125 65.921875 22.671875 59.328125 
Q 17.53125 52.734375 16.796875 39.40625 
Q 19.671875 43.65625 24.015625 45.921875 
Q 28.375 48.1875 33.59375 48.1875 
Q 44.578125 48.1875 50.953125 41.515625 
Q 57.328125 34.859375 57.328125 23.390625 
Q 57.328125 12.15625 50.6875 5.359375 
Q 44.046875 -1.421875 33.015625 -1.421875 
Q 20.359375 -1.421875 13.671875 8.265625 
Q 6.984375 17.96875 6.984375 36.375 
Q 6.984375 53.65625 15.1875 63.9375 
Q 23.390625 74.21875 37.203125 74.21875 
Q 40.921875 74.21875 44.703125 73.484375 
Q 48.484375 72.75 52.59375 71.296875 
z
" id="DejaVuSans-54"/>
       </defs>
       <use xlink:href="#DejaVuSans-54"/>
       <use x="63.623047" xlink:href="#DejaVuSans-48"/>
      </g>
     </g>
    </g>
    <g id="xtick_5">
     <g id="line2d_5">
      <g>
       <use style="stroke:#000000;stroke-width:0.8;" x="347.226029" xlink:href="#m660b5bc683" y="307.584"/>
      </g>
     </g>
     <g id="text_5">
      <!-- 80 -->
      <g transform="translate(340.863529 322.182437)scale(0.1 -0.1)">
       <defs>
        <path d="M 31.78125 34.625 
Q 24.75 34.625 20.71875 30.859375 
Q 16.703125 27.09375 16.703125 20.515625 
Q 16.703125 13.921875 20.71875 10.15625 
Q 24.75 6.390625 31.78125 6.390625 
Q 38.8125 6.390625 42.859375 10.171875 
Q 46.921875 13.96875 46.921875 20.515625 
Q 46.921875 27.09375 42.890625 30.859375 
Q 38.875 34.625 31.78125 34.625 
z
M 21.921875 38.8125 
Q 15.578125 40.375 12.03125 44.71875 
Q 8.5 49.078125 8.5 55.328125 
Q 8.5 64.0625 14.71875 69.140625 
Q 20.953125 74.21875 31.78125 74.21875 
Q 42.671875 74.21875 48.875 69.140625 
Q 55.078125 64.0625 55.078125 55.328125 
Q 55.078125 49.078125 51.53125 44.71875 
Q 48 40.375 41.703125 38.8125 
Q 48.828125 37.15625 52.796875 32.3125 
Q 56.78125 27.484375 56.78125 20.515625 
Q 56.78125 9.90625 50.3125 4.234375 
Q 43.84375 -1.421875 31.78125 -1.421875 
Q 19.734375 -1.421875 13.25 4.234375 
Q 6.78125 9.90625 6.78125 20.515625 
Q 6.78125 27.484375 10.78125 32.3125 
Q 14.796875 37.15625 21.921875 38.8125 
z
M 18.3125 54.390625 
Q 18.3125 48.734375 21.84375 45.5625 
Q 25.390625 42.390625 31.78125 42.390625 
Q 38.140625 42.390625 41.71875 45.5625 
Q 45.3125 48.734375 45.3125 54.390625 
Q 45.3125 60.0625 41.71875 63.234375 
Q 38.140625 66.40625 31.78125 66.40625 
Q 25.390625 66.40625 21.84375 63.234375 
Q 18.3125 60.0625 18.3125 54.390625 
z
" id="DejaVuSans-56"/>
       </defs>
       <use xlink:href="#DejaVuSans-56"/>
       <use x="63.623047" xlink:href="#DejaVuSans-48"/>
      </g>
     </g>
    </g>
    <g id="text_6">
     <!-- Longitude -->
     <g transform="translate(215.608437 335.205875)scale(0.1 -0.1)">
      <defs>
       <path d="M 57.328125 18.3125 
L 58.9375 17.96875 
L 53.265625 0 
L 2 0 
L 2 1.8125 
L 4.5 1.8125 
Q 8.6875 1.8125 10.5 4.546875 
Q 11.53125 6.109375 11.53125 11.765625 
L 11.53125 54.5 
Q 11.53125 60.6875 10.15625 62.25 
Q 8.25 64.40625 4.5 64.40625 
L 2 64.40625 
L 2 66.21875 
L 31.984375 66.21875 
L 31.984375 64.40625 
Q 26.703125 64.453125 24.578125 63.421875 
Q 22.46875 62.40625 21.6875 60.84375 
Q 20.90625 59.28125 20.90625 53.375 
L 20.90625 11.765625 
Q 20.90625 7.71875 21.6875 6.203125 
Q 22.265625 5.171875 23.484375 4.6875 
Q 24.703125 4.203125 31.109375 4.203125 
L 35.9375 4.203125 
Q 43.5625 4.203125 46.625 5.328125 
Q 49.703125 6.453125 52.234375 9.296875 
Q 54.78125 12.15625 57.328125 18.3125 
z
" id="TimesNewRomanPSMT-76"/>
       <path d="M 25 46.046875 
Q 35.15625 46.046875 41.3125 38.328125 
Q 46.53125 31.734375 46.53125 23.1875 
Q 46.53125 17.1875 43.640625 11.03125 
Q 40.765625 4.890625 35.71875 1.75 
Q 30.671875 -1.375 24.46875 -1.375 
Q 14.359375 -1.375 8.40625 6.6875 
Q 3.375 13.484375 3.375 21.921875 
Q 3.375 28.078125 6.421875 34.15625 
Q 9.46875 40.234375 14.453125 43.140625 
Q 19.4375 46.046875 25 46.046875 
z
M 23.484375 42.875 
Q 20.90625 42.875 18.28125 41.328125 
Q 15.671875 39.796875 14.0625 35.9375 
Q 12.453125 32.078125 12.453125 26.03125 
Q 12.453125 16.265625 16.328125 9.171875 
Q 20.21875 2.09375 26.5625 2.09375 
Q 31.296875 2.09375 34.375 6 
Q 37.453125 9.90625 37.453125 19.4375 
Q 37.453125 31.34375 32.328125 38.1875 
Q 28.859375 42.875 23.484375 42.875 
z
" id="TimesNewRomanPSMT-111"/>
       <path d="M 16.15625 36.578125 
Q 24.03125 46.046875 31.15625 46.046875 
Q 34.8125 46.046875 37.453125 44.21875 
Q 40.09375 42.390625 41.65625 38.1875 
Q 42.71875 35.25 42.71875 29.203125 
L 42.71875 10.109375 
Q 42.71875 5.859375 43.40625 4.34375 
Q 43.953125 3.125 45.140625 2.4375 
Q 46.34375 1.765625 49.5625 1.765625 
L 49.5625 0 
L 27.4375 0 
L 27.4375 1.765625 
L 28.375 1.765625 
Q 31.5 1.765625 32.734375 2.703125 
Q 33.984375 3.65625 34.46875 5.515625 
Q 34.671875 6.25 34.671875 10.109375 
L 34.671875 28.421875 
Q 34.671875 34.515625 33.078125 37.28125 
Q 31.5 40.046875 27.734375 40.046875 
Q 21.921875 40.046875 16.15625 33.6875 
L 16.15625 10.109375 
Q 16.15625 5.5625 16.703125 4.5 
Q 17.390625 3.078125 18.578125 2.421875 
Q 19.78125 1.765625 23.4375 1.765625 
L 23.4375 0 
L 1.3125 0 
L 1.3125 1.765625 
L 2.296875 1.765625 
Q 5.71875 1.765625 6.90625 3.484375 
Q 8.109375 5.21875 8.109375 10.109375 
L 8.109375 26.703125 
Q 8.109375 34.765625 7.734375 36.515625 
Q 7.375 38.28125 6.609375 38.90625 
Q 5.859375 39.546875 4.59375 39.546875 
Q 3.21875 39.546875 1.3125 38.8125 
L 0.59375 40.578125 
L 14.0625 46.046875 
L 16.15625 46.046875 
z
" id="TimesNewRomanPSMT-110"/>
       <path d="M 15.09375 16.3125 
Q 10.984375 18.3125 8.78125 21.890625 
Q 6.59375 25.484375 6.59375 29.828125 
Q 6.59375 36.46875 11.59375 41.25 
Q 16.609375 46.046875 24.421875 46.046875 
Q 30.8125 46.046875 35.5 42.921875 
L 44.96875 42.921875 
Q 47.078125 42.921875 47.40625 42.796875 
Q 47.75 42.671875 47.90625 42.390625 
Q 48.1875 41.9375 48.1875 40.828125 
Q 48.1875 39.546875 47.953125 39.0625 
Q 47.796875 38.8125 47.4375 38.671875 
Q 47.078125 38.53125 44.96875 38.53125 
L 39.15625 38.53125 
Q 41.890625 35.015625 41.890625 29.546875 
Q 41.890625 23.296875 37.109375 18.84375 
Q 32.328125 14.40625 24.265625 14.40625 
Q 20.953125 14.40625 17.484375 15.375 
Q 15.328125 13.53125 14.5625 12.140625 
Q 13.8125 10.75 13.8125 9.765625 
Q 13.8125 8.9375 14.625 8.15625 
Q 15.4375 7.375 17.78125 7.03125 
Q 19.140625 6.84375 24.609375 6.6875 
Q 34.671875 6.453125 37.640625 6 
Q 42.1875 5.375 44.890625 2.640625 
Q 47.609375 -0.09375 47.609375 -4.109375 
Q 47.609375 -9.625 42.4375 -14.453125 
Q 34.8125 -21.578125 22.5625 -21.578125 
Q 13.140625 -21.578125 6.640625 -17.328125 
Q 2.984375 -14.890625 2.984375 -12.25 
Q 2.984375 -11.078125 3.515625 -9.90625 
Q 4.34375 -8.109375 6.9375 -4.890625 
Q 7.28125 -4.4375 11.921875 0.390625 
Q 9.375 1.90625 8.328125 3.09375 
Q 7.28125 4.296875 7.28125 5.8125 
Q 7.28125 7.515625 8.671875 9.8125 
Q 10.0625 12.109375 15.09375 16.3125 
z
M 23.578125 43.703125 
Q 19.96875 43.703125 17.53125 40.8125 
Q 15.09375 37.9375 15.09375 31.984375 
Q 15.09375 24.265625 18.40625 20.015625 
Q 20.953125 16.796875 24.859375 16.796875 
Q 28.5625 16.796875 30.953125 19.578125 
Q 33.34375 22.359375 33.34375 28.328125 
Q 33.34375 36.078125 29.984375 40.484375 
Q 27.484375 43.703125 23.578125 43.703125 
z
M 14.59375 0 
Q 12.3125 -2.484375 11.140625 -4.625 
Q 9.96875 -6.78125 9.96875 -8.59375 
Q 9.96875 -10.9375 12.796875 -12.703125 
Q 17.671875 -15.71875 26.90625 -15.71875 
Q 35.6875 -15.71875 39.859375 -12.609375 
Q 44.046875 -9.515625 44.046875 -6 
Q 44.046875 -3.46875 41.546875 -2.390625 
Q 39.015625 -1.3125 31.5 -1.125 
Q 20.515625 -0.828125 14.59375 0 
z
" id="TimesNewRomanPSMT-103"/>
       <path d="M 14.5 69.4375 
Q 16.546875 69.4375 17.984375 67.984375 
Q 19.4375 66.546875 19.4375 64.5 
Q 19.4375 62.453125 17.984375 60.984375 
Q 16.546875 59.515625 14.5 59.515625 
Q 12.453125 59.515625 10.984375 60.984375 
Q 9.515625 62.453125 9.515625 64.5 
Q 9.515625 66.546875 10.953125 67.984375 
Q 12.40625 69.4375 14.5 69.4375 
z
M 18.5625 46.046875 
L 18.5625 10.109375 
Q 18.5625 5.90625 19.171875 4.515625 
Q 19.78125 3.125 20.96875 2.4375 
Q 22.171875 1.765625 25.34375 1.765625 
L 25.34375 0 
L 3.609375 0 
L 3.609375 1.765625 
Q 6.890625 1.765625 8 2.390625 
Q 9.125 3.03125 9.78125 4.484375 
Q 10.453125 5.953125 10.453125 10.109375 
L 10.453125 27.34375 
Q 10.453125 34.625 10.015625 36.765625 
Q 9.671875 38.328125 8.9375 38.9375 
Q 8.203125 39.546875 6.9375 39.546875 
Q 5.5625 39.546875 3.609375 38.8125 
L 2.9375 40.578125 
L 16.40625 46.046875 
z
" id="TimesNewRomanPSMT-105"/>
       <path d="M 16.109375 59.421875 
L 16.109375 44.734375 
L 26.5625 44.734375 
L 26.5625 41.3125 
L 16.109375 41.3125 
L 16.109375 12.3125 
Q 16.109375 7.953125 17.359375 6.4375 
Q 18.609375 4.9375 20.5625 4.9375 
Q 22.171875 4.9375 23.6875 5.9375 
Q 25.203125 6.9375 26.03125 8.890625 
L 27.9375 8.890625 
Q 26.21875 4.109375 23.09375 1.6875 
Q 19.96875 -0.734375 16.65625 -0.734375 
Q 14.40625 -0.734375 12.25 0.515625 
Q 10.109375 1.765625 9.078125 4.078125 
Q 8.0625 6.390625 8.0625 11.234375 
L 8.0625 41.3125 
L 0.984375 41.3125 
L 0.984375 42.921875 
Q 3.65625 44 6.46875 46.5625 
Q 9.28125 49.125 11.46875 52.640625 
Q 12.59375 54.5 14.59375 59.421875 
z
" id="TimesNewRomanPSMT-116"/>
       <path d="M 42.328125 44.734375 
L 42.328125 17.625 
Q 42.328125 9.859375 42.6875 8.125 
Q 43.0625 6.390625 43.859375 5.703125 
Q 44.671875 5.03125 45.75 5.03125 
Q 47.265625 5.03125 49.171875 5.859375 
L 49.859375 4.15625 
L 36.46875 -1.375 
L 34.28125 -1.375 
L 34.28125 8.109375 
Q 28.515625 1.859375 25.484375 0.234375 
Q 22.46875 -1.375 19.09375 -1.375 
Q 15.328125 -1.375 12.5625 0.796875 
Q 9.8125 2.984375 8.734375 6.390625 
Q 7.671875 9.8125 7.671875 16.0625 
L 7.671875 36.03125 
Q 7.671875 39.203125 6.984375 40.421875 
Q 6.296875 41.65625 4.953125 42.3125 
Q 3.609375 42.96875 0.09375 42.921875 
L 0.09375 44.734375 
L 15.765625 44.734375 
L 15.765625 14.796875 
Q 15.765625 8.546875 17.9375 6.59375 
Q 20.125 4.640625 23.1875 4.640625 
Q 25.296875 4.640625 27.953125 5.953125 
Q 30.609375 7.28125 34.28125 10.984375 
L 34.28125 36.328125 
Q 34.28125 40.140625 32.890625 41.484375 
Q 31.5 42.828125 27.09375 42.921875 
L 27.09375 44.734375 
z
" id="TimesNewRomanPSMT-117"/>
       <path d="M 34.71875 5.03125 
Q 31.453125 1.609375 28.328125 0.109375 
Q 25.203125 -1.375 21.578125 -1.375 
Q 14.265625 -1.375 8.796875 4.75 
Q 3.328125 10.890625 3.328125 20.515625 
Q 3.328125 30.125 9.375 38.109375 
Q 15.4375 46.09375 24.953125 46.09375 
Q 30.859375 46.09375 34.71875 42.328125 
L 34.71875 50.59375 
Q 34.71875 58.25 34.34375 60 
Q 33.984375 61.765625 33.203125 62.390625 
Q 32.421875 63.03125 31.25 63.03125 
Q 29.984375 63.03125 27.875 62.25 
L 27.25 63.96875 
L 40.578125 69.4375 
L 42.78125 69.4375 
L 42.78125 17.71875 
Q 42.78125 9.859375 43.140625 8.125 
Q 43.5 6.390625 44.3125 5.703125 
Q 45.125 5.03125 46.1875 5.03125 
Q 47.515625 5.03125 49.703125 5.859375 
L 50.25 4.15625 
L 36.96875 -1.375 
L 34.71875 -1.375 
z
M 34.71875 8.453125 
L 34.71875 31.5 
Q 34.421875 34.8125 32.953125 37.546875 
Q 31.5 40.28125 29.078125 41.671875 
Q 26.65625 43.0625 24.359375 43.0625 
Q 20.0625 43.0625 16.703125 39.203125 
Q 12.25 34.125 12.25 24.359375 
Q 12.25 14.5 16.546875 9.25 
Q 20.84375 4 26.125 4 
Q 30.5625 4 34.71875 8.453125 
z
" id="TimesNewRomanPSMT-100"/>
       <path d="M 10.640625 27.875 
Q 10.59375 17.921875 15.484375 12.25 
Q 20.359375 6.59375 26.953125 6.59375 
Q 31.34375 6.59375 34.59375 9 
Q 37.84375 11.421875 40.046875 17.28125 
L 41.546875 16.3125 
Q 40.53125 9.625 35.59375 4.125 
Q 30.671875 -1.375 23.25 -1.375 
Q 15.1875 -1.375 9.453125 4.90625 
Q 3.71875 11.1875 3.71875 21.78125 
Q 3.71875 33.25 9.59375 39.671875 
Q 15.484375 46.09375 24.359375 46.09375 
Q 31.890625 46.09375 36.71875 41.140625 
Q 41.546875 36.1875 41.546875 27.875 
z
M 10.640625 30.71875 
L 31.34375 30.71875 
Q 31.109375 35.015625 30.328125 36.765625 
Q 29.109375 39.5 26.6875 41.0625 
Q 24.265625 42.625 21.625 42.625 
Q 17.578125 42.625 14.375 39.46875 
Q 11.1875 36.328125 10.640625 30.71875 
z
" id="TimesNewRomanPSMT-101"/>
      </defs>
      <use xlink:href="#TimesNewRomanPSMT-76"/>
      <use x="61.083984" xlink:href="#TimesNewRomanPSMT-111"/>
      <use x="111.083984" xlink:href="#TimesNewRomanPSMT-110"/>
      <use x="161.083984" xlink:href="#TimesNewRomanPSMT-103"/>
      <use x="211.083984" xlink:href="#TimesNewRomanPSMT-105"/>
      <use x="238.867188" xlink:href="#TimesNewRomanPSMT-116"/>
      <use x="266.650391" xlink:href="#TimesNewRomanPSMT-117"/>
      <use x="316.650391" xlink:href="#TimesNewRomanPSMT-100"/>
      <use x="366.650391" xlink:href="#TimesNewRomanPSMT-101"/>
     </g>
    </g>
   </g>
   <g id="matplotlib.axis_2">
    <g id="ytick_1">
     <g id="line2d_6">
      <defs>
       <path d="M 0 0 
L -3.5 0 
" id="m1711182ca6" style="stroke:#000000;stroke-width:0.8;"/>
      </defs>
      <g>
       <use style="stroke:#000000;stroke-width:0.8;" x="57.6" xlink:href="#m1711182ca6" y="280.368"/>
      </g>
     </g>
     <g id="text_7">
      <!-- 10 -->
      <g transform="translate(37.875 284.167219)scale(0.1 -0.1)">
       <defs>
        <path d="M 12.40625 8.296875 
L 28.515625 8.296875 
L 28.515625 63.921875 
L 10.984375 60.40625 
L 10.984375 69.390625 
L 28.421875 72.90625 
L 38.28125 72.90625 
L 38.28125 8.296875 
L 54.390625 8.296875 
L 54.390625 0 
L 12.40625 0 
z
" id="DejaVuSans-49"/>
       </defs>
       <use xlink:href="#DejaVuSans-49"/>
       <use x="63.623047" xlink:href="#DejaVuSans-48"/>
      </g>
     </g>
    </g>
    <g id="ytick_2">
     <g id="line2d_7">
      <g>
       <use style="stroke:#000000;stroke-width:0.8;" x="57.6" xlink:href="#m1711182ca6" y="250.128"/>
      </g>
     </g>
     <g id="text_8">
      <!-- 20 -->
      <g transform="translate(37.875 253.927219)scale(0.1 -0.1)">
       <use xlink:href="#DejaVuSans-50"/>
       <use x="63.623047" xlink:href="#DejaVuSans-48"/>
      </g>
     </g>
    </g>
    <g id="ytick_3">
     <g id="line2d_8">
      <g>
       <use style="stroke:#000000;stroke-width:0.8;" x="57.6" xlink:href="#m1711182ca6" y="219.888"/>
      </g>
     </g>
     <g id="text_9">
      <!-- 30 -->
      <g transform="translate(37.875 223.687219)scale(0.1 -0.1)">
       <defs>
        <path d="M 40.578125 39.3125 
Q 47.65625 37.796875 51.625 33 
Q 55.609375 28.21875 55.609375 21.1875 
Q 55.609375 10.40625 48.1875 4.484375 
Q 40.765625 -1.421875 27.09375 -1.421875 
Q 22.515625 -1.421875 17.65625 -0.515625 
Q 12.796875 0.390625 7.625 2.203125 
L 7.625 11.71875 
Q 11.71875 9.328125 16.59375 8.109375 
Q 21.484375 6.890625 26.8125 6.890625 
Q 36.078125 6.890625 40.9375 10.546875 
Q 45.796875 14.203125 45.796875 21.1875 
Q 45.796875 27.640625 41.28125 31.265625 
Q 36.765625 34.90625 28.71875 34.90625 
L 20.21875 34.90625 
L 20.21875 43.015625 
L 29.109375 43.015625 
Q 36.375 43.015625 40.234375 45.921875 
Q 44.09375 48.828125 44.09375 54.296875 
Q 44.09375 59.90625 40.109375 62.90625 
Q 36.140625 65.921875 28.71875 65.921875 
Q 24.65625 65.921875 20.015625 65.03125 
Q 15.375 64.15625 9.8125 62.3125 
L 9.8125 71.09375 
Q 15.4375 72.65625 20.34375 73.4375 
Q 25.25 74.21875 29.59375 74.21875 
Q 40.828125 74.21875 47.359375 69.109375 
Q 53.90625 64.015625 53.90625 55.328125 
Q 53.90625 49.265625 50.4375 45.09375 
Q 46.96875 40.921875 40.578125 39.3125 
z
" id="DejaVuSans-51"/>
       </defs>
       <use xlink:href="#DejaVuSans-51"/>
       <use x="63.623047" xlink:href="#DejaVuSans-48"/>
      </g>
     </g>
    </g>
    <g id="ytick_4">
     <g id="line2d_9">
      <g>
       <use style="stroke:#000000;stroke-width:0.8;" x="57.6" xlink:href="#m1711182ca6" y="189.648"/>
      </g>
     </g>
     <g id="text_10">
      <!-- 40 -->
      <g transform="translate(37.875 193.447219)scale(0.1 -0.1)">
       <use xlink:href="#DejaVuSans-52"/>
       <use x="63.623047" xlink:href="#DejaVuSans-48"/>
      </g>
     </g>
    </g>
    <g id="ytick_5">
     <g id="line2d_10">
      <g>
       <use style="stroke:#000000;stroke-width:0.8;" x="57.6" xlink:href="#m1711182ca6" y="159.408"/>
      </g>
     </g>
     <g id="text_11">
      <!-- 50 -->
      <g transform="translate(37.875 163.207219)scale(0.1 -0.1)">
       <defs>
        <path d="M 10.796875 72.90625 
L 49.515625 72.90625 
L 49.515625 64.59375 
L 19.828125 64.59375 
L 19.828125 46.734375 
Q 21.96875 47.46875 24.109375 47.828125 
Q 26.265625 48.1875 28.421875 48.1875 
Q 40.625 48.1875 47.75 41.5 
Q 54.890625 34.8125 54.890625 23.390625 
Q 54.890625 11.625 47.5625 5.09375 
Q 40.234375 -1.421875 26.90625 -1.421875 
Q 22.3125 -1.421875 17.546875 -0.640625 
Q 12.796875 0.140625 7.71875 1.703125 
L 7.71875 11.625 
Q 12.109375 9.234375 16.796875 8.0625 
Q 21.484375 6.890625 26.703125 6.890625 
Q 35.15625 6.890625 40.078125 11.328125 
Q 45.015625 15.765625 45.015625 23.390625 
Q 45.015625 31 40.078125 35.4375 
Q 35.15625 39.890625 26.703125 39.890625 
Q 22.75 39.890625 18.8125 39.015625 
Q 14.890625 38.140625 10.796875 36.28125 
z
" id="DejaVuSans-53"/>
       </defs>
       <use xlink:href="#DejaVuSans-53"/>
       <use x="63.623047" xlink:href="#DejaVuSans-48"/>
      </g>
     </g>
    </g>
    <g id="ytick_6">
     <g id="line2d_11">
      <g>
       <use style="stroke:#000000;stroke-width:0.8;" x="57.6" xlink:href="#m1711182ca6" y="129.168"/>
      </g>
     </g>
     <g id="text_12">
      <!-- 60 -->
      <g transform="translate(37.875 132.967219)scale(0.1 -0.1)">
       <use xlink:href="#DejaVuSans-54"/>
       <use x="63.623047" xlink:href="#DejaVuSans-48"/>
      </g>
     </g>
    </g>
    <g id="ytick_7">
     <g id="line2d_12">
      <g>
       <use style="stroke:#000000;stroke-width:0.8;" x="57.6" xlink:href="#m1711182ca6" y="98.928"/>
      </g>
     </g>
     <g id="text_13">
      <!-- 70 -->
      <g transform="translate(37.875 102.727219)scale(0.1 -0.1)">
       <defs>
        <path d="M 8.203125 72.90625 
L 55.078125 72.90625 
L 55.078125 68.703125 
L 28.609375 0 
L 18.3125 0 
L 43.21875 64.59375 
L 8.203125 64.59375 
z
" id="DejaVuSans-55"/>
       </defs>
       <use xlink:href="#DejaVuSans-55"/>
       <use x="63.623047" xlink:href="#DejaVuSans-48"/>
      </g>
     </g>
    </g>
    <g id="ytick_8">
     <g id="line2d_13">
      <g>
       <use style="stroke:#000000;stroke-width:0.8;" x="57.6" xlink:href="#m1711182ca6" y="68.688"/>
      </g>
     </g>
     <g id="text_14">
      <!-- 80 -->
      <g transform="translate(37.875 72.487219)scale(0.1 -0.1)">
       <use xlink:href="#DejaVuSans-56"/>
       <use x="63.623047" xlink:href="#DejaVuSans-48"/>
      </g>
     </g>
    </g>
    <g id="text_15">
     <!-- Latitude -->
     <g transform="translate(31.735937 191.188156)rotate(-90)scale(0.1 -0.1)">
      <defs>
       <path d="M 28.46875 6.453125 
Q 21.578125 1.125 19.828125 0.296875 
Q 17.1875 -0.921875 14.203125 -0.921875 
Q 9.578125 -0.921875 6.5625 2.25 
Q 3.5625 5.421875 3.5625 10.59375 
Q 3.5625 13.875 5.03125 16.265625 
Q 7.03125 19.578125 11.984375 22.5 
Q 16.9375 25.4375 28.46875 29.640625 
L 28.46875 31.390625 
Q 28.46875 38.09375 26.34375 40.578125 
Q 24.21875 43.0625 20.171875 43.0625 
Q 17.09375 43.0625 15.28125 41.40625 
Q 13.421875 39.75 13.421875 37.59375 
L 13.53125 34.765625 
Q 13.53125 32.515625 12.375 31.296875 
Q 11.234375 30.078125 9.375 30.078125 
Q 7.5625 30.078125 6.421875 31.34375 
Q 5.28125 32.625 5.28125 34.8125 
Q 5.28125 39.015625 9.578125 42.53125 
Q 13.875 46.046875 21.625 46.046875 
Q 27.59375 46.046875 31.390625 44.046875 
Q 34.28125 42.53125 35.640625 39.3125 
Q 36.53125 37.203125 36.53125 30.71875 
L 36.53125 15.53125 
Q 36.53125 9.125 36.765625 7.6875 
Q 37.015625 6.25 37.578125 5.765625 
Q 38.140625 5.28125 38.875 5.28125 
Q 39.65625 5.28125 40.234375 5.609375 
Q 41.265625 6.25 44.1875 9.1875 
L 44.1875 6.453125 
Q 38.71875 -0.875 33.734375 -0.875 
Q 31.34375 -0.875 29.921875 0.78125 
Q 28.515625 2.4375 28.46875 6.453125 
z
M 28.46875 9.625 
L 28.46875 26.65625 
Q 21.09375 23.734375 18.953125 22.515625 
Q 15.09375 20.359375 13.421875 18.015625 
Q 11.765625 15.671875 11.765625 12.890625 
Q 11.765625 9.375 13.859375 7.046875 
Q 15.96875 4.734375 18.703125 4.734375 
Q 22.40625 4.734375 28.46875 9.625 
z
" id="TimesNewRomanPSMT-97"/>
      </defs>
      <use xlink:href="#TimesNewRomanPSMT-76"/>
      <use x="61.083984" xlink:href="#TimesNewRomanPSMT-97"/>
      <use x="105.46875" xlink:href="#TimesNewRomanPSMT-116"/>
      <use x="133.251953" xlink:href="#TimesNewRomanPSMT-105"/>
      <use x="161.035156" xlink:href="#TimesNewRomanPSMT-116"/>
      <use x="188.818359" xlink:href="#TimesNewRomanPSMT-117"/>
      <use x="238.818359" xlink:href="#TimesNewRomanPSMT-100"/>
      <use x="288.818359" xlink:href="#TimesNewRomanPSMT-101"/>
     </g>
    </g>
   </g>
   <g id="line2d_14">
    <path clip-path="url(#pceb75eb68b)" d="M 210.529378 159.408 
L 176.355215 159.408 
L 176.355215 159.408 
L 159.268134 159.408 
L 159.268134 159.408 
L 159.268134 153.36 
L 159.268134 153.36 
L 152.433301 153.36 
L 152.433301 153.36 
L 142.181053 159.408 
L 142.181053 159.408 
L 142.181053 144.288 
L 142.181053 144.288 
L 152.433301 144.288 
L 152.433301 144.288 
L 159.268134 144.288 
L 159.268134 144.288 
L 169.520383 144.288 
L 169.520383 144.288 
L 169.520383 153.36 
L 169.520383 153.36 
L 176.355215 153.36 
L 176.355215 153.36 
L 210.529378 159.408 
L 210.529378 159.408 
L 210.529378 159.408 
" style="fill:none;stroke:#1f77b4;stroke-linecap:square;stroke-width:0.5;"/>
   </g>
   <g id="line2d_15">
    <path clip-path="url(#pceb75eb68b)" d="M 210.529378 159.408 
L 278.877703 144.288 
L 278.877703 144.288 
L 295.964785 144.288 
L 295.964785 144.288 
L 299.382201 144.288 
L 299.382201 144.288 
L 319.886699 144.288 
L 319.886699 144.288 
L 330.138947 144.288 
L 330.138947 144.288 
L 313.051866 135.216 
L 313.051866 135.216 
L 306.217033 129.168 
L 306.217033 129.168 
L 295.964785 129.168 
L 295.964785 129.168 
L 289.129952 135.216 
L 289.129952 135.216 
L 278.877703 129.168 
L 278.877703 129.168 
L 210.529378 159.408 
L 210.529378 159.408 
L 210.529378 159.408 
" style="fill:none;stroke:#ff7f0e;stroke-linecap:square;stroke-width:0.5;"/>
   </g>
   <g id="line2d_16">
    <path clip-path="url(#pceb75eb68b)" d="M 210.529378 159.408 
L 272.042871 83.808 
L 272.042871 83.808 
L 278.877703 68.688 
L 278.877703 68.688 
L 285.712536 68.688 
L 285.712536 68.688 
L 295.964785 62.64 
L 295.964785 62.64 
L 302.799617 53.568 
L 302.799617 53.568 
L 295.964785 53.568 
L 295.964785 53.568 
L 278.877703 53.568 
L 278.877703 53.568 
L 261.790622 53.568 
L 261.790622 53.568 
L 261.790622 68.688 
L 261.790622 68.688 
L 210.529378 159.408 
L 210.529378 159.408 
L 210.529378 159.408 
" style="fill:none;stroke:#2ca02c;stroke-linecap:square;stroke-width:0.5;"/>
   </g>
   <g id="line2d_17">
    <path clip-path="url(#pceb75eb68b)" d="M 210.529378 159.408 
L 186.607464 204.768 
L 186.607464 204.768 
L 186.607464 213.84 
L 186.607464 213.84 
L 193.442297 213.84 
L 193.442297 213.84 
L 193.442297 219.888 
L 193.442297 219.888 
L 183.190048 219.888 
L 183.190048 219.888 
L 176.355215 213.84 
L 176.355215 213.84 
L 176.355215 219.888 
L 176.355215 219.888 
L 169.520383 219.888 
L 169.520383 219.888 
L 159.268134 219.888 
L 159.268134 219.888 
L 162.68555 213.84 
L 162.68555 213.84 
L 159.268134 204.768 
L 159.268134 204.768 
L 169.520383 204.768 
L 169.520383 204.768 
L 176.355215 204.768 
L 176.355215 204.768 
L 210.529378 159.408 
L 210.529378 159.408 
L 210.529378 159.408 
" style="fill:none;stroke:#d62728;stroke-linecap:square;stroke-width:0.5;"/>
   </g>
   <g id="line2d_18">
    <path clip-path="url(#pceb75eb68b)" d="M 210.529378 159.408 
L 108.00689 189.648 
L 108.00689 189.648 
L 101.172057 189.648 
L 101.172057 189.648 
L 108.00689 204.768 
L 108.00689 204.768 
L 90.919809 204.768 
L 90.919809 204.768 
L 80.66756 189.648 
L 80.66756 189.648 
L 73.832727 189.648 
L 73.832727 189.648 
L 73.832727 174.528 
L 73.832727 174.528 
L 90.919809 174.528 
L 90.919809 174.528 
L 101.172057 174.528 
L 101.172057 174.528 
L 210.529378 159.408 
L 210.529378 159.408 
L 210.529378 159.408 
" style="fill:none;stroke:#9467bd;stroke-linecap:square;stroke-width:0.5;"/>
   </g>
   <g id="line2d_19">
    <path clip-path="url(#pceb75eb68b)" d="M 210.529378 159.408 
L 210.529378 265.248 
L 210.529378 265.248 
L 217.364211 265.248 
L 217.364211 265.248 
L 217.364211 280.368 
L 217.364211 280.368 
L 224.199043 295.488 
L 224.199043 295.488 
L 210.529378 295.488 
L 210.529378 295.488 
L 203.694545 295.488 
L 203.694545 295.488 
L 193.442297 295.488 
L 193.442297 295.488 
L 203.694545 265.248 
L 203.694545 265.248 
L 210.529378 159.408 
L 210.529378 159.408 
L 210.529378 159.408 
" style="fill:none;stroke:#8c564b;stroke-linecap:square;stroke-width:0.5;"/>
   </g>
   <g id="line2d_20">
    <path clip-path="url(#pceb75eb68b)" d="M 210.529378 159.408 
L 149.015885 83.808 
L 149.015885 83.808 
L 135.34622 83.808 
L 135.34622 83.808 
L 125.093971 83.808 
L 125.093971 83.808 
L 125.093971 68.688 
L 125.093971 68.688 
L 142.181053 68.688 
L 142.181053 68.688 
L 142.181053 53.568 
L 142.181053 53.568 
L 149.015885 53.568 
L 149.015885 53.568 
L 159.268134 53.568 
L 159.268134 53.568 
L 210.529378 159.408 
L 210.529378 159.408 
L 210.529378 159.408 
" style="fill:none;stroke:#e377c2;stroke-linecap:square;stroke-width:0.5;"/>
   </g>
   <g id="line2d_21">
    <path clip-path="url(#pceb75eb68b)" d="M 210.529378 159.408 
L 364.31311 204.768 
L 364.31311 204.768 
L 374.565359 204.768 
L 374.565359 204.768 
L 381.400191 204.768 
L 381.400191 204.768 
L 398.487273 204.768 
L 398.487273 204.768 
L 398.487273 219.888 
L 398.487273 219.888 
L 388.235024 219.888 
L 388.235024 219.888 
L 374.565359 219.888 
L 374.565359 219.888 
L 371.147943 219.888 
L 371.147943 219.888 
L 364.31311 235.008 
L 364.31311 235.008 
L 210.529378 159.408 
L 210.529378 159.408 
L 210.529378 159.408 
" style="fill:none;stroke:#7f7f7f;stroke-linecap:square;stroke-width:0.5;"/>
   </g>
   <g id="line2d_22">
    <path clip-path="url(#pceb75eb68b)" d="M 210.529378 159.408 
L 217.364211 114.048 
L 217.364211 114.048 
L 217.364211 111.024 
L 217.364211 111.024 
L 210.529378 111.024 
L 210.529378 111.024 
L 203.694545 104.976 
L 203.694545 104.976 
L 193.442297 111.024 
L 193.442297 111.024 
L 193.442297 101.952 
L 193.442297 101.952 
L 203.694545 98.928 
L 203.694545 98.928 
L 210.529378 101.952 
L 210.529378 101.952 
L 217.364211 104.976 
L 217.364211 104.976 
L 227.616459 98.928 
L 227.616459 98.928 
L 227.616459 104.976 
L 227.616459 104.976 
L 227.616459 114.048 
L 227.616459 114.048 
L 210.529378 159.408 
L 210.529378 159.408 
L 210.529378 159.408 
" style="fill:none;stroke:#bcbd22;stroke-linecap:square;stroke-width:0.5;"/>
   </g>
   <g id="line2d_23">
    <path clip-path="url(#pceb75eb68b)" d="M 210.529378 159.408 
L 234.451292 189.648 
L 234.451292 189.648 
L 237.868708 189.648 
L 237.868708 189.648 
L 244.703541 189.648 
L 244.703541 189.648 
L 244.703541 204.768 
L 244.703541 204.768 
L 254.955789 204.768 
L 254.955789 204.768 
L 254.955789 219.888 
L 254.955789 219.888 
L 244.703541 219.888 
L 244.703541 219.888 
L 237.868708 219.888 
L 237.868708 219.888 
L 227.616459 219.888 
L 227.616459 219.888 
L 234.451292 204.768 
L 234.451292 204.768 
L 227.616459 204.768 
L 227.616459 204.768 
L 210.529378 159.408 
L 210.529378 159.408 
L 210.529378 159.408 
" style="fill:none;stroke:#17becf;stroke-linecap:square;stroke-width:0.5;"/>
   </g>
   <g id="patch_3">
    <path d="M 57.6 307.584 
L 57.6 41.472 
" style="fill:none;stroke:#000000;stroke-linecap:square;stroke-linejoin:miter;stroke-width:0.8;"/>
   </g>
   <g id="patch_4">
    <path d="M 414.72 307.584 
L 414.72 41.472 
" style="fill:none;stroke:#000000;stroke-linecap:square;stroke-linejoin:miter;stroke-width:0.8;"/>
   </g>
   <g id="patch_5">
    <path d="M 57.6 307.584 
L 414.72 307.584 
" style="fill:none;stroke:#000000;stroke-linecap:square;stroke-linejoin:miter;stroke-width:0.8;"/>
   </g>
   <g id="patch_6">
    <path d="M 57.6 41.472 
L 414.72 41.472 
" style="fill:none;stroke:#000000;stroke-linecap:square;stroke-linejoin:miter;stroke-width:0.8;"/>
   </g>
  </g>
 </g>
 <defs>
  <clipPath id="pceb75eb68b">
   <rect height="266.112" width="357.12" x="57.6" y="41.472"/>
  </clipPath>
 </defs>
</svg>
